<?xml version="1.0" encoding="UTF-8" standalone="no"?>
<svg
   xmlns:dc="http://purl.org/dc/elements/1.1/"
   xmlns:cc="http://creativecommons.org/ns#"
   xmlns:rdf="http://www.w3.org/1999/02/22-rdf-syntax-ns#"
   xmlns:svg="http://www.w3.org/2000/svg"
   xmlns="http://www.w3.org/2000/svg"
   xmlns:sodipodi="http://sodipodi.sourceforge.net/DTD/sodipodi-0.dtd"
   xmlns:inkscape="http://www.inkscape.org/namespaces/inkscape"
   inkscape:version="1.0beta2 (2b71d25, 2019-12-03)"
   sodipodi:docname="alliance_logo.svg"
   id="svg883"
   preserveAspectRatio="xMidYMid meet"
   viewBox="0 0 400.000000 400.000000"
   height="400.000000pt"
   width="400.000000pt"
   version="1.0">
  <metadata
     id="metadata889">
    <rdf:RDF>
      <cc:Work
         rdf:about="">
        <dc:format>image/svg+xml</dc:format>
        <dc:type
           rdf:resource="http://purl.org/dc/dcmitype/StillImage" />
      </cc:Work>
    </rdf:RDF>
  </metadata>
  <defs
     id="defs887" />
  <sodipodi:namedview
     inkscape:current-layer="svg883"
     inkscape:window-maximized="0"
     inkscape:window-y="47"
     inkscape:window-x="35"
     inkscape:cy="288.71391"
     inkscape:cx="266.66667"
     inkscape:zoom="1.905"
     showguides="false"
     showgrid="false"
     id="namedview885"
     inkscape:window-height="1337"
     inkscape:window-width="2024"
     inkscape:pageshadow="2"
     inkscape:pageopacity="0"
     guidetolerance="10"
     gridtolerance="10"
     objecttolerance="10"
     borderopacity="1"
     inkscape:document-rotation="0"
     bordercolor="#666666"
     pagecolor="#ffffff" />
  <rect
     y="-8.661418"
     x="-10.236219"
     height="423.22836"
     width="434.64572"
     id="rect891"
     style="fill:#f2d030;stroke-width:0.75;fill-opacity:1" />
  <g
     id="g881"
     stroke="none"
     fill="#000000"
     transform="matrix(0.1,0,0,-0.1,-6.4999924,402.60355)">
    <path
       inkscape:connector-curvature="0"
       id="path879"
       d="m 1908,3112 c -163,-391 -278,-666 -378,-907 -32,-77 -89,-212 -126,-300 -36,-88 -91,-218 -121,-290 -30,-71 -70,-166 -88,-210 C 1000,937 927,773 907,758 883,739 800,715 728,705 l -48,-6 v -65 -64 h 263 262 l 33,64 c 147,285 383,491 636,556 101,25 280,27 375,4 142,-35 279,-114 401,-230 94,-90 157,-173 230,-301 l 53,-93 h 258 259 v 64 65 l -47,6 c -79,11 -151,34 -177,58 -14,12 -46,72 -72,132 -164,389 -252,598 -374,890 -272,652 -424,1016 -562,1350 -78,187 -144,343 -147,347 -4,4 -77,-162 -163,-370 z m 220,-692 c 28,-69 132,-320 231,-558 121,-294 174,-431 163,-427 -211,83 -417,112 -605,84 -86,-12 -202,-43 -265,-70 -24,-11 -46,-18 -48,-16 -3,3 86,221 367,902 28,66 59,144 71,173 11,30 23,50 27,45 4,-4 31,-64 59,-133 z" />
  </g>
</svg>
