<?xml version="1.0" encoding="UTF-8" standalone="no"?>
<svg
   xmlns:dc="http://purl.org/dc/elements/1.1/"
   xmlns:cc="http://creativecommons.org/ns#"
   xmlns:rdf="http://www.w3.org/1999/02/22-rdf-syntax-ns#"
   xmlns:svg="http://www.w3.org/2000/svg"
   xmlns="http://www.w3.org/2000/svg"
   xmlns:sodipodi="http://sodipodi.sourceforge.net/DTD/sodipodi-0.dtd"
   xmlns:inkscape="http://www.inkscape.org/namespaces/inkscape"
   inkscape:version="1.0beta2 (2b71d25, 2019-12-03)"
   sodipodi:docname="aontu_logo.svg"
   id="svg3176"
   preserveAspectRatio="xMidYMid meet"
   viewBox="0 0 80.703042 80.703041"
   height="80.703041pt"
   width="80.703041pt"
   version="1.0">
  <metadata
     id="metadata3182">
    <rdf:RDF>
      <cc:Work
         rdf:about="">
        <dc:format>image/svg+xml</dc:format>
        <dc:type
           rdf:resource="http://purl.org/dc/dcmitype/StillImage" />
        <dc:title></dc:title>
      </cc:Work>
    </rdf:RDF>
  </metadata>
  <defs
     id="defs3180" />
  <sodipodi:namedview
     inkscape:current-layer="svg3176"
     inkscape:window-maximized="0"
     inkscape:window-y="169"
     inkscape:window-x="90"
     inkscape:cy="60"
     inkscape:cx="-157.53006"
     inkscape:zoom="2.1971356"
     showgrid="false"
     id="namedview3178"
     inkscape:window-height="1101"
     inkscape:window-width="1615"
     inkscape:pageshadow="2"
     inkscape:pageopacity="0"
     guidetolerance="10"
     gridtolerance="10"
     objecttolerance="10"
     borderopacity="1"
     inkscape:document-rotation="0"
     bordercolor="#666666"
     pagecolor="#ffffff" />
  <g
     style="fill:#44532a;fill-opacity:1"
     id="g3174"
     stroke="none"
     fill="#000000"
     transform="matrix(0.1,0,0,-0.1,-219.32196,98.35152)">
    <path
       inkscape:connector-curvature="0"
       style="fill:#44532a;fill-opacity:1"
       id="path3120"
       d="m 2580,881 c 5,-11 10,-22 10,-25 0,-6 -27,-1 -52,9 -21,8 -24,-15 -6,-44 9,-15 8,-22 -6,-37 -17,-16 -18,-16 -14,7 2,18 -1,24 -14,23 -10,-1 -16,2 -13,6 2,4 -2,16 -10,26 -10,14 -17,16 -25,7 -18,-17 -3,-70 23,-78 l 22,-8 -22,-4 c -26,-5 -28,-15 -11,-42 9,-15 8,-22 -5,-35 -20,-20 -27,-20 -27,-1 0,8 -4,15 -10,15 -5,0 -10,9 -10,20 0,11 -4,20 -10,20 -5,0 -13,14 -18,32 -4,17 -13,33 -20,36 -15,5 -16,-32 -2,-59 8,-15 7,-19 -5,-19 -8,0 -15,-4 -15,-10 0,-5 6,-10 14,-10 9,0 12,-12 11,-41 -2,-35 0,-40 16,-36 14,4 19,0 19,-14 0,-24 -8,-24 -40,1 -14,11 -31,20 -37,20 -7,0 -13,10 -13,23 0,12 -9,28 -20,35 -18,11 -20,10 -20,-11 0,-13 5,-28 12,-35 9,-9 8,-12 -5,-12 -19,0 -23,-15 -6,-26 8,-5 6,-10 -5,-16 -22,-13 -11,-28 22,-29 17,-1 21,-3 10,-6 -25,-6 -22,-30 3,-38 16,-5 18,-9 9,-15 -14,-9 -27,-6 -78,17 -19,8 -36,13 -38,10 -3,-2 3,-23 12,-46 10,-27 22,-41 34,-41 10,0 21,-6 24,-12 4,-9 8,-10 11,-2 4,7 24,10 55,7 45,-4 50,-3 50,16 0,12 4,21 9,21 13,0 22,-16 14,-24 -21,-21 -9,-85 15,-83 16,1 71,47 56,47 -4,0 5,9 20,21 32,25 61,20 101,-16 26,-25 27,-30 23,-96 l -5,-69 h 36 37 l -4,72 c -4,60 -2,74 14,85 20,15 164,19 164,4 0,-5 12,-17 27,-26 24,-16 27,-16 38,-1 7,9 17,16 23,16 7,0 15,12 18,28 4,15 14,32 23,39 15,11 15,15 0,42 -12,20 -14,32 -6,40 16,16 16,63 0,57 -7,-3 -13,1 -13,9 0,25 -16,17 -41,-20 -13,-19 -30,-35 -38,-35 -10,0 -7,8 9,25 20,22 22,29 12,45 -6,10 -10,37 -7,59 3,31 0,41 -11,41 -8,0 -14,9 -14,20 0,11 -4,20 -10,20 -5,0 -10,-8 -10,-17 0,-9 -3,-13 -6,-10 -4,4 -14,-1 -23,-11 -18,-21 -46,-33 -55,-25 -3,3 1,12 9,20 19,18 19,33 1,33 -9,0 -12,7 -9,19 3,10 0,22 -6,25 -7,5 -11,-2 -11,-15 0,-22 -14,-18 -16,4 0,7 -2,21 -2,31 -2,18 -3,18 -22,1 -19,-17 -20,-17 -20,0 0,11 -5,15 -15,11 -9,-3 -15,0 -15,10 0,16 -46,38 -61,28 -5,-3 -9,0 -9,5 0,6 -7,11 -15,11 -12,0 -13,-4 -5,-19 z m 32,-76 c 12,-16 9,-25 -8,-25 -12,0 -15,-6 -10,-27 6,-25 5,-26 -7,-10 -8,9 -12,28 -9,42 2,14 0,25 -7,25 -5,0 -8,7 -5,15 5,13 9,13 23,3 9,-7 19,-17 23,-23 z m 38,2 c 0,-5 -4,-5 -10,-2 -5,3 -10,14 -10,23 0,15 2,15 10,2 5,-8 10,-19 10,-23 z m 60,-57 c -6,-11 -9,-24 -7,-28 3,-4 -1,-13 -9,-20 -12,-11 -14,-8 -14,16 0,27 15,52 32,52 5,0 4,-9 -2,-20 z m -175,-41 c -3,-4 2,-12 11,-17 11,-6 13,-11 5,-16 -17,-11 -28,1 -33,34 -4,23 -2,27 9,19 7,-6 10,-15 8,-20 z m 108,1 c 3,-11 2,-18 -3,-15 -4,3 -10,14 -13,25 -3,11 -2,18 3,15 4,-3 10,-14 13,-25 z m 161,-44 c -3,-9 -10,-16 -15,-16 -6,0 -5,9 1,21 13,24 24,20 14,-5 z m -214,-5 c 0,-6 -4,-13 -10,-16 -5,-3 -10,1 -10,9 0,9 5,16 10,16 6,0 10,-4 10,-9 z m 56,-75 c -4,-31 -11,-56 -16,-56 -13,0 -30,35 -30,60 0,16 -5,20 -15,16 -8,-3 -15,-1 -15,4 0,6 11,10 25,10 21,0 25,5 25,27 0,25 1,26 16,11 13,-13 15,-27 10,-72 z m -186,34 c 13,-8 12,-11 -4,-23 -17,-13 -17,-14 -2,-20 19,-8 12,-27 -10,-27 -8,0 -14,8 -14,18 0,10 -6,24 -12,30 -10,10 -10,15 2,22 19,12 21,12 40,0 z m 305,-20 c 7,0 15,5 17,12 4,12 28,3 28,-11 0,-4 -19,-17 -42,-27 -23,-10 -55,-30 -71,-43 l -28,-24 6,29 c 11,50 14,54 34,54 11,0 23,5 26,10 3,6 1,10 -5,10 -6,0 -8,5 -4,11 5,8 10,6 16,-5 5,-9 15,-16 23,-16 z m -184,-70 c 9,-5 22,-23 27,-40 l 11,-30 -31,16 c -16,9 -60,21 -97,28 -64,13 -65,13 -33,22 47,13 103,14 123,4 z m 327,-13 c 18,-4 32,-2 32,3 0,6 5,10 10,10 7,0 7,-6 0,-20 -8,-15 -17,-19 -38,-14 -40,8 -72,26 -66,36 4,5 11,5 17,0 7,-5 27,-12 45,-15 z m -114,-12 c 11,-8 32,-15 48,-15 17,0 28,-5 28,-14 0,-11 -18,-14 -89,-13 -81,2 -88,4 -80,19 20,37 61,47 93,23 z" />
  </g>
</svg>
