<?xml version="1.0" encoding="UTF-8" standalone="no"?>
<svg
   xmlns:dc="http://purl.org/dc/elements/1.1/"
   xmlns:cc="http://creativecommons.org/ns#"
   xmlns:rdf="http://www.w3.org/1999/02/22-rdf-syntax-ns#"
   xmlns:svg="http://www.w3.org/2000/svg"
   xmlns="http://www.w3.org/2000/svg"
   xmlns:sodipodi="http://sodipodi.sourceforge.net/DTD/sodipodi-0.dtd"
   xmlns:inkscape="http://www.inkscape.org/namespaces/inkscape"
   inkscape:version="1.0beta2 (2b71d25, 2019-12-03)"
   sodipodi:docname="awp_logo.svg"
   viewBox="0 0 152.5235 152.5235"
   height="152.5235"
   width="152.5235"
   id="svg5219"
   version="1.1">
  <metadata
     id="metadata5225">
    <rdf:RDF>
      <cc:Work
         rdf:about="">
        <dc:format>image/svg+xml</dc:format>
        <dc:type
           rdf:resource="http://purl.org/dc/dcmitype/StillImage" />
        <dc:title></dc:title>
      </cc:Work>
    </rdf:RDF>
  </metadata>
  <defs
     id="defs5223" />
  <sodipodi:namedview
     inkscape:current-layer="g5792"
     inkscape:window-maximized="0"
     inkscape:window-y="135"
     inkscape:window-x="299"
     inkscape:cy="47.153603"
     inkscape:cx="16.172142"
     inkscape:zoom="1.7198444"
     showgrid="false"
     id="namedview5221"
     inkscape:window-height="946"
     inkscape:window-width="1650"
     inkscape:pageshadow="2"
     inkscape:pageopacity="0"
     guidetolerance="10"
     gridtolerance="10"
     objecttolerance="10"
     borderopacity="1"
     inkscape:document-rotation="0"
     bordercolor="#666666"
     pagecolor="#ffffff" />
  <g
     transform="translate(-52.438718,-0.84639731)"
     id="g5227"
     inkscape:label="Image"
     inkscape:groupmode="layer">
    <g
       id="g5792">
      <g
         transform="translate(-0.16278006)"
         id="g5892">
        <path
           style="fill:#ee3263;fill-opacity:1;stroke-width:0.581448"
           d="m 53.028054,104.94169 c 0,-1.935 14.400791,-47.311094 16.00365,-50.426624 3.743837,-7.277017 16.427415,-8.155468 21.511519,-1.489864 0.822328,1.078127 3.184202,7.189866 5.53832,14.331315 4.353257,13.206029 11.602617,36.795043 11.602617,37.754243 0,1.06036 -7.67154,0.62698 -10.339951,-0.58413 -2.173476,-0.98647 -2.744429,-1.66931 -4.486478,-5.365624 -1.89733,-4.025793 -6.7788,-20.116733 -9.631365,-31.748158 -1.557977,-6.352701 -2.326116,-6.659757 -4.32861,-1.730315 -2.034609,5.008495 -4.462748,13.652544 -4.252008,15.136926 0.172474,1.214852 0.519588,1.327097 4.583805,1.482243 l 4.3972,0.167858 1.281279,5.355898 c 0.704703,2.945744 1.277066,5.552137 1.271917,5.791984 -0.0051,0.239847 -3.624373,0.436086 -8.042722,0.436086 h -8.033362 l -1.661835,3.47696 c -1.915233,4.007132 -3.76457,5.973102 -6.818943,7.248982 -2.682559,1.12057 -8.595033,1.23216 -8.595033,0.16222 z"
           id="path5886"
           inkscape:connector-curvature="0" />
        <path
           style="fill:#ee3263;fill-opacity:1;stroke-width:0.581448"
           d="m 147.44306,104.90928 c -1.86032,-0.84577 -4.05204,-3.37146 -5.61909,-6.47532 -1.72866,-3.423983 -5.16926,-14.093777 -7.77868,-24.122792 -1.45612,-5.596436 -2.89006,-10.633229 -3.18653,-11.192873 -1.33692,-2.523674 -1.84935,-1.349544 -8.08249,18.519435 -4.94907,15.775804 -6.70387,19.91316 -9.19966,21.69032 -1.37523,0.97925 -1.89429,1.11105 -2.09876,0.5329 -1.45264,-4.107532 -3.91872,-13.986488 -3.89297,-15.595031 0.0329,-2.056715 4.86577,-18.563212 8.2566,-28.200226 1.01269,-2.878167 2.50678,-6.114493 3.32019,-7.191835 4.40027,-5.828026 15.5183,-5.647961 20.44679,0.331152 1.66386,2.018558 5.17956,11.740901 10.26042,28.374258 2.24308,7.343254 3.43923,10.175339 4.29761,10.175339 0.67486,0 2.19859,-6.655044 5.86883,-25.63275 1.64419,-8.501576 3.1908,-15.783232 3.43692,-16.181458 0.35234,-0.570095 3.64853,-0.610099 15.50222,-0.188142 16.1107,0.573495 16.61392,0.670774 20.53427,3.969536 3.39713,2.858489 4.20754,5.381527 4.88953,15.222497 0.73688,10.63281 0.23091,13.984174 -2.80051,18.549822 -2.54529,3.833491 -5.20315,5.247317 -11.44317,6.087092 -4.38369,0.589953 -17.55251,0.488748 -18.18098,-0.139725 -0.15083,-0.150832 0.15312,-2.685295 0.67545,-5.63214 l 0.94969,-5.357899 h 6.78513 c 7.65619,0 10.27959,-0.64593 11.07032,-2.725722 0.29696,-0.781065 0.53993,-4.901146 0.53993,-9.155735 v -7.735618 l -2.18043,-0.360403 c -1.19924,-0.198221 -5.09197,-0.363282 -8.65053,-0.366802 -4.8799,-0.0048 -6.63817,0.196125 -7.15397,0.81762 -0.37613,0.453211 -1.95305,7.321565 -3.50425,15.263009 -4.47152,22.892031 -4.64229,23.352481 -9.61829,25.934201 -2.99184,1.55228 -10.76027,2.00721 -13.44359,0.78729 z"
           id="path5888"
           inkscape:connector-curvature="0" />
      </g>
    </g>
  </g>
</svg>
