<?xml version="1.0" encoding="UTF-8"?>
<svg width="300" height="300" version="1.1" viewBox="0 0 300 300" xmlns="http://www.w3.org/2000/svg">
 <g transform="translate(307.18 41.803)">
  <circle cx="-157.18" cy="108.2" r="150" fill="#12b6cf" style="paint-order:stroke markers fill"/>
  <path d="m-37.292 108.14-89.924-134.87c-0.0859 18.438-0.0288 32.49-2e-3 52.354l-112.55 0.07379v52.501l15.032 0.07587c-0.0248 19.968-0.0494 39.936-0.0741 59.904l-15.032 0.0759v52.498l112.55 0.0738c0.0249 17.293 0.0475 34.585 0.0727 51.878 0 0.22181 0.023 0.4033 0.0506 0.4033z" fill="#fff" stroke-width=".14665"/>
  <path d="m-82.78 126.56h9.7434v-29.125h7.3337v-8.2766h-24.411v8.2766h7.3337zm-18.898 0h9.7434v-37.402h-9.7434zm-21.747-18.963-8.8528 18.963h10.896l3.7192-11.262h0.10477l3.7192 11.262h10.896l-8.7481-18.963 8.1195-18.439h-10.896l-3.0906 10.843h-0.10477l-3.0906-10.843h-10.896zm-32.111 18.963h22.63v-7.9623h-12.886v-7.4385h11.629v-7.648h-11.629v-6.3908h12.415v-7.9623h-22.158zm-18.376-30.383h1.8858c2.9335 0 4.1383 1.2572 4.1383 4.3478 0 2.6716-1.3096 4.4526-4.0859 4.4526h-1.9382zm-9.7434 30.383h9.7434v-14.982h2.5668c2.3573 0 3.1954 1.1001 3.1954 5.3431v2.5144c0 1.5191 0 5.186 0.94291 7.1242h10.372v-0.52384c-0.6286-0.36668-0.83814-0.73337-1.1001-1.1524-0.47145-0.78575-0.47145-3.2478-0.47145-5.186v-3.1954c0-4.9764-1.4667-7.9623-6.1289-8.3814v-0.10477c4.4526-0.68099 6.3908-3.8764 6.3908-8.9052 0-5.7622-2.8287-9.9529-10.267-9.9529h-15.244zm-18.062-16.134h2.724c1.8334 0 3.4573 1.5715 3.4573 4.505 0 3.0906-1.6239 4.6098-3.4573 4.6098h-2.724zm0-14.248h2.3573c2.043 0 3.0906 1.781 3.0906 3.8764 0 2.043-1.0477 3.7716-3.0906 3.7716h-2.3573zm-9.7434 30.383h14.72c8.1195 0 11.262-4.5574 11.262-11.053 0-3.8764-2.043-8.1195-6.9146-8.5386v-0.10476c4.1383-0.83814 5.867-4.4002 5.867-8.3814 0-5.6574-3.2478-9.3243-10.215-9.3243h-14.72z"/>
  <path d="m-104.18 156.92v14.667h4.6098v-14.667l9.9005-22.735h-4.8193l-7.3861 17.496-7.1242-17.496h-5.0812zm-21.201-18.649h9.4291v-4.0859h-23.416v4.0859h9.3767v33.316h4.6098zm-37.03 33.316h4.6098v-16.658h6.2337c2.3573 0 5.1336 0.3143 5.5527 5.4479l0.3143 5.8146c0.15715 1.8334 0.41907 4.5574 1.2572 5.3955h5.5527c-1.1-0.68099-1.8334-1.7287-1.9906-5.867l-0.3143-6.3908c-0.20954-3.1954-1.9906-5.867-5.2908-6.2337v-0.10477c4.3478-0.99529 5.7622-5.4479 5.7622-9.4291 0-5.9194-3.6669-9.3767-9.5862-9.3767h-12.101zm4.6098-33.63h5.5003c4.3478 0 6.7575 2.2525 6.7575 5.9717 0 7.2813-4.9764 7.229-7.7004 7.229h-4.5574zm-34.464 33.63h4.8193l2.7763-10.267h11.943l2.6716 10.267h4.8193l-10.058-37.402h-6.1813zm8.5385-14.039 5.186-18.072h0.10477l4.7669 18.072zm-27.136 14.039h4.6098v-15.82h5.7098c6.3384 0 10.791-3.8764 10.791-10.843 0-10.739-8.3814-10.739-11.577-10.739h-9.5338zm4.6098-33.63h5.186c4.6098 0 6.4956 2.6192 6.4956 6.7575 0 4.9765-2.8287 7.2813-6.1813 7.2813h-5.5003z"/>
 </g>
</svg>
