<?xml version="1.0" encoding="UTF-8" standalone="no"?>
<svg
   xmlns:dc="http://purl.org/dc/elements/1.1/"
   xmlns:cc="http://creativecommons.org/ns#"
   xmlns:rdf="http://www.w3.org/1999/02/22-rdf-syntax-ns#"
   xmlns:svg="http://www.w3.org/2000/svg"
   xmlns="http://www.w3.org/2000/svg"
   xmlns:sodipodi="http://sodipodi.sourceforge.net/DTD/sodipodi-0.dtd"
   xmlns:inkscape="http://www.inkscape.org/namespaces/inkscape"
   inkscape:version="1.0beta2 (2b71d25, 2019-12-03)"
   sodipodi:docname="christian_peoples_alliance_logo.svg"
   id="svg2816"
   preserveAspectRatio="xMidYMid meet"
   viewBox="0 0 340 340"
   height="340pt"
   width="340pt"
   version="1.0">
  <metadata
     id="metadata2822">
    <rdf:RDF>
      <cc:Work
         rdf:about="">
        <dc:format>image/svg+xml</dc:format>
        <dc:type
           rdf:resource="http://purl.org/dc/dcmitype/StillImage" />
        <dc:title></dc:title>
      </cc:Work>
    </rdf:RDF>
  </metadata>
  <defs
     id="defs2820" />
  <sodipodi:namedview
     inkscape:current-layer="svg2816"
     inkscape:window-maximized="0"
     inkscape:window-y="99"
     inkscape:window-x="19"
     inkscape:cy="206.66667"
     inkscape:cx="91.740977"
     inkscape:zoom="0.75967742"
     showgrid="false"
     id="namedview2818"
     inkscape:window-height="1072"
     inkscape:window-width="2113"
     inkscape:pageshadow="2"
     inkscape:pageopacity="0"
     guidetolerance="10"
     gridtolerance="10"
     objecttolerance="10"
     borderopacity="1"
     inkscape:document-rotation="0"
     bordercolor="#666666"
     pagecolor="#ffffff" />
  <g
     style="fill:#813887;fill-opacity:1"
     id="g2814"
     stroke="none"
     fill="#000000"
     transform="matrix(0.1,0,0,-0.1,-3.8146972e-6,325)">
    <path
       style="fill:#813887;fill-opacity:1"
       inkscape:connector-curvature="0"
       id="path2794"
       d="M 0,1550 V 0 H 1700 3400 V 1550 3100 H 1700 0 Z m 499,1069 c 30,-11 31,-13 31,-72 0,-58 -1,-60 -19,-43 -30,27 -81,30 -118,7 -64,-40 -64,-152 0,-192 37,-23 88,-20 118,7 18,17 19,15 19,-44 v -60 l -36,-12 c -82,-28 -185,15 -226,93 -34,64 -32,166 4,228 49,83 139,118 227,88 z m 1226,-3 c 38,-16 41,-26 24,-74 -10,-30 -12,-31 -34,-16 -35,23 -89,15 -93,-13 -2,-16 3,-25 20,-32 119,-46 148,-73 148,-139 0,-112 -115,-173 -228,-122 -53,24 -60,41 -32,80 l 22,30 28,-20 c 33,-23 82,-26 100,-5 23,27 6,49 -63,82 -56,27 -71,40 -83,69 -47,113 70,210 191,160 z M 700,2540 v -80 h 70 70 v 80 80 h 50 50 v -205 -205 h -50 -50 v 80 80 h -70 -70 v -80 -80 h -50 -50 v 205 205 h 50 50 z m 512,70 c 54,-15 78,-51 78,-116 0,-42 -5,-59 -26,-83 -14,-17 -32,-31 -40,-31 -20,0 -18,-5 24,-68 72,-105 72,-102 5,-102 h -58 l -40,77 -40,76 -3,-77 -3,-76 h -49 -50 v 205 205 h 83 c 45,0 99,-5 119,-10 z m 248,-195 v -205 h -50 -50 v 205 205 h 50 50 z m 610,160 v -45 h -40 -40 v -160 -160 h -50 -50 v 160 160 h -40 -40 v 45 45 h 130 130 z m 130,-160 v -205 h -50 -50 v 205 205 h 50 50 z m 374,7 c 36,-108 66,-201 66,-205 0,-4 -23,-7 -52,-5 -50,3 -53,5 -62,36 l -9,33 -75,-3 -76,-3 -8,-32 c -8,-32 -10,-33 -64,-33 -50,0 -55,2 -49,18 4,9 34,96 66,192 32,96 61,181 64,188 3,8 26,12 69,12 h 64 z m 293,74 88,-125 3,125 3,124 h 49 50 v -205 -205 h -50 -49 l -88,124 -88,125 -3,-125 -3,-124 h -49 -50 v 205 205 h 50 49 z m -627,-891 v -335 h -30 -30 v 335 335 h 30 30 z m -1664,36 c 74,-34 112,-110 100,-204 -15,-134 -133,-212 -242,-161 -19,9 -41,26 -49,38 -14,18 -15,7 -15,-117 v -137 h -30 -30 v 295 295 h 30 c 26,0 30,-4 30,-27 v -26 l 23,21 c 47,45 116,53 183,23 z m 444,-4 c 52,-27 90,-90 90,-149 v -38 H 965 c -159,0 -161,-1 -131,-58 40,-78 134,-93 195,-32 27,27 28,28 52,10 l 24,-19 -42,-40 c -68,-64 -171,-69 -238,-10 -102,90 -80,286 38,340 56,25 105,24 157,-4 z m 438,8 c 131,-55 164,-237 61,-332 -125,-115 -318,-24 -319,150 0,136 136,232 258,182 z m 508,-4 c 74,-34 112,-110 100,-204 -15,-134 -133,-212 -242,-161 -19,9 -41,26 -49,38 -14,18 -15,7 -15,-117 v -137 h -30 -30 v 295 295 h 30 c 26,0 30,-4 30,-27 v -26 l 23,21 c 47,45 116,53 183,23 z m 644,-4 c 52,-27 90,-90 90,-149 v -38 h -145 c -159,0 -161,-1 -131,-58 40,-78 134,-93 195,-32 27,27 28,28 52,10 l 24,-19 -42,-40 c -68,-64 -171,-69 -238,-10 -102,90 -80,286 38,340 56,25 105,24 157,-4 z m 376,-8 c 30,-28 30,-45 3,-60 -17,-9 -23,-7 -36,10 -17,25 -74,29 -93,7 -27,-33 -8,-60 71,-99 81,-39 99,-62 99,-120 0,-85 -111,-135 -199,-89 -19,9 -40,27 -48,38 -12,19 -11,23 11,38 24,15 26,15 50,-9 47,-47 133,-22 124,37 -2,17 -19,31 -67,54 -101,48 -131,99 -100,168 26,57 135,72 185,25 z M 2769,749 c 30,-11 31,-13 31,-72 v -60 l -21,19 c -14,13 -36,19 -66,19 -38,0 -49,-5 -74,-33 -23,-25 -29,-42 -29,-77 0,-35 6,-52 29,-77 25,-28 36,-33 74,-33 30,0 52,6 66,19 l 21,19 v -60 c 0,-59 -1,-61 -31,-72 -86,-30 -191,9 -237,87 -22,39 -27,59 -27,117 0,58 5,78 27,117 46,78 151,117 237,87 z M 510,718 c 6,-18 38,-111 70,-205 l 59,-173 h -54 c -52,0 -54,1 -65,35 l -12,36 -76,-3 -76,-3 -10,-32 c -9,-32 -11,-33 -62,-33 -30,0 -54,3 -54,8 0,4 30,96 67,204 l 68,198 h 67 c 66,0 66,0 78,-32 z M 840,590 V 430 h 50 50 V 385 340 H 835 730 v 205 205 h 55 55 z m 300,0 V 430 h 50 50 v -45 -45 h -105 -105 v 205 205 h 55 55 z m 290,-45 V 340 h -50 -50 v 205 205 h 50 50 z m 370,173 c 6,-18 38,-111 70,-205 l 59,-173 h -54 c -52,0 -54,1 -65,35 l -12,36 -76,-3 -76,-3 -10,-32 c -9,-32 -11,-33 -62,-33 -30,0 -54,3 -54,8 0,4 30,96 67,204 l 68,198 h 67 c 66,0 66,0 78,-32 z m 397,-92 88,-125 3,125 3,124 h 49 50 V 545 340 h -50 -49 l -88,124 -88,125 -3,-125 -3,-124 h -49 -50 v 205 205 h 50 49 z m 943,79 v -45 h -60 -60 v -35 -35 h 60 60 v -45 -45 h -60 -60 v -35 -35 h 60 60 v -45 -45 h -110 -110 v 205 205 h 110 110 z" />
    <path
       style="fill:#813887;fill-opacity:1"
       inkscape:connector-curvature="0"
       id="path2796"
       d="m 1110,2474 v -56 l 27,7 c 39,10 53,24 53,54 0,35 -17,51 -52,51 -27,0 -28,-1 -28,-56 z" />
    <path
       style="fill:#813887;fill-opacity:1"
       inkscape:connector-curvature="0"
       id="path2798"
       d="m 2436,2509 c -3,-8 -14,-43 -24,-79 l -20,-65 45,-3 c 25,-2 47,-1 50,2 5,5 -33,145 -41,154 -3,3 -8,-1 -10,-9 z" />
    <path
       style="fill:#813887;fill-opacity:1"
       inkscape:connector-curvature="0"
       id="path2800"
       d="m 445,1591 c -81,-36 -101,-164 -35,-229 103,-103 254,23 196,163 -8,18 -26,41 -40,50 -30,20 -93,28 -121,16 z" />
    <path
       style="fill:#813887;fill-opacity:1"
       inkscape:connector-curvature="0"
       id="path2802"
       d="m 883,1586 c -26,-12 -63,-59 -63,-81 0,-3 52,-5 116,-5 115,0 115,0 109,23 -19,61 -97,92 -162,63 z" />
    <path
       style="fill:#813887;fill-opacity:1"
       inkscape:connector-curvature="0"
       id="path2804"
       d="m 1330,1582 c -48,-26 -72,-74 -67,-135 7,-83 87,-142 160,-118 114,38 130,197 26,253 -43,23 -75,23 -119,0 z" />
    <path
       style="fill:#813887;fill-opacity:1"
       inkscape:connector-curvature="0"
       id="path2806"
       d="m 1835,1591 c -81,-36 -101,-164 -35,-229 103,-103 254,23 196,163 -8,18 -26,41 -40,50 -30,20 -93,28 -121,16 z" />
    <path
       style="fill:#813887;fill-opacity:1"
       inkscape:connector-curvature="0"
       id="path2808"
       d="m 2473,1586 c -26,-12 -63,-59 -63,-81 0,-3 52,-5 116,-5 115,0 115,0 109,23 -19,61 -97,92 -162,63 z" />
    <path
       style="fill:#813887;fill-opacity:1"
       inkscape:connector-curvature="0"
       id="path2810"
       d="m 427,643 c -3,-5 -12,-34 -21,-65 -9,-32 -19,-64 -22,-73 -5,-12 3,-15 45,-15 30,0 51,4 51,11 0,14 -41,149 -45,149 -2,0 -6,-3 -8,-7 z" />
    <path
       style="fill:#813887;fill-opacity:1"
       inkscape:connector-curvature="0"
       id="path2812"
       d="m 1717,643 c -3,-5 -12,-34 -21,-65 -9,-32 -19,-64 -22,-73 -5,-12 3,-15 45,-15 30,0 51,4 51,11 0,14 -41,149 -45,149 -2,0 -6,-3 -8,-7 z" />
  </g>
</svg>
