<?xml version="1.0" encoding="UTF-8" standalone="no"?>
<svg
   xmlns:dc="http://purl.org/dc/elements/1.1/"
   xmlns:cc="http://creativecommons.org/ns#"
   xmlns:rdf="http://www.w3.org/1999/02/22-rdf-syntax-ns#"
   xmlns:svg="http://www.w3.org/2000/svg"
   xmlns="http://www.w3.org/2000/svg"
   xmlns:xlink="http://www.w3.org/1999/xlink"
   xmlns:sodipodi="http://sodipodi.sourceforge.net/DTD/sodipodi-0.dtd"
   xmlns:inkscape="http://www.inkscape.org/namespaces/inkscape"
   inkscape:version="1.0beta2 (2b71d25, 2019-12-03)"
   sodipodi:docname="conservative_logo.svg"
   id="svg547"
   version="1.1"
   height="74.400002"
   width="74.400002">
  <metadata
     id="metadata553">
    <rdf:RDF>
      <cc:Work
         rdf:about="">
        <dc:format>image/svg+xml</dc:format>
        <dc:type
           rdf:resource="http://purl.org/dc/dcmitype/StillImage" />
        <dc:title></dc:title>
      </cc:Work>
    </rdf:RDF>
  </metadata>
  <defs
     id="defs551" />
  <sodipodi:namedview
     inkscape:current-layer="svg547"
     inkscape:window-maximized="0"
     inkscape:window-y="31"
     inkscape:window-x="232"
     inkscape:cy="15.427929"
     inkscape:cx="2.8873995"
     inkscape:zoom="5.9434202"
     showgrid="false"
     id="namedview549"
     inkscape:window-height="1241"
     inkscape:window-width="1927"
     inkscape:pageshadow="2"
     inkscape:pageopacity="0"
     guidetolerance="10"
     gridtolerance="10"
     objecttolerance="10"
     borderopacity="1"
     inkscape:document-rotation="0"
     bordercolor="#666666"
     pagecolor="#ffffff" />
  <style
     id="style511"
     type="text/css">.st0{clip-path:url(#SVGID_2_);}
	.st1{fill:#00AEEF;}
	.st2{clip-path:url(#SVGID_4_);}</style>
  <g
     transform="translate(-8.9,-13.297062)"
     id="g516">
    <title
       id="title513">background</title>
    <rect
       x="-1"
       y="-1"
       width="92"
       height="84"
       id="canvas_background"
       fill="none" />
  </g>
  <g
     transform="translate(-8.8999992,-4.34853)"
     id="g545">
    <title
       id="title518">Layer 1</title>
    <g
       id="svg_1">
      <defs
         id="defs521">
        <rect
           id="SVGID_1_"
           x="93.699997"
           y="3.8"
           width="426.20001"
           height="82" />
      </defs>
      <clipPath
         id="SVGID_2_">
        <use
           height="100%"
           width="100%"
           y="0"
           x="0"
           xlink:href="#SVGID_1_"
           id="svg_2" />
      </clipPath>
    </g>
    <g
       id="svg_17">
      <defs
         id="defs527">
        <rect
           id="SVGID_3_"
           x="93.699997"
           y="3.8"
           width="426.20001"
           height="82" />
      </defs>
      <clipPath
         id="SVGID_4_">
        <use
           height="100%"
           width="100%"
           y="0"
           x="0"
           xlink:href="#SVGID_3_"
           id="svg_18" />
      </clipPath>
      <g
         clip-path="url(#SVGID_4_)"
         class="st2"
         id="svg_19">
        <path
           inkscape:connector-curvature="0"
           d="m 382.8,256.8 h 2.1 v 14.8 h 7.1 v 1.8 h -9.2 z"
           id="svg_20" />
        <path
           inkscape:connector-curvature="0"
           d="m 404.7,267.3 c 0,4.4 -3,6.3 -5.9,6.3 -3.2,0 -5.7,-2.4 -5.7,-6.1 0,-4 2.6,-6.3 5.9,-6.3 3.4,0 5.7,2.5 5.7,6.1 z m -9.4,0.1 c 0,2.6 1.5,4.6 3.6,4.6 2.1,0 3.6,-1.9 3.6,-4.6 0,-2 -1,-4.6 -3.6,-4.6 -2.5,0 -3.6,2.4 -3.6,4.6 z"
           id="svg_21" />
        <path
           inkscape:connector-curvature="0"
           d="m 407.4,265.2 c 0,-1.4 0,-2.6 -0.1,-3.7 h 1.9 l 0.1,2.3 h 0.1 c 0.5,-1.6 1.8,-2.6 3.3,-2.6 0.2,0 0.4,0 0.6,0.1 v 2 c -0.2,0 -0.4,-0.1 -0.7,-0.1 -1.5,0 -2.6,1.2 -2.9,2.8 0,0.3 -0.1,0.6 -0.1,1 v 6.4 h -2.1 z"
           id="svg_22" />
        <path
           inkscape:connector-curvature="0"
           d="m 416.4,267.8 c 0,2.9 1.9,4.1 4.1,4.1 1.5,0 2.5,-0.3 3.3,-0.6 l 0.4,1.5 c -0.8,0.3 -2.1,0.7 -4,0.7 -3.7,0 -5.9,-2.4 -5.9,-6 0,-3.6 2.1,-6.4 5.6,-6.4 3.9,0 4.9,3.4 4.9,5.6 0,0.4 0,0.8 -0.1,1 z m 6.4,-1.5 c 0,-1.4 -0.6,-3.5 -3,-3.5 -2.2,0 -3.1,2 -3.3,3.5 z"
           id="svg_23" />
        <path
           inkscape:connector-curvature="0"
           d="m 427.6,264.7 c 0,-1.2 0,-2.2 -0.1,-3.2 h 1.9 l 0.1,1.9 h 0.1 c 0.7,-1.1 1.8,-2.2 3.7,-2.2 1.6,0 2.9,1 3.4,2.4 v 0 c 0.4,-0.7 0.8,-1.2 1.3,-1.5 0.7,-0.5 1.5,-0.8 2.6,-0.8 1.6,0 3.9,1 3.9,5.2 v 7 h -2.1 v -6.7 c 0,-2.3 -0.8,-3.7 -2.6,-3.7 -1.2,0 -2.2,0.9 -2.6,2 -0.1,0.3 -0.2,0.7 -0.2,1.1 v 7.4 h -2 v -7.1 c 0,-1.9 -0.8,-3.3 -2.5,-3.3 -1.4,0 -2.3,1.1 -2.7,2.2 -0.1,0.3 -0.2,0.7 -0.2,1.1 v 7.2 h -2.1 z"
           id="svg_24" />
        <path
           inkscape:connector-curvature="0"
           d="m 455.7,258.1 c 0,0.7 -0.5,1.3 -1.4,1.3 -0.8,0 -1.3,-0.6 -1.3,-1.3 0,-0.8 0.6,-1.4 1.4,-1.4 0.8,0.1 1.3,0.6 1.3,1.4 z m -2.4,15.3 v -11.9 h 2.2 v 11.9 z"
           id="svg_25" />
        <path
           inkscape:connector-curvature="0"
           d="m 459,265.4 c 0,-1.5 0,-2.8 -0.1,-3.9 h 1.9 l 0.1,2 v 0 c 0.9,-1.5 2.3,-2.3 4.2,-2.3 2.9,0 5,2.4 5,6 0,4.3 -2.6,6.4 -5.4,6.4 -1.6,0 -3,-0.7 -3.7,-1.9 v 0 6.5 h -2 z m 2.2,3.1 c 0,0.3 0,0.6 0.1,0.9 0.4,1.5 1.7,2.5 3.2,2.5 2.3,0 3.6,-1.9 3.6,-4.6 0,-2.4 -1.2,-4.4 -3.5,-4.4 -1.5,0 -2.9,1.1 -3.3,2.7 -0.1,0.3 -0.1,0.6 -0.1,0.9 z"
           id="svg_26" />
        <path
           inkscape:connector-curvature="0"
           d="m 472.7,271.1 c 0.6,0.4 1.8,0.9 2.9,0.9 1.6,0 2.3,-0.8 2.3,-1.8 0,-1 -0.6,-1.6 -2.2,-2.2 -2.1,-0.8 -3.1,-1.9 -3.1,-3.4 0,-1.9 1.5,-3.5 4.1,-3.5 1.2,0 2.3,0.3 2.9,0.7 l -0.5,1.6 c -0.5,-0.3 -1.3,-0.7 -2.4,-0.7 -1.3,0 -2,0.7 -2,1.6 0,1 0.7,1.4 2.3,2 2.1,0.8 3.1,1.8 3.1,3.6 0,2.1 -1.6,3.6 -4.5,3.6 -1.3,0 -2.5,-0.3 -3.4,-0.8 z"
           id="svg_27" />
        <path
           inkscape:connector-curvature="0"
           d="m 492.7,270.1 c 0,1.2 0,2.3 0.1,3.2 h -1.9 l -0.1,-1.9 v 0 c -0.6,1 -1.8,2.2 -3.9,2.2 -1.9,0 -4.1,-1 -4.1,-5.2 v -7 h 2.2 v 6.6 c 0,2.3 0.7,3.8 2.7,3.8 1.5,0 2.5,-1 2.9,-2 0.1,-0.3 0.2,-0.7 0.2,-1.1 v -7.3 h 2.2 z"
           id="svg_28" />
        <path
           inkscape:connector-curvature="0"
           d="m 496.3,264.7 c 0,-1.2 0,-2.2 -0.1,-3.2 h 1.9 l 0.1,1.9 h 0.1 c 0.7,-1.1 1.8,-2.2 3.7,-2.2 1.6,0 2.8,1 3.4,2.4 v 0 c 0.4,-0.7 0.8,-1.2 1.3,-1.5 0.7,-0.5 1.5,-0.8 2.6,-0.8 1.6,0 3.9,1 3.9,5.2 v 7 h -2.1 v -6.7 c 0,-2.3 -0.8,-3.7 -2.6,-3.7 -1.2,0 -2.2,0.9 -2.6,2 -0.1,0.3 -0.2,0.7 -0.2,1.1 v 7.4 h -2.1 v -7.1 c 0,-1.9 -0.8,-3.3 -2.5,-3.3 -1.3,0 -2.3,1.1 -2.7,2.2 -0.1,0.3 -0.2,0.7 -0.2,1.1 v 7.2 h -2.1 z"
           id="svg_29" />
      </g>
    </g>
    <path
       inkscape:connector-curvature="0"
       class="st1"
       d="m 78.3,46.7 c -1.2,1.5 -2.5,2.9 -4,4.2 -1.5,1.2 -3.6,2.6 -4.8,3.4 l -0.3,-0.2 c 1.8,-2.2 6.5,-8 6.8,-9.2 0.4,-1.6 -5,-4.5 -5,-4.5 0,0 -9.1,5.8 -12.3,7.4 l -0.2,-0.5 c 1.9,-1.7 6.9,-5.6 7.8,-6.5 1.4,-1.3 6.5,-5.7 6.5,-5.7 l -6.2,-4.7 1.2,-1.6 -5.3,-6.2 -1.5,-2 -0.8,0.8 -11,6.8 -0.2,-0.2 3.8,-3.8 -2.2,-4.6 -9.7,4.6 -0.2,-0.4 c 1.7,-1.6 3.5,-2.9 5.6,-4 -0.8,-2.1 -1.6,-4.3 -2.1,-6.5 0,0 -4.1,-0.2 -10.1,2.7 -6.5,3.1 -12.4,7.3 -17.5,12.3 l -0.3,-0.1 c 1.1,-2.4 2.7,-4.6 4.7,-6.3 2.7,-2.5 5.6,-4.7 8.7,-6.6 l 0.2,-1.6 c -4.1,1.7 -7.9,4.1 -11.2,7.1 -3.4,3.3 -7.6,8.9 -8.4,15.3 0.4,0.3 0.8,0.6 1.2,0.8 6.3,-6 13.3,-11 21,-15 2.6,-1.5 5.3,-2.8 8.1,-3.8 l 0.2,0.5 c -9.2,7.1 -8.9,6.9 -23,17.5 l -8.9,4.5 4.7,6.8 c 0,0 7,-7.4 14.6,-11 l 0.3,0.4 c -6.3,5.4 -6.8,5.7 -10.5,8.9 -2.9,2.7 -5.5,5.7 -7.7,9 l 5.9,5.8 6.2,-4 0.3,0.2 3.7,3.7 h 0.1 c 2.6,-0.3 5.2,-0.8 7.7,-1.5 2.3,-0.7 4.6,-1.6 6.7,-2.8 0.6,0.4 1.2,0.9 1.7,1.5 l 2.7,3.6 c 2.9,-0.4 5.7,-1.2 8.4,-2.5 4.2,-2 5.2,-2.6 5.2,-2.6 L 62.2,54 c -0.7,0.9 -1.2,1.9 -1.6,3 -0.3,1.3 -0.6,2.6 -0.7,3.9 l 2.4,2.1 c 2.4,-0.8 4.7,-1.8 6.9,-3.2 2.7,-1.7 5.4,-3.5 7.9,-5.5 l 0.1,0.2 c -1.3,1.4 -2.3,2.9 -3.2,4.5 1.4,1.4 2.6,2.5 2.6,2.5 L 83.3,50.4 Z M 27.6,42.8 c 2.6,-3.3 9.6,-6.9 11.1,-7.7 l 0.3,0.5 c -2.6,2.7 -7.4,5.7 -11.1,7.7 z m 5.4,4 -0.4,-0.4 C 36.5,41.4 47,35.9 49.4,34.7 l 0.3,0.5 c -3.8,4 -11.1,8.6 -16.7,11.6 z m 15.8,11.1 -0.3,-0.5 c 2.9,-3 10.2,-6 11.8,-6.6 l 0.3,0.5 c -2.8,2.4 -7.9,5 -11.8,6.6 z"
       id="svg_30" />
    <path
       inkscape:connector-curvature="0"
       class="st1"
       d="m 15.7,68.9 c 0.8,0.3 3.9,0.5 6.3,0.4 3.3,-0.3 6.6,-0.3 9.9,0 0.3,0 1.1,0 1.1,0.2 2.3,0.1 4.7,-0.4 6.8,-1.4 1,0.8 1.9,1.8 5.8,1.3 1.8,0.3 3.7,0.3 5.5,0 1,-0.2 2.7,0.4 6.2,0.2 0.6,0 0.6,0.1 2,0.2 1,-0.1 2,-0.2 2.9,-0.3 1.2,0.3 2.5,0.4 3.7,0.1 l 7.2,-1 v -0.4 c -1.1,0 -4.6,0.1 -7.9,0.1 -0.9,0 -2.4,-0.1 -2.7,-0.2 -0.3,-0.1 -0.1,-0.5 -0.1,-0.5 -0.7,-0.1 -1,-0.2 -1.5,-0.2 -3.3,0.2 -6.6,0.1 -9.9,-0.5 0,0 -5.7,0.3 -8.6,-0.4 -0.3,-0.1 0.3,-2.8 1.2,-4.6 0,0 0.2,-0.4 -0.4,-1 -0.5,-1 -1.2,-1.9 -2,-2.6 -0.7,-0.6 -0.8,-0.4 -0.8,-0.4 -0.4,0.5 -0.1,0.5 -0.4,1 -0.5,1.8 -2.1,3.3 -1.8,6.9 -2.1,0.8 -4.3,1.2 -6.5,1.2 -2.1,0.1 -4.2,-0.1 -6,-0.1 -1.8,0 -3.7,0.1 -5.5,0.3 L 20,67.9 c -0.6,0 -3.5,0.1 -3.9,0.1 -0.6,0 -0.6,-0.2 -0.6,-0.2 0,0.4 0.1,0.8 0.2,1.1 z"
       id="svg_31" />
  </g>
</svg>
