<?xml version="1.0" encoding="UTF-8" standalone="no"?>
<svg
   xmlns:dc="http://purl.org/dc/elements/1.1/"
   xmlns:cc="http://creativecommons.org/ns#"
   xmlns:rdf="http://www.w3.org/1999/02/22-rdf-syntax-ns#"
   xmlns:svg="http://www.w3.org/2000/svg"
   xmlns="http://www.w3.org/2000/svg"
   xmlns:sodipodi="http://sodipodi.sourceforge.net/DTD/sodipodi-0.dtd"
   xmlns:inkscape="http://www.inkscape.org/namespaces/inkscape"
   inkscape:version="1.0beta2 (2b71d25, 2019-12-03)"
   sodipodi:docname="democratic_unionist_party_logo.svg"
   version="1.1"
   height="65.632233"
   width="65.632233"
   id="Layer_1">
  <metadata
     id="metadata5004">
    <rdf:RDF>
      <cc:Work
         rdf:about="">
        <dc:format>image/svg+xml</dc:format>
        <dc:type
           rdf:resource="http://purl.org/dc/dcmitype/StillImage" />
        <dc:title></dc:title>
      </cc:Work>
    </rdf:RDF>
  </metadata>
  <defs
     id="defs5002" />
  <sodipodi:namedview
     inkscape:current-layer="Layer_1"
     inkscape:window-maximized="0"
     inkscape:window-y="131"
     inkscape:window-x="219"
     inkscape:cy="51.563502"
     inkscape:cx="72.878658"
     inkscape:zoom="5.0051821"
     showgrid="false"
     id="namedview5000"
     inkscape:window-height="852"
     inkscape:window-width="1361"
     inkscape:pageshadow="2"
     inkscape:pageopacity="0"
     guidetolerance="10"
     gridtolerance="10"
     objecttolerance="10"
     borderopacity="1"
     inkscape:document-rotation="0"
     bordercolor="#666666"
     pagecolor="#ffffff" />
  <g
     transform="matrix(0.97156,0,0,0.97156,-0.04522363,3.5236632)"
     id="g3864">
    <g
       id="g3862">
      <path
         inkscape:connector-curvature="0"
         class="st0"
         d="m 23.6,6.9 c 0.5,1.7 -0.2,3.5 -1.3,4.7 -2.2,2.3 -5.8,1.6 -7.5,4.6 -0.9,2.7 -3.5,5.5 -6.5,5.6 -1.7,0.4 -3.8,0 -5.3,1 C 2,24.3 2.6,26.4 2.9,28 1.3,27.6 0.5,25.9 0.1,24.5 0,23.1 -0.1,21.3 1.2,20.6 c 2.8,0 5.3,-1 7.8,-1.8 2.9,-1.2 2.9,-5 5.8,-6.4 2.3,-0.7 5,-0.9 6.6,-3 C 21.7,8.9 21.7,8 21.6,7.5 21.4,7 20.9,6.5 20.4,6.3 19.9,6.2 19.1,6 18.8,6.5 18.7,6.5 18.6,6.6 18.6,6.4 19,5.3 20.1,4.9 21.1,4.9 c 0.9,0.3 2.2,0.8 2.5,2"
         fill="#18283d"
         id="path3832" />
      <path
         inkscape:connector-curvature="0"
         class="st0"
         d="m 50.8,17 c 0.2,-0.1 0.4,-0.3 0.7,-0.3 0.1,1 -1.1,1.4 -1.8,1.8 -3.6,1 -6.8,-0.5 -9.5,-2.5 -3.4,-1.8 -8,-2.8 -11.3,-0.1 -0.3,-0.2 -0.1,-0.7 0,-1 2.1,-2.6 5.2,-4 8.6,-3.4 3.7,0.9 6.5,4 10,5.4 1,0.4 2.2,0.2 3.3,0.1"
         fill="#18283d"
         id="path3834" />
      <path
         inkscape:connector-curvature="0"
         class="st0"
         d="m 55.6,18.9 c 2.3,3.9 6.9,4.5 10.1,7.4 1.2,1.5 1.9,3.2 1.9,5.2 0,0.1 -0.1,0.1 -0.2,0.1 -2.3,-4.9 -8.3,-3.9 -11,-8.2 -1.2,-1.8 -1.9,-3.9 -2,-6.1 l 0.1,-0.2 c 0.7,0.4 0.7,1.2 1.1,1.8"
         fill="#18283d"
         id="path3836" />
      <path
         inkscape:connector-curvature="0"
         class="st0"
         d="m 22.6,19.2 c -0.1,0.4 -0.5,0.5 -0.7,0.8 -1.1,0.9 -2.3,1.6 -3.2,2.7 -0.6,0.1 -1.1,-0.1 -1.5,-0.5 -0.5,-0.4 -0.4,-1.2 -0.5,-1.8 0.9,-0.3 1.9,-0.6 2.8,-0.7 0.9,-0.4 2,-0.2 2.7,-0.7 0.1,0.1 0.4,-0.1 0.4,0.2"
         fill="#18283d"
         id="path3838" />
      <path
         inkscape:connector-curvature="0"
         class="st0"
         d="m 44.5,27.2 c 2.4,1.3 5.7,2.2 8.2,0.6 0.3,0.6 -0.7,0.9 -0.9,1.4 -2,1.4 -4.7,1.8 -7.1,1 -3.9,-1.2 -6.9,-4.7 -11.1,-5.5 -0.7,0 -1.3,0.6 -1.9,0.2 1.2,-1.5 3.3,-2.1 5.3,-1.6 2.7,0.9 5,2.7 7.5,3.9"
         fill="#18283d"
         id="path3840" />
      <path
         inkscape:connector-curvature="0"
         class="st0"
         d="m 9.1,26.1 v 0.5 C 7.8,27.7 6.5,29 4.8,28.7 5,28.4 5.4,28.2 5.8,28 c 0.8,-0.8 1,-1.8 1,-2.8 0.8,0.2 1.5,0.6 2.3,0.9"
         fill="#18283d"
         id="path3842" />
      <path
         inkscape:connector-curvature="0"
         class="st0"
         d="m 30,26.2 c 0.1,4.5 -5.3,4.6 -7,7.9 -0.2,0 -0.3,-0.1 -0.4,-0.1 -0.4,-1.2 0,-2.2 0.5,-3.3 1.7,-2.6 5.4,-2.3 6.4,-5.4 0.5,0 0.4,0.6 0.5,0.9"
         fill="#18283d"
         id="path3844" />
      <path
         inkscape:connector-curvature="0"
         class="st0"
         d="m 3.6,29.6 c -0.1,3.1 0.5,5.9 2.8,7.9 3.6,-2.5 7.7,-3.9 12.2,-4.1 0.3,0.1 0.8,0.2 0.5,0.7 -1.5,1.7 -1.7,4.1 -2.6,6.1 -1.2,0 -1.9,-1 -2.9,-1.2 -2,-1 -4.7,-0.5 -6.3,0.7 -1.2,1.3 -1.5,3.2 -1.3,4.8 0.5,1.1 1.4,2 2.4,2.4 L 8,47.2 C 6.4,47 5,46.3 4.1,44.9 3.3,43.1 3.2,40.6 4.3,38.9 1.9,36.6 1.9,32.5 3.1,29.7 3.2,29.5 3.5,29.2 3.6,29.6"
         fill="#18283d"
         id="path3846" />
      <path
         inkscape:connector-curvature="0"
         class="st0"
         d="m 18.2,49.5 c -0.6,4 -1,8.4 -4.8,10.7 -0.3,0.2 -0.6,0 -0.8,-0.1 0.4,-0.6 1.1,-0.9 1.4,-1.7 1.4,-3.9 -0.4,-8.9 2.2,-12.4 -1.7,0 -3.3,0.6 -4.8,1.5 -0.7,0.6 -1.2,1.5 -1.3,2.4 V 50 C 9.6,49.5 9.8,48.7 9.7,48 c 0.4,-2.4 2.5,-4.3 4.8,-4.9 1.9,-0.6 4.4,-0.2 6,-1.9 1,-1.2 1.7,-2.6 2,-4.1 1.2,4.9 -3.4,8 -4.3,12.4"
         fill="#18283d"
         id="path3848" />
      <path
         inkscape:connector-curvature="0"
         class="st1"
         d="m 31.8,2.1 c 5.7,-1.1 11.6,0.1 15.6,4 3.5,3.3 6,9.7 11.8,8.7 0.3,0.1 1,0.1 1.4,0 0.1,0.6 -0.6,0.6 -0.9,0.9 -0.8,0.3 -1.6,0.5 -2.5,0.7 -6.3,0.1 -9.7,-7.1 -14.9,-9.6 -3.4,-2 -7.8,-2.3 -11.7,-2 -1.5,0.3 -2.8,0.7 -4,1.6 -0.1,0 -0.2,0 -0.3,-0.1 0.3,-0.9 1,-1.9 1.9,-2.4 C 26.2,2.3 23,2 20.6,3.1 c -0.5,0.2 -0.9,0.6 -1.4,0.8 0.1,-1.2 1.2,-1.7 2,-2.5 1.6,-1.1 3.6,-1.6 5.6,-1.3 1.8,0.3 3.5,0.9 5,2"
         fill="#c8292b"
         id="path3850" />
      <path
         inkscape:connector-curvature="0"
         class="st1"
         d="m 39.1,18.7 c 3.2,1.4 6,3.5 9.5,4.1 1.3,0.2 2.3,-0.1 3.4,-0.7 0.4,0.3 -0.1,0.7 -0.2,1 -1.6,1.6 -4.5,2.4 -6.7,1.5 -4.7,-1.5 -8.7,-5.5 -14,-4.5 -0.1,0.2 -0.3,0.2 -0.4,0.3 -0.6,-1.2 0.9,-1.3 1.4,-2 2.2,-1.1 4.9,-0.9 7,0.3"
         fill="#c8292b"
         id="path3852" />
      <path
         inkscape:connector-curvature="0"
         class="st1"
         d="m 33.5,30.2 c 0.6,2.2 0.8,4.9 0.1,7.2 -2.1,5.5 -5.9,10.6 -6.1,16.9 l 0.2,1.8 c 0.1,0.2 0.3,0.4 0.2,0.6 -0.1,0.2 -0.4,0.2 -0.5,0.1 -1.9,-2.9 -1.5,-6.6 -1.2,-10.1 0.5,-3.2 2.6,-5.8 4.1,-8.6 1.4,-2.8 2.6,-6 1.9,-9.2 0,-0.3 0.5,-0.2 0.7,-0.1"
         fill="#c8292b"
         id="path3854" />
    </g>
  </g>
</svg>
