<?xml version="1.0" encoding="UTF-8" standalone="no"?>
<svg
   xmlns:dc="http://purl.org/dc/elements/1.1/"
   xmlns:cc="http://creativecommons.org/ns#"
   xmlns:rdf="http://www.w3.org/1999/02/22-rdf-syntax-ns#"
   xmlns:svg="http://www.w3.org/2000/svg"
   xmlns="http://www.w3.org/2000/svg"
   xmlns:sodipodi="http://sodipodi.sourceforge.net/DTD/sodipodi-0.dtd"
   xmlns:inkscape="http://www.inkscape.org/namespaces/inkscape"
   inkscape:version="1.0beta2 (2b71d25, 2019-12-03)"
   sodipodi:docname="liberal_party_logo.svg"
   id="svg4585"
   preserveAspectRatio="xMidYMid meet"
   viewBox="0 0 300 300"
   height="300pt"
   width="300pt"
   version="1.0">
  <metadata
     id="metadata4591">
    <rdf:RDF>
      <cc:Work
         rdf:about="">
        <dc:format>image/svg+xml</dc:format>
        <dc:type
           rdf:resource="http://purl.org/dc/dcmitype/StillImage" />
        <dc:title></dc:title>
      </cc:Work>
    </rdf:RDF>
  </metadata>
  <defs
     id="defs4589" />
  <sodipodi:namedview
     inkscape:current-layer="svg4585"
     inkscape:window-maximized="0"
     inkscape:window-y="23"
     inkscape:window-x="0"
     inkscape:cy="178.08242"
     inkscape:cx="69.426759"
     inkscape:zoom="1.4468942"
     showgrid="false"
     id="namedview4587"
     inkscape:window-height="968"
     inkscape:window-width="1867"
     inkscape:pageshadow="2"
     inkscape:pageopacity="0"
     guidetolerance="10"
     gridtolerance="10"
     objecttolerance="10"
     borderopacity="1"
     inkscape:document-rotation="0"
     bordercolor="#666666"
     pagecolor="#ffffff" />
  <g
     transform="translate(0.2500049,0.61000195)"
     id="g5176">
    <path
       sodipodi:type="star"
       style="fill:#ffac00;fill-opacity:1;stroke-width:0.75"
       id="path5160"
       sodipodi:sides="4"
       sodipodi:cx="143.99545"
       sodipodi:cy="147.5"
       sodipodi:r1="143.99545"
       sodipodi:r2="101.82014"
       sodipodi:arg1="1.5707963"
       sodipodi:arg2="2.3561945"
       inkscape:flatsided="true"
       inkscape:rounded="0"
       inkscape:randomized="0"
       d="M 143.99546,291.49545 0,147.5 143.99545,3.5045471 287.99091,147.5 Z"
       transform="matrix(1.0399634,0,0,1.0298621,-5.6670207e-6,-1.6046531)" />
    <g
       transform="matrix(0.1,0,0,-0.1,0,300)"
       fill="#000000"
       stroke="none"
       id="g4583">
      <path
         d="m 1470,2997 c -980,2 -490,1 0,0 z"
         id="path4557"
         inkscape:connector-curvature="0"
         sodipodi:nodetypes="cc" />
      <path
         inkscape:connector-curvature="0"
         d="m 1031,2086 c -7,-8 -11,-37 -9,-68 3,-47 6,-53 27,-56 28,-4 41,12 41,51 0,18 5,27 15,27 13,0 15,-15 13,-92 l -3,-93 -28,-3 c -23,-3 -28,-8 -25,-25 3,-21 8,-22 103,-22 93,0 100,1 100,20 0,14 -8,21 -30,25 l -30,5 v 90 c 0,73 3,90 15,90 10,0 17,-13 20,-35 4,-29 9,-35 30,-35 22,0 25,5 28,43 3,34 7,42 18,38 9,-3 24,-6 35,-6 17,0 19,-8 19,-94 v -95 l -27,-3 c -20,-2 -28,-9 -28,-23 0,-18 7,-20 85,-20 81,0 85,1 88,23 2,15 -2,22 -12,22 -12,0 -16,10 -16,41 v 40 l 38,-3 c 33,-3 37,-6 40,-33 3,-19 -2,-33 -13,-41 -9,-7 -15,-21 -13,-31 3,-15 15,-18 82,-21 46,-2 83,2 91,8 9,8 15,8 20,0 4,-6 60,-10 150,-10 159,0 155,-2 155,70 0,35 -19,70 -39,70 -16,0 -31,-25 -31,-51 0,-22 -6,-29 -29,-34 -42,-9 -71,9 -71,45 0,36 27,42 32,8 2,-15 10,-23 23,-23 18,0 20,7 20,70 0,63 -2,70 -20,70 -13,0 -21,-8 -23,-22 -5,-34 -34,-30 -30,5 3,23 8,28 38,30 38,4 60,-16 60,-56 0,-20 4,-23 28,-20 26,3 27,6 30,62 2,41 -1,62 -10,67 -19,13 -256,11 -280,-2 -14,-8 -23,-8 -31,0 -14,14 -122,14 -148,1 -23,-13 -25,-38 -4,-46 8,-4 15,-17 15,-30 0,-21 -4,-24 -40,-24 -36,0 -40,3 -40,24 0,13 7,26 15,30 21,8 19,33 -4,46 -29,15 -137,13 -153,-3 -11,-12 -16,-12 -26,0 -19,19 -245,19 -261,-1 z m 706,-46 c 23,0 24,-1 21,-92 l -3,-92 -31,-7 c -17,-3 -45,-4 -63,-1 l -31,4 v 94 c 0,93 0,94 24,94 14,0 28,5 32,11 4,8 9,8 17,0 6,-6 22,-11 34,-11 z"
         id="path4561" />
      <path
         inkscape:connector-curvature="0"
         d="m 2118,1693 c -11,-3 -29,-42 -56,-121 -35,-105 -41,-117 -66,-123 -16,-5 -42,-5 -57,-2 -24,4 -29,11 -29,34 0,16 -8,37 -19,48 -18,18 -18,19 0,35 26,22 25,77 -2,102 -18,16 -37,19 -143,19 -118,0 -121,-1 -124,-23 -3,-18 2,-23 27,-28 l 31,-6 v -89 -88 l -27,-3 c -20,-2 -29,-9 -31,-25 -4,-28 20,-35 113,-31 67,3 70,4 70,28 0,18 -6,26 -22,28 -18,3 -23,10 -23,33 0,25 4,29 29,29 31,0 41,-18 41,-72 0,-17 8,-31 19,-38 25,-13 77,-13 101,0 13,7 21,7 25,0 10,-17 150,-12 165,5 15,18 6,45 -15,45 -10,0 -15,7 -13,18 2,12 15,18 46,20 36,3 42,0 42,-16 0,-11 -9,-22 -20,-25 -25,-6 -26,-33 -2,-46 10,-5 113,-10 229,-10 170,-1 213,2 222,13 18,22 10,117 -11,130 -23,14 -38,-1 -47,-46 -6,-31 -10,-33 -46,-33 h -40 l -3,88 c -3,86 -3,87 21,87 34,0 54,25 37,45 -10,13 -32,15 -104,13 -86,-3 -91,-4 -94,-26 -3,-18 2,-23 27,-28 l 31,-6 v -88 -88 l -27,-3 c -75,-10 -79,-7 -119,114 -20,62 -43,118 -52,125 -15,12 -50,14 -84,5 z m -294,-79 c 9,-22 -11,-44 -40,-44 -20,0 -24,5 -24,30 0,26 3,30 29,30 17,0 31,-6 35,-16 z m 350,-51 c 6,-19 3,-23 -13,-23 -22,0 -25,10 -14,49 6,25 14,18 27,-26 z"
         id="path4563" />
      <path
         inkscape:connector-curvature="0"
         d="m 401,1676 c -15,-17 10,-46 40,-46 17,0 19,-8 19,-90 0,-87 -1,-90 -23,-90 -32,0 -49,-18 -36,-42 9,-16 24,-18 142,-18 90,0 137,4 145,12 18,18 15,113 -4,129 -23,19 -48,-1 -54,-42 -5,-32 -7,-34 -45,-34 h -40 l -3,88 c -3,86 -3,87 21,87 34,0 54,25 37,45 -17,21 -182,22 -199,1 z"
         id="path4565" />
      <path
         inkscape:connector-curvature="0"
         d="m 727,1683 c -18,-17 -6,-44 23,-49 l 30,-6 v -89 -88 l -27,-3 c -22,-2 -28,-8 -28,-28 0,-24 2,-25 80,-28 104,-4 127,2 123,31 -2,15 -12,23 -32,27 -17,3 -29,8 -28,13 1,4 2,43 2,87 0,72 2,80 19,80 24,0 45,25 37,45 -4,12 -25,15 -99,15 -52,0 -97,-3 -100,-7 z"
         id="path4567" />
      <path
         inkscape:connector-curvature="0"
         d="m 957,1684 c -16,-16 -6,-44 18,-50 24,-6 25,-9 25,-94 0,-84 -1,-89 -22,-92 -15,-2 -24,-11 -26,-25 -4,-30 25,-36 141,-31 101,5 130,16 148,60 13,33 -2,82 -29,93 -15,6 -15,8 3,21 24,18 26,78 2,102 -14,14 -40,18 -135,20 -64,2 -120,0 -125,-4 z m 188,-79 c 0,-14 -8,-21 -27,-23 -24,-3 -28,0 -28,23 0,23 4,26 28,23 19,-2 27,-9 27,-23 z m 3,-94 c 8,-4 12,-19 10,-32 -2,-19 -10,-25 -35,-27 -32,-3 -33,-2 -33,32 0,31 3,36 23,36 12,0 28,-4 35,-9 z"
         id="path4569" />
      <path
         inkscape:connector-curvature="0"
         d="m 1277,1683 c -18,-17 -6,-44 23,-49 l 30,-6 v -89 -88 l -27,-3 c -31,-3 -44,-35 -21,-49 17,-11 269,-11 286,0 9,5 12,26 10,67 -3,53 -5,59 -26,62 -22,3 -25,-1 -36,-51 -6,-26 -10,-28 -49,-25 -41,3 -42,4 -45,42 -2,28 0,37 10,34 7,-3 14,-15 16,-27 3,-16 9,-21 25,-19 20,3 22,9 23,63 1,33 -4,66 -10,74 -9,11 -8,13 4,9 8,-2 16,-19 18,-36 4,-39 38,-54 59,-26 16,22 17,96 1,112 -13,13 -279,18 -291,5 z m 174,-75 c -12,-32 -31,-34 -31,-4 0,19 5,26 20,26 16,0 18,-4 11,-22 z"
         id="path4571" />
      <path
         inkscape:connector-curvature="0"
         d="m 1107,1263 c -8,-16 -29,-72 -46,-125 -29,-88 -35,-97 -59,-100 -19,-2 -27,-9 -27,-23 0,-19 7,-20 90,-20 79,0 90,2 93,18 3,12 -4,20 -18,24 -38,10 -20,38 28,41 37,3 42,1 42,-17 0,-12 -6,-21 -14,-21 -19,0 -28,-14 -20,-34 5,-13 32,-15 184,-15 138,-1 179,2 183,13 7,18 -4,33 -28,37 -27,6 -29,62 -2,67 28,6 47,-17 47,-58 0,-50 17,-62 82,-58 45,3 53,6 53,23 0,12 -9,21 -25,25 -20,5 -26,13 -28,43 -2,24 -11,42 -25,52 -12,8 -16,15 -10,15 20,0 43,30 43,56 0,14 -11,36 -25,49 -23,24 -30,25 -143,25 -100,0 -121,-3 -126,-16 -9,-22 1,-34 30,-34 24,0 24,-1 24,-96 v -95 l -52,3 -53,3 -38,109 c -20,60 -42,115 -48,123 -7,7 -31,13 -55,13 -37,0 -45,-4 -57,-27 z m 447,-56 c 9,-15 7,-21 -9,-33 -36,-27 -67,-1 -51,42 8,20 46,14 60,-9 z m -374,-36 c 7,-27 6,-31 -11,-31 -20,0 -23,10 -13,48 8,27 12,25 24,-17 z"
         id="path4577" />
      <path
         inkscape:connector-curvature="0"
         d="m 714,1265 c -8,-21 4,-35 32,-35 24,0 24,-1 24,-95 0,-94 0,-95 -24,-95 -29,0 -39,-12 -30,-34 9,-24 189,-24 198,0 9,23 -2,34 -35,34 -24,0 -29,4 -29,25 0,23 4,25 45,25 64,0 95,31 95,95 0,35 -6,52 -25,70 -23,24 -31,25 -135,25 -87,0 -112,-3 -116,-15 z m 184,-47 c 19,-19 14,-56 -8,-68 -28,-15 -40,-5 -40,34 0,46 21,61 48,34 z"
         id="path4579" />
      <path
         inkscape:connector-curvature="0"
         d="m 1692,1217 c 3,-59 4,-62 28,-62 21,0 26,6 30,35 3,22 10,35 20,35 12,0 15,-17 15,-90 v -90 l -30,-5 c -22,-4 -30,-11 -30,-25 0,-18 8,-20 99,-23 69,-2 102,1 107,9 13,21 -2,39 -32,39 h -30 l 3,92 c 2,62 7,93 16,96 8,2 12,-7 12,-25 0,-39 13,-55 41,-51 20,2 24,9 27,44 3,41 3,41 35,35 26,-6 40,-20 75,-76 51,-83 51,-109 4,-113 -28,-3 -33,-7 -30,-25 3,-21 8,-22 108,-22 98,0 105,1 105,20 0,15 -8,21 -32,23 -28,3 -33,7 -33,29 0,19 48,116 76,152 2,2 18,6 36,10 24,5 33,12 33,26 0,18 -8,20 -84,23 -91,3 -117,-7 -89,-35 15,-15 16,-19 1,-46 l -15,-31 -13,30 c -8,19 -9,33 -2,41 5,7 7,19 4,27 -5,13 -43,15 -232,15 l -226,1 z"
         id="path4581" />
    </g>
  </g>
</svg>
