<?xml version="1.0" encoding="UTF-8" standalone="no"?>
<svg
   xmlns:dc="http://purl.org/dc/elements/1.1/"
   xmlns:cc="http://creativecommons.org/ns#"
   xmlns:rdf="http://www.w3.org/1999/02/22-rdf-syntax-ns#"
   xmlns:svg="http://www.w3.org/2000/svg"
   xmlns="http://www.w3.org/2000/svg"
   xmlns:sodipodi="http://sodipodi.sourceforge.net/DTD/sodipodi-0.dtd"
   xmlns:inkscape="http://www.inkscape.org/namespaces/inkscape"
   inkscape:version="1.0beta2 (2b71d25, 2019-12-03)"
   sodipodi:docname="libetarian_party_logo.svg"
   id="svg4283"
   preserveAspectRatio="xMidYMid meet"
   viewBox="0 0 96.416252 96.416252"
   height="96.416252pt"
   width="96.416252pt"
   version="1.0">
  <metadata
     id="metadata4289">
    <rdf:RDF>
      <cc:Work
         rdf:about="">
        <dc:format>image/svg+xml</dc:format>
        <dc:type
           rdf:resource="http://purl.org/dc/dcmitype/StillImage" />
        <dc:title></dc:title>
      </cc:Work>
    </rdf:RDF>
  </metadata>
  <defs
     id="defs4287" />
  <sodipodi:namedview
     inkscape:current-layer="svg4283"
     inkscape:window-maximized="0"
     inkscape:window-y="23"
     inkscape:window-x="0"
     inkscape:cy="85.46032"
     inkscape:cx="-85.541069"
     inkscape:zoom="1.18125"
     showgrid="false"
     id="namedview4285"
     inkscape:window-height="1113"
     inkscape:window-width="1792"
     inkscape:pageshadow="2"
     inkscape:pageopacity="0"
     guidetolerance="10"
     gridtolerance="10"
     objecttolerance="10"
     borderopacity="1"
     inkscape:document-rotation="0"
     bordercolor="#666666"
     pagecolor="#ffffff" />
  <g
     style="fill:#fbbc19;fill-opacity:1"
     id="g4281"
     stroke="none"
     fill="#000000"
     transform="matrix(0.1,0,0,-0.1,-81.29866,159.70812)">
    <path
       style="fill:#fbbc19;fill-opacity:1"
       sodipodi:nodetypes="ccscccccccscccccccccccsccccccccccscccccsscscccscccccsccccsccccscccccccccccccccsc"
       inkscape:connector-curvature="0"
       id="path4261"
       d="m 1196,1478 c 45,-46 98,-111 119,-145 21,-35 39,-63 41,-63 1,0 -5,18 -13,40 -14,35 -14,49 -4,98 7,31 14,74 15,94 l 1,37 60,-6 c 71,-7 139,-39 143,-69 3,-18 -1,-21 -21,-17 -32,6 -67,-13 -67,-37 0,-23 120,-127 157,-136 17,-5 40,1 69,14 l 44,22 14,-28 c 7,-15 17,-37 20,-49 6,-19 4,-22 -11,-16 -10,3 -26,15 -35,27 l -17,21 -31,-30 -32,-30 56,-51 c 41,-38 56,-59 56,-78 0,-23 -2,-25 -18,-15 -10,6 -25,23 -34,38 -10,19 -30,32 -63,41 l -48,13 -53,-59 c -29,-32 -53,-63 -54,-68 0,-4 35,-42 77,-82 l 77,-74 -29,-30 c -25,-26 -27,-33 -17,-55 8,-17 20,-25 36,-25 13,0 34,-9 47,-20 l 24,-19 -43,-1 c -31,0 -53,8 -81,28 -38,28 -39,29 -25,61 8,18 14,39 14,45 0,11 -130,69 -138,61 -2,-2 4,-31 14,-64 9,-34 14,-65 10,-69 -4,-4 -22,-12 -39,-18 -45,-15 -47,-40 -4,-48 19,-4 42,-15 52,-26 18,-20 17,-20 -36,-20 -54,0 -54,0 -76,43 -35,69 -37,84 -11,91 13,3 37,6 53,6 l 30,1 -50,45 c -43,39 -120,84 -144,84 -4,0 -16,-27 -26,-59 l -18,-59 -46,-4 c -25,-3 -47,-4 -48,-3 -2,1 8,35 22,75 14,40 25,90 26,109 l 1,36 10,-34 c 6,-23 6,-42 -2,-62 -18,-42 -29,-99 -19,-99 4,0 19,5 32,11 21,10 23,16 20,62 l -4,52 91,104 91,104 -32,33 -33,34 -34,-48 c -25,-35 -33,-40 -28,-22 17,69 14,69 -21,-3 l -38,-79 -179,-74 c -99,-40 -181,-72 -183,-71 -1,2 54,120 123,263 69,142 135,280 146,307 11,26 23,47 27,47 4,0 43,-37 87,-82 z" />
  </g>
</svg>
