<?xml version="1.0" encoding="UTF-8" standalone="no"?>
<svg
   xmlns:dc="http://purl.org/dc/elements/1.1/"
   xmlns:cc="http://creativecommons.org/ns#"
   xmlns:rdf="http://www.w3.org/1999/02/22-rdf-syntax-ns#"
   xmlns:svg="http://www.w3.org/2000/svg"
   xmlns="http://www.w3.org/2000/svg"
   xmlns:sodipodi="http://sodipodi.sourceforge.net/DTD/sodipodi-0.dtd"
   xmlns:inkscape="http://www.inkscape.org/namespaces/inkscape"
   inkscape:version="1.0beta2 (2b71d25, 2019-12-03)"
   sodipodi:docname="looney_logo.svg"
   id="svg1565"
   preserveAspectRatio="xMidYMid meet"
   viewBox="0 0 300 300"
   height="300pt"
   width="300pt"
   version="1.0">
  <metadata
     id="metadata1571">
    <rdf:RDF>
      <cc:Work
         rdf:about="">
        <dc:format>image/svg+xml</dc:format>
        <dc:type
           rdf:resource="http://purl.org/dc/dcmitype/StillImage" />
        <dc:title></dc:title>
      </cc:Work>
    </rdf:RDF>
  </metadata>
  <defs
     id="defs1569" />
  <sodipodi:namedview
     inkscape:current-layer="svg1565"
     inkscape:window-maximized="0"
     inkscape:window-y="58"
     inkscape:window-x="41"
     inkscape:cy="148"
     inkscape:cx="103.3758"
     inkscape:zoom="1.0608108"
     showguides="true"
     showgrid="false"
     id="namedview1567"
     inkscape:window-height="1061"
     inkscape:window-width="1580"
     inkscape:pageshadow="2"
     inkscape:pageopacity="0"
     guidetolerance="10"
     gridtolerance="10"
     objecttolerance="10"
     borderopacity="1"
     inkscape:document-rotation="0"
     bordercolor="#666666"
     pagecolor="#ffffff" />
  <g
     id="g1563"
     stroke="none"
     fill="#000000"
     transform="matrix(0.1,0,0,-0.1,-0.49063169,261.63213)">
    <path
       inkscape:connector-curvature="0"
       id="path1537"
       d="m 1390,2204 c -19,-2 -84,-9 -144,-15 -168,-17 -348,-64 -459,-120 -54,-28 -134,-85 -140,-102 -3,-8 1,-40 8,-73 8,-32 23,-124 35,-204 11,-80 22,-159 25,-176 22,-151 63,-809 52,-821 -2,-1 -65,18 -142,43 C 459,789 368,805 282,796 -5,766 -66,569 156,386 299,268 583,135 764,100 1065,43 1324,25 1825,25 c 307,1 431,13 579,56 370,110 602,278 583,420 -18,132 -218,227 -418,199 -60,-9 -179,-33 -223,-47 -18,-5 -19,-1 -12,51 7,60 5,62 -43,49 -20,-5 -22,-10 -18,-39 3,-18 23,-58 44,-88 l 38,-55 75,-1 c 230,-1 291,-184 92,-273 -62,-28 -217,-67 -342,-87 -41,-6 -82,-14 -90,-17 -8,-3 -22,-5 -31,-4 -8,1 -56,-3 -105,-9 -49,-6 -170,-17 -269,-24 -151,-11 -196,-11 -280,0 -413,57 -796,148 -941,222 -129,66 -148,190 -39,246 55,29 196,28 275,-1 l 55,-20 -2,-141 -1,-142 36,-9 c 21,-5 89,-21 154,-35 116,-26 159,-26 138,-1 -8,10 -8,15 1,20 8,6 8,10 -2,15 -10,7 -10,11 0,24 10,12 11,19 2,30 -10,11 -7,17 9,29 18,12 20,19 11,35 -9,16 -7,21 7,27 16,6 16,7 -1,16 -14,8 -15,14 -7,24 8,9 8,15 0,20 -15,10 -12,25 6,25 15,0 15,3 -1,26 -17,26 -17,27 6,21 13,-3 44,-9 69,-12 85,-12 92,-14 85,-34 -3,-11 -1,-22 5,-26 8,-5 7,-11 -2,-22 -10,-12 -9,-17 6,-25 18,-10 18,-12 -5,-29 -19,-14 -21,-21 -12,-30 9,-9 9,-16 2,-25 -8,-9 -4,-16 12,-24 22,-12 22,-12 -11,-33 -27,-17 -30,-21 -15,-29 15,-9 15,-11 -1,-29 -28,-31 -1,-48 107,-64 115,-18 239,-19 422,-3 l 139,11 -7,36 c -4,20 -18,62 -32,93 l -25,57 -52,-29 c -59,-33 -196,-93 -202,-88 -2,2 20,39 48,81 56,85 57,90 46,251 -5,71 -12,90 -68,203 -50,98 -66,122 -79,117 -24,-11 -59,-8 -76,6 -27,23 -32,72 -19,195 7,66 13,127 13,136 1,9 -12,22 -28,28 -15,7 -34,24 -40,38 -8,18 -16,23 -29,18 -9,-4 -37,-14 -60,-22 l -44,-16 20,-20 21,-20 -22,-18 -22,-18 24,-46 24,-46 -21,-15 c -29,-20 -28,-28 10,-80 l 32,-45 -27,-22 -28,-22 27,-39 27,-39 -29,-23 -28,-23 22,-30 22,-30 -21,-15 c -21,-14 -21,-15 12,-31 31,-17 32,-18 14,-31 -10,-8 -24,-14 -30,-14 -22,0 -35,-22 -24,-42 6,-11 9,-21 7,-24 -4,-4 -169,34 -176,41 -2,2 9,10 25,18 l 28,15 -30,12 -30,12 28,10 c 33,12 34,21 2,46 -14,11 -25,22 -25,25 0,2 21,12 46,22 l 46,17 -46,33 -46,33 36,21 c 32,19 34,24 23,38 -11,13 -11,17 -1,20 9,4 8,12 -5,35 -18,30 -18,30 11,53 l 30,24 -27,6 c -34,9 -34,14 -1,40 26,21 26,22 10,53 -20,39 -20,58 0,66 13,5 11,11 -10,39 -32,42 -32,47 -1,47 36,0 31,11 -21,46 l -45,31 43,7 43,7 -29,26 c -29,24 -29,26 -11,39 10,8 23,14 29,14 5,0 -1,11 -14,25 -20,21 -21,25 -6,30 55,18 53,15 34,26 -25,14 -22,28 7,35 33,8 32,16 -10,38 -38,21 -38,36 1,36 31,0 30,7 -3,43 l -28,29 65,-8 c 36,-4 94,-10 129,-13 l 64,-6 -58,-36 -58,-36 26,-18 27,-17 -23,-18 -22,-18 23,-31 c 27,-37 28,-46 1,-64 -20,-15 -20,-16 -4,-41 17,-25 17,-28 0,-46 -16,-18 -15,-19 24,-39 l 41,-21 6,26 c 4,14 44,72 90,127 46,56 84,106 84,112 0,5 -7,19 -15,29 -23,30 -18,65 13,95 l 27,28 -180,12 c -196,13 -336,32 -460,62 -92,23 -238,69 -233,75 2,1 58,-8 123,-21 304,-61 848,-110 949,-84 43,10 46,14 46,43 0,17 7,42 16,54 26,37 73,29 196,-33 l 109,-56 25,31 c 33,38 65,39 106,0 17,-16 28,-30 24,-30 -3,0 19,-49 49,-110 l 55,-109 31,11 c 26,9 35,7 59,-10 l 28,-21 46,135 c 25,74 46,138 46,142 0,15 -106,111 -160,145 -139,87 -316,142 -550,171 -96,12 -435,18 -520,10 z" />
    <path
       inkscape:connector-curvature="0"
       id="path1539"
       d="m 1873,1913 c -8,-3 -13,-23 -13,-52 v -47 l -127,-27 c -71,-16 -138,-35 -150,-43 -28,-18 -30,-55 -3,-79 11,-10 20,-23 20,-29 0,-6 -41,-60 -90,-120 -102,-123 -114,-150 -80,-178 12,-10 31,-18 41,-18 23,0 24,-13 4,-182 -18,-150 -11,-183 33,-176 15,3 35,8 44,12 13,6 30,-18 89,-135 68,-135 73,-148 77,-224 10,-148 6,-183 -23,-227 l -26,-40 23,7 c 32,10 98,44 132,68 23,16 30,18 38,6 17,-25 58,-114 58,-126 0,-28 22,-10 42,33 18,42 19,58 13,169 -5,78 -4,125 3,129 5,3 12,-7 15,-22 3,-15 26,-58 52,-95 58,-85 77,-137 69,-191 l -5,-41 36,55 c 21,30 46,74 56,97 l 20,43 38,-20 c 21,-10 52,-31 69,-45 16,-14 33,-25 36,-25 11,0 6,68 -9,110 -8,23 -36,72 -62,108 -38,53 -47,76 -51,118 l -4,51 48,8 c 109,16 145,52 105,106 -12,15 -21,32 -21,38 0,5 39,56 86,112 47,57 90,114 95,127 12,32 -5,61 -42,69 -34,6 -33,-3 -17,173 6,74 8,148 4,164 -7,29 -19,31 -81,12 -17,-6 -28,10 -82,123 -70,146 -102,182 -132,144 -9,-11 -21,-29 -27,-38 -9,-17 -20,-13 -132,43 -115,59 -140,67 -169,55 z m 187,-101 c 163,-87 169,-95 130,-171 -11,-23 -21,-41 -23,-41 -1,0 -24,11 -51,25 -27,14 -62,25 -78,25 -33,0 -43,19 -53,92 -7,56 -26,78 -66,78 -27,0 -29,3 -29,35 0,22 5,35 13,35 6,-1 77,-35 157,-78 z m 255,-133 c 89,-179 93,-204 35,-236 -21,-13 -43,-23 -47,-23 -5,0 -19,22 -32,49 -12,27 -35,61 -51,76 l -28,27 25,56 c 31,71 32,96 3,127 -20,21 -22,28 -12,50 6,14 16,25 22,25 6,0 44,-68 85,-151 z m -367,94 c 5,-10 12,-39 14,-65 6,-48 -1,-58 -41,-58 -9,0 -41,-12 -70,-27 l -54,-26 -43,46 c -46,50 -74,58 -108,32 -21,-16 -31,-13 -46,15 -14,27 3,34 157,69 152,35 179,37 191,14 z m -214,-153 c 20,-22 36,-43 36,-46 0,-4 -14,-22 -31,-41 -17,-20 -40,-54 -51,-77 l -20,-42 -61,10 c -59,9 -61,9 -84,-18 -12,-15 -23,-34 -23,-42 0,-11 -7,-13 -27,-8 -38,9 -38,10 -18,41 29,45 205,251 218,257 21,8 24,7 61,-34 z m 375,-31 c 113,-57 176,-166 176,-309 0,-142 -61,-249 -175,-308 -59,-31 -71,-33 -135,-30 -118,6 -202,64 -257,176 -30,61 -33,74 -33,162 0,88 3,101 33,162 79,161 241,222 391,147 z m 364,-32 c 4,-12 -2,-89 -18,-217 -2,-19 -7,-60 -10,-90 -10,-75 -24,-89 -78,-79 -23,4 -44,8 -47,9 -3,0 -5,47 -5,103 v 104 l 48,27 c 52,29 71,62 61,103 -5,19 -2,30 11,40 24,16 32,16 38,0 z m -866,-167 48,-11 v -103 -103 l -52,-28 c -55,-29 -70,-57 -58,-108 5,-19 2,-28 -13,-36 -26,-14 -29,-14 -35,3 -8,20 30,352 43,376 13,23 7,23 67,10 z m 916,-199 c 4,-4 -7,-26 -25,-49 -126,-156 -184,-224 -200,-233 -25,-14 -45,3 -68,56 -17,38 -17,41 0,60 10,11 30,44 45,73 19,39 31,52 43,48 9,-3 37,-8 62,-11 49,-7 70,6 85,53 5,18 11,21 28,16 12,-3 26,-9 30,-13 z m -825,-103 c 33,-57 69,-99 107,-124 30,-19 32,-55 7,-99 -35,-61 -77,-125 -82,-125 -10,0 -160,313 -160,332 0,14 72,68 92,68 3,0 20,-24 36,-52 z m 512,-271 c 5,-153 4,-149 76,-255 24,-35 44,-72 44,-83 0,-17 -5,-16 -60,13 -33,17 -62,29 -64,27 -1,-2 -15,-31 -31,-64 l -27,-60 -19,42 c -10,23 -36,67 -59,97 -27,36 -44,72 -52,108 -11,53 -10,56 16,91 31,41 56,113 56,164 0,20 5,33 13,33 7,0 28,11 47,24 23,16 39,21 45,15 6,-6 12,-74 15,-152 z m -222,90 c 71,0 72,-1 72,-26 -1,-38 -23,-93 -53,-132 -15,-20 -36,-57 -48,-83 -19,-44 -20,-59 -14,-171 5,-86 4,-124 -4,-129 -6,-4 -11,-3 -11,1 0,5 -16,34 -36,65 l -35,57 -50,-36 c -27,-19 -51,-34 -53,-32 -2,2 -6,58 -9,124 -6,137 -1,158 61,254 23,35 44,78 48,97 6,31 7,32 32,22 15,-6 60,-11 100,-11 z m 375,-31 c 20,-30 9,-40 -48,-50 -22,-4 -48,-9 -57,-12 -14,-4 -18,1 -18,25 0,27 3,31 28,31 16,0 37,7 48,15 26,19 29,19 47,-9 z" />
    <path
       inkscape:connector-curvature="0"
       id="path1541"
       d="m 1911,1539 c -53,-57 -45,-227 11,-245 64,-20 102,163 52,244 -18,28 -38,28 -63,1 z m 43,-55 c 16,-40 2,-134 -19,-134 -24,0 -33,78 -15,124 11,29 25,34 34,10 z" />
    <path
       inkscape:connector-curvature="0"
       id="path1543"
       d="m 2000,1520 c 0,-20 5,-30 15,-30 12,0 15,-17 15,-95 0,-88 1,-95 20,-95 19,0 20,7 20,90 0,73 3,90 15,90 10,0 15,10 15,29 0,25 -4,29 -37,35 -60,9 -63,8 -63,-24 z" />
    <path
       inkscape:connector-curvature="0"
       id="path1545"
       d="m 1836,1513 c -3,-10 -8,-35 -12,-56 -9,-52 -21,-55 -29,-7 -8,49 -19,57 -33,25 -9,-19 -6,-39 17,-107 l 28,-83 26,85 c 39,127 40,135 23,149 -12,10 -15,9 -20,-6 z" />
    <path
       inkscape:connector-curvature="0"
       id="path1547"
       d="m 2119,1517 c 0,-7 -1,-57 -1,-112 v -100 l 31,-6 c 17,-4 33,-4 35,0 6,10 -13,51 -24,51 -5,0 -10,7 -10,15 0,8 7,15 15,15 8,0 15,9 15,20 0,11 -7,23 -15,26 -20,8 -19,34 1,34 11,0 14,8 12,27 -2,19 -10,29 -30,34 -19,5 -28,3 -29,-4 z" />
    <path
       inkscape:connector-curvature="0"
       id="path1549"
       d="m 2198,1250 c -15,-32 -16,-32 -27,-11 -7,11 -16,21 -21,21 -13,0 -13,-67 0,-75 6,-3 10,-28 10,-54 0,-26 3,-51 7,-54 13,-14 32,30 33,73 0,25 7,55 15,67 10,14 12,29 7,43 -8,22 -9,21 -24,-10 z" />
    <path
       inkscape:connector-curvature="0"
       id="path1551"
       d="m 1740,1206 c 0,-55 4,-68 30,-101 29,-37 30,-37 30,-12 0,14 -4,29 -10,32 -5,3 -10,37 -10,76 0,62 -2,69 -20,69 -18,0 -20,-7 -20,-64 z" />
    <path
       inkscape:connector-curvature="0"
       id="path1553"
       d="m 1836,1247 c -38,-28 -32,-167 9,-215 23,-26 24,-26 42,-9 27,27 26,186 -1,216 -22,25 -26,25 -50,8 z m 41,-120 c -7,-75 -25,-79 -34,-8 -3,22 -2,52 2,68 6,27 7,27 22,8 10,-14 13,-35 10,-68 z" />
    <path
       inkscape:connector-curvature="0"
       id="path1555"
       d="m 1945,1230 c -28,-31 -33,-172 -8,-219 10,-19 23,-36 30,-39 41,-12 71,166 40,241 -18,42 -35,46 -62,17 z m 41,-66 c 7,-28 0,-111 -10,-122 -20,-19 -36,90 -20,132 9,24 23,19 30,-10 z" />
    <path
       inkscape:connector-curvature="0"
       id="path1557"
       d="m 2098,1198 -3,-51 -26,48 -27,48 -7,-116 c -4,-64 -5,-124 -1,-132 12,-33 26,-2 26,58 v 62 l 27,-47 c 14,-27 27,-47 28,-45 1,1 5,53 9,115 5,95 4,112 -8,112 -11,0 -16,-14 -18,-52 z" />
    <path
       inkscape:connector-curvature="0"
       id="path1559"
       d="m 2005,426 c 0,-78 -2,-86 -37,-142 -22,-36 -32,-60 -25,-62 7,-1 39,1 72,5 l 60,8 7,70 c 7,62 5,76 -17,121 -14,28 -33,58 -42,67 -17,15 -18,11 -18,-67 z" />
    <path
       inkscape:connector-curvature="0"
       id="path1561"
       d="m 2206,383 c -14,-27 -38,-68 -55,-93 -17,-24 -29,-45 -28,-46 2,-3 170,26 173,29 1,1 4,28 6,60 4,53 2,60 -20,78 -37,28 -49,24 -76,-28 z" />
  </g>
</svg>
