<?xml version="1.0" encoding="UTF-8" standalone="no"?>
<svg
   xmlns:dc="http://purl.org/dc/elements/1.1/"
   xmlns:cc="http://creativecommons.org/ns#"
   xmlns:rdf="http://www.w3.org/1999/02/22-rdf-syntax-ns#"
   xmlns:svg="http://www.w3.org/2000/svg"
   xmlns="http://www.w3.org/2000/svg"
   xmlns:sodipodi="http://sodipodi.sourceforge.net/DTD/sodipodi-0.dtd"
   xmlns:inkscape="http://www.inkscape.org/namespaces/inkscape"
   inkscape:version="1.0beta2 (2b71d25, 2019-12-03)"
   sodipodi:docname="people_before_profit_logo.svg"
   id="svg937"
   preserveAspectRatio="xMidYMid meet"
   viewBox="0 0 145.2 144.83437"
   height="144.83437pt"
   width="145.2pt"
   version="1.0">
  <metadata
     id="metadata943">
    <rdf:RDF>
      <cc:Work
         rdf:about="">
        <dc:format>image/svg+xml</dc:format>
        <dc:type
           rdf:resource="http://purl.org/dc/dcmitype/StillImage" />
      </cc:Work>
    </rdf:RDF>
  </metadata>
  <defs
     id="defs941" />
  <sodipodi:namedview
     inkscape:current-layer="svg937"
     inkscape:window-maximized="0"
     inkscape:window-y="23"
     inkscape:window-x="0"
     inkscape:cy="41.355878"
     inkscape:cx="120.47737"
     inkscape:zoom="4.3835535"
     showgrid="false"
     id="namedview939"
     inkscape:window-height="997"
     inkscape:window-width="1713"
     inkscape:pageshadow="2"
     inkscape:pageopacity="0"
     guidetolerance="10"
     gridtolerance="10"
     objecttolerance="10"
     borderopacity="1"
     inkscape:document-rotation="0"
     bordercolor="#666666"
     pagecolor="#ffffff" />
  <g
     style="fill:#6a100f;fill-opacity:1"
     id="g935"
     stroke="none"
     fill="#000000"
     transform="matrix(0.1,0,0,-0.1,-2,149.91413)" />
  <path
     transform="scale(0.75000003)"
     inkscape:connector-curvature="0"
     id="path1506"
     d="m 98.523509,65.795334 c -2.824556,-1.919336 -4.258478,-3.874193 -4.258478,-5.805558 0,-1.818575 8.117209,-10.569704 19.669389,-21.205474 5.97197,-5.49823 11.13339,-10.714551 11.46981,-11.591824 0.44477,-1.159786 1.64436,-1.816509 4.39601,-2.406633 5.53201,-1.186404 7.63863,-1.010347 10.45156,0.873468 2.69264,1.803264 8.0687,11.385639 8.06948,14.383184 5.3e-4,2.052745 -2.70504,4.065213 -12.21787,9.087918 -4.07276,2.150391 -8.4047,4.639778 -9.62653,5.531971 -2.49841,1.824371 -21.39866,11.810623 -23.71397,12.529662 -0.97309,0.302199 -2.46028,-0.187773 -4.239401,-1.396714 z"
     style="fill:#91bf42;fill-opacity:1;stroke-width:0.740502" />
  <path
     transform="scale(0.75000003)"
     inkscape:connector-curvature="0"
     id="path1508"
     d="m 103.9895,81.090873 c -1.75413,-1.754128 -1.98065,-3.908121 -0.77476,-7.367328 0.60652,-1.739869 1.74407,-2.738586 4.62814,-4.06329 2.10318,-0.966027 10.99275,-5.762103 19.75461,-10.657947 8.76186,-4.895845 17.38337,-9.642654 19.1589,-10.548465 l 3.22825,-1.646929 2.8879,2.819957 c 5.51464,5.384907 8.25533,14.011102 5.36869,16.897741 -2.08039,2.080391 -6.35393,3.860533 -15.10304,6.291169 -4.68368,1.301198 -13.01433,3.859478 -18.51256,5.685068 -5.49823,1.82559 -12.03538,3.510439 -14.52699,3.744109 -3.96408,0.371761 -4.72752,0.227538 -6.10914,-1.154085 z"
     style="fill:#91bf42;fill-opacity:1;stroke-width:0.740502" />
  <path
     transform="scale(0.75000003)"
     inkscape:connector-curvature="0"
     id="path1510"
     d="m 116.10985,95.267273 c -2.04049,-0.465454 -4.0365,-3.14952 -4.0563,-5.454571 -0.0196,-2.28605 0.71875,-2.680944 12.57208,-6.723695 13.03081,-4.444349 28.76076,-8.760591 31.92677,-8.760591 3.44996,0 4.75985,1.650783 5.94072,7.486736 0.93828,4.63703 0.1922,7.351795 -2.50638,9.119971 -2.37302,1.554861 -39.83653,5.253791 -43.87689,4.33215 z"
     style="fill:#91bf42;fill-opacity:1;stroke-width:0.740502" />
  <path
     transform="scale(0.75000003)"
     inkscape:connector-curvature="0"
     id="path1512"
     d="m 135.36027,108.44631 c -11.31745,-1.99385 -16.5322,-4.81156 -13.51153,-7.30072 1.52477,-1.256473 9.25659,-2.413467 18.69769,-2.797934 4.88731,-0.199025 10.68091,-0.500383 12.87465,-0.669684 l 3.98863,-0.307821 -0.46347,4.585059 c -0.64833,6.41387 -2.43907,7.93963 -9.22121,7.85673 -2.7264,-0.0333 -8.29055,-0.64785 -12.36476,-1.36563 z"
     style="fill:#91bf42;fill-opacity:1;stroke-width:0.740502" />
  <path
     transform="scale(0.75000003)"
     inkscape:connector-curvature="0"
     id="path1514"
     d="m 106.48332,31.573897 c -2.85093,-1.482004 -8.338161,-3.765188 -12.193838,-5.073743 -3.855677,-1.308555 -7.13398,-2.750167 -7.285118,-3.203582 -0.427299,-1.281897 4.224876,-2.876559 10.795442,-3.700438 3.520614,-0.441448 8.740414,-1.827922 12.685514,-3.369503 3.68687,-1.440675 7.35146,-2.619409 8.14353,-2.619409 2.10226,0 5.99678,3.555413 5.99678,5.474617 0,2.541794 -3.79458,7.926436 -8.29565,11.771818 -2.24527,1.918197 -4.213,3.471242 -4.37273,3.451211 -0.15973,-0.02003 -2.623,-1.248968 -5.47393,-2.730971 z"
     style="fill:#91bf42;fill-opacity:1;stroke-width:0.740502" />
  <path
     inkscape:connector-curvature="0"
     id="path1518"
     d="M 1.0328779,77.207621 11.4,137.41413"
     style="fill:none;stroke:#000000;stroke-width:0.75px;stroke-linecap:butt;stroke-linejoin:miter;stroke-opacity:1" />
  <g
     id="g1525">
    <path
       transform="matrix(0.1,0,0,-0.1,-2,149.91413)"
       d="M 283,1489 C 186,1470 108,1419 65,1345 30,1287 21,1197 20,937 20,762 23,718 34,714 c 7,-3 40,8 72,24 70,36 104,47 104,34 0,-5 19,-22 43,-39 53,-38 126,-113 168,-173 17,-25 52,-66 76,-92 25,-25 43,-50 40,-55 -3,-5 -24,-18 -46,-29 -23,-10 -41,-22 -41,-26 0,-5 -4,-8 -9,-8 -10,0 -173,-108 -213,-142 -15,-13 -43,-34 -62,-48 -20,-14 -34,-29 -32,-35 1,-5 29,-23 61,-40 l 59,-30 455,-3 c 485,-4 531,0 605,43 l 39,23 -40,20 c -74,38 -328,154 -368,169 -22,8 -85,23 -140,34 -110,22 -218,71 -274,122 -18,18 -57,64 -86,102 -70,92 -98,123 -167,180 -51,42 -58,52 -58,84 0,42 23,81 48,81 9,0 60,-25 112,-55 57,-32 97,-49 99,-42 2,6 0,12 -5,14 -34,11 -177,101 -185,115 -15,27 6,83 35,96 20,9 41,3 131,-34 112,-46 125,-50 125,-35 0,4 -21,16 -47,26 -27,10 -78,31 -115,48 -60,26 -68,33 -68,57 0,15 8,38 19,51 24,29 54,29 193,-5 123,-30 118,-29 118,-17 0,5 -42,19 -92,31 -175,40 -168,37 -168,71 0,19 10,39 26,56 25,25 28,25 107,18 45,-3 105,-11 132,-17 55,-11 145,-55 145,-71 0,-6 -27,-37 -60,-69 -33,-33 -63,-70 -66,-84 -8,-33 10,-71 40,-85 21,-10 24,-16 19,-46 -5,-26 -1,-39 17,-58 13,-14 29,-25 37,-25 7,0 13,-10 13,-22 0,-26 27,-62 53,-71 9,-4 17,-15 17,-25 0,-42 23,-54 141,-73 90,-15 119,-16 137,-7 18,10 45,8 135,-10 62,-13 122,-25 135,-29 l 24,-6 -4,319 c -3,299 -5,322 -25,372 -27,67 -64,116 -113,148 -76,51 -110,54 -575,53 -236,-1 -449,-5 -472,-10 z m 388,-61 c 20,-16 49,-33 65,-38 l 29,-8 -31,-1 c -16,-1 -51,-14 -77,-31 -53,-34 -69,-36 -86,-16 -15,18 -24,78 -14,92 16,20 56,43 67,37 6,-4 27,-20 47,-35 z m 273,-44 c 9,-8 16,-20 16,-25 0,-23 -32,-70 -65,-94 l -34,-27 -62,31 c -34,17 -77,33 -95,37 -71,13 -40,42 51,49 29,2 71,13 92,24 46,24 76,26 97,5 z m 148,-91 c 9,-10 24,-37 33,-61 21,-51 23,-48 -92,-109 -40,-21 -73,-41 -73,-45 0,-5 -5,-8 -11,-8 -7,0 -43,-18 -81,-40 -39,-22 -76,-40 -83,-40 -8,0 -26,10 -41,23 -19,17 -25,29 -20,43 6,19 118,132 204,206 18,15 32,32 32,38 0,9 12,13 65,23 24,4 45,-5 67,-30 z m 81,-165 c 27,-28 47,-71 47,-103 0,-33 -28,-49 -125,-75 -44,-11 -89,-25 -100,-29 -11,-5 -53,-19 -93,-31 -75,-21 -103,-18 -116,15 -6,18 9,65 22,65 5,0 81,40 168,90 87,49 163,90 167,90 4,0 18,-10 30,-22 z m 64,-221 c 15,-44 8,-84 -16,-96 -15,-8 -248,-31 -316,-31 -25,0 -34,6 -44,27 -7,14 -8,30 -3,35 16,16 307,107 337,105 25,-2 32,-8 42,-40 z m -37,-169 c -1,-70 -28,-78 -173,-54 -84,14 -121,36 -99,58 13,13 97,24 210,26 l 62,2 z"
       id="path893"
       inkscape:connector-curvature="0"
       style="fill:#6a100f;fill-opacity:1" />
    <path
       style="fill:#91bf42;fill-opacity:1;stroke-width:0.344293"
       d="m 15.472178,180.71076 c 0.86356,3.80186 -5.461169,-1.04434 -7.7418667,-7.44235 -1.8527432,-5.19747 -4.4688563,-9.17179 -5.8358999,-22.8113 -2.22074191,-22.15717 -0.5172409,-47.51362 -0.5172409,-47.51362 0,0 2.2844572,1.78788 3.657324,1.37361 1.3728668,-0.41427 5.2242035,-2.05693 8.5585255,-3.65037 6.082572,-2.90678 9.499387,-4.270796 10.698208,-4.270796 0.362809,0 0.780672,0.361556 0.958536,0.829374 0.17343,0.456156 1.447782,1.726254 2.831892,2.822442 7.468916,5.91522 9.323347,7.50272 12.816736,10.97187 4.565968,4.53429 8.816202,9.43078 12.260505,14.12475 3.214912,4.38134 5.014539,6.5599 9.760362,11.81549 3.916528,4.33721 5.723296,6.70492 5.723296,7.50016 0,0.56213 -2.245875,2.11567 -5.164389,3.57237 -3.640199,1.81691 -6.197267,3.46574 -6.197267,3.99607 0,0.27272 -0.813391,0.86162 -1.807536,1.30867 -3.723611,1.67444 -20.128707,12.61674 -27.024731,18.02567 -1.847501,1.4491 -4.985875,3.86838 -6.974165,5.37619 -1.98829,1.50781 -4.110091,3.20366 -4.715113,3.76856 l -1.100041,1.02708 z"
       id="path1520"
       inkscape:connector-curvature="0"
       transform="scale(0.75000003)"
       sodipodi:nodetypes="ssscscsscscssssscsccs" />
  </g>
  <path
     transform="scale(0.75000003)"
     inkscape:connector-curvature="0"
     id="path1527"
     d=""
     style="fill:#91bf42;fill-opacity:1;stroke-width:0.228125" />
</svg>
