<?xml version="1.0" encoding="UTF-8" standalone="no"?>
<svg
   xmlns:dc="http://purl.org/dc/elements/1.1/"
   xmlns:cc="http://creativecommons.org/ns#"
   xmlns:rdf="http://www.w3.org/1999/02/22-rdf-syntax-ns#"
   xmlns:svg="http://www.w3.org/2000/svg"
   xmlns="http://www.w3.org/2000/svg"
   xmlns:sodipodi="http://sodipodi.sourceforge.net/DTD/sodipodi-0.dtd"
   xmlns:inkscape="http://www.inkscape.org/namespaces/inkscape"
   inkscape:version="1.0beta2 (2b71d25, 2019-12-03)"
   height="354.39999"
   width="354.29999"
   sodipodi:docname="plaid_cymru_logo.svg"
   id="svg8185"
   xml:space="preserve"
   viewBox="0 0 354.3 354.40001"
   y="0px"
   x="0px"
   version="1.1"><metadata
   id="metadata8191"><rdf:RDF><cc:Work
       rdf:about=""><dc:format>image/svg+xml</dc:format><dc:type
         rdf:resource="http://purl.org/dc/dcmitype/StillImage" /><dc:title></dc:title></cc:Work></rdf:RDF></metadata><defs
   id="defs8189" /><sodipodi:namedview
   inkscape:current-layer="svg8185"
   inkscape:window-maximized="0"
   inkscape:window-y="23"
   inkscape:window-x="0"
   inkscape:cy="177.14999"
   inkscape:cx="641.84998"
   inkscape:zoom="0.5894754"
   showgrid="false"
   id="namedview8187"
   inkscape:window-height="910"
   inkscape:window-width="1912"
   inkscape:pageshadow="2"
   inkscape:pageopacity="0"
   guidetolerance="10"
   gridtolerance="10"
   objecttolerance="10"
   borderopacity="1"
   inkscape:document-rotation="0"
   bordercolor="#666666"
   pagecolor="#ffffff" />
<style
   id="style8055"
   type="text/css">
	.st0{fill:#8CB57E;}
	.st1{fill:#3F8428;}
	.st2{fill:#FFCC00;}
	.st3{fill:#FAC000;}
	.st4{fill:#F7B800;}
	.st5{fill:#E79500;}
	.st6{fill:#F0A700;}
	.st7{fill:#DD7602;}
</style>
<g
   id="Plaid_plaidcymru.org_copy">
	<g
   id="g8069">
		
		
		<g
   id="g8063">
			
		</g>
		
		
	</g>
	<g
   id="g8081">
		
		
		
		
		
	</g>
	<g
   id="g8097">
		
		
		
		
		
		
		
	</g>
	<g
   id="g8111">
		
		<g
   id="g8103">
			
		</g>
		
		
		
	</g>
	
</g>
<g
   id="Poppy">
	<g
   id="g8182">
		<path
   inkscape:connector-curvature="0"
   id="path8116"
   d="M 354.3,177.2 C 354.3,158 329.2,139 300.2,126.2 311.7,96.7 316,65.5 302.4,51.9 288.8,38.3 257.6,42.6 228.1,54.1 215.3,25.1 196.3,0 177.1,0 157.9,0 138.9,25.1 126.1,54.1 96.6,42.6 65.4,38.3 51.8,51.9 38.2,65.5 42.5,96.7 54,126.2 25.1,138.9 0,158 0,177.2 c 0,19.2 25.1,38.2 54.1,51 -11.5,29.5 -15.8,60.7 -2.2,74.3 13.6,13.6 44.8,9.3 74.3,-2.2 12.8,29 31.8,54.1 51,54.1 19.2,0 38.2,-25.1 51,-54.1 29.5,11.5 60.7,15.8 74.3,2.2 13.6,-13.6 9.3,-44.8 -2.2,-74.3 28.9,-12.8 54,-31.9 54,-51 z m -177.1,0 v 0 0 z"
   class="st2" />
		<path
   inkscape:connector-curvature="0"
   id="path8118"
   d="m 177.2,0 v 0 c -0.3,0 -0.7,0 -1,0 0,0 -0.1,0 -0.1,0 0,0 -0.1,0 -0.1,0 0,0 0,0 0,0 0,0 0,0 0,0 0,0 -0.1,0 -0.1,0 0,0 0,0 0,0 0,0 -0.1,0 -0.1,0 0,0 0,0 0,0 0,0 0,0 0,0 0,0 -0.1,0 -0.1,0 0,0 0,0 0,0 -0.1,0 -0.1,0 -0.2,0 0,0 0,0 0,0 0,0 0,0 0,0 0,0 0,0 0,0 -0.1,0 -0.1,0 -0.2,0 0,0 0,0 0,0 0,0 0,0 0,0 0,0 -0.1,0 -0.1,0 -0.1,0 -0.1,0 -0.2,0 -18.4,1.9 -36.4,26.2 -48.7,54 19.7,7.7 38.6,18.5 51,29.4 v 0 0 C 189.6,72.5 208.6,61.7 228.3,54 215.6,25.6 197,0.8 178.1,0 c 0,0 0,0 0,0 0,0 -0.1,0 -0.1,0 -0.1,0 -0.2,0 -0.4,0 0,0 0,0 0,0 -0.1,0 -0.3,0 -0.4,0 v 0"
   class="st2" />
		<path
   inkscape:connector-curvature="0"
   id="path8120"
   d="m 177.2,270.9 c -12.3,10.9 -31.3,21.7 -51,29.4 11.6,26.3 28.4,49.4 45.7,53.5 0,0 0,0 0,0 0,0 0,0 0,0 0,0 0,0 0,0 v 0 c 0,0 0,0 0.1,0 0,0 0,0 0.1,0 0,0 0,0 0,0 0,0 0,0 0,0 0,0 0,0 0,0 0,0 0.1,0 0.1,0 1.3,0.3 2.6,0.5 3.8,0.5 0,0 0.1,0 0.1,0 0,0 0.1,0 0.1,0 0.1,0 0.1,0 0.2,0 0.2,0 0.4,0 0.7,0 0.2,0 0.3,0 0.5,0 0,0 0,0 0,0 0,0 0.1,0 0.1,0 0.1,0 0.2,0 0.3,0 0,0 0,0 0,0 0.1,0 0.2,0 0.3,0 0,0 0.1,0 0.1,0 0,0 0,0 0,0 0.6,0 1.2,-0.1 1.9,-0.2 v 0 c 0,0 0,0 0.1,0 0,0 0,0 0,0 0,0 0,0 0,0 0,0 0.1,0 0.1,0 0,0 0.1,0 0.1,0 0,0 0,0 0,0 0,0 0,0 0,0 0,0 0,0 0,0 0,0 0,0 0,0 18,-2.8 35.5,-26.6 47.4,-53.8 -19.6,-7.7 -38.5,-18.6 -50.8,-29.4"
   class="st3" />
		<path
   inkscape:connector-curvature="0"
   id="path8122"
   d="m 300.2,126.2 c -7.7,19.7 -18.5,38.6 -29.4,51 10.9,12.3 21.7,31.3 29.4,51 28.7,-12.7 53.7,-31.5 54.1,-50.5 0,-0.1 0,-0.3 0,-0.4 v 0 c 0,-0.2 0,-0.5 0,-0.7 0,0 0,0 0,-0.1 -0.1,-2.5 -0.6,-4.9 -1.4,-7.3 -5.7,-16.5 -27.8,-32.1 -52.7,-43"
   class="st3" />
		<path
   inkscape:connector-curvature="0"
   id="path8124"
   d="m 54.1,126.2 c -26,11.4 -48.9,27.9 -53.3,45.1 0,0 0,0 0,0 0,0 0,0 0,0 -0.5,2 -0.8,3.9 -0.8,5.9 v 0 c 0,0.2 0,0.3 0,0.5 0,0 0,0 0,0 0,0.1 0,0.2 0,0.3 0,0 0,0.1 0,0.1 0,0 0,0 0,0 0.8,18.9 25.6,37.5 54.1,50 7.7,-19.7 18.5,-38.6 29.4,-51 C 72.6,164.8 61.7,145.9 54.1,126.2"
   class="st3" />
		<path
   inkscape:connector-curvature="0"
   id="path8126"
   d="m 51.9,51.9 v 0 c -0.2,0.2 -0.5,0.5 -0.7,0.7 0,0 -0.1,0.1 -0.1,0.1 0,0 0,0 -0.1,0.1 0,0 0,0 0,0 0,0 0,0 0,0 0,0 0,0.1 -0.1,0.1 0,0 0,0 0,0 0,0 0,0 -0.1,0.1 0,0 0,0 0,0 0,0 0,0 0,0 0,0 0,0.1 -0.1,0.1 0,0 0,0 0,0 0,0 -0.1,0.1 -0.1,0.1 0,0 0,0 0,0 0,0 0,0 0,0 0,0 0,0 0,0 0,0 -0.1,0.1 -0.1,0.1 0,0 0,0 0,0 0,0 0,0 0,0 0,0 0,0.1 -0.1,0.1 0,0 -0.1,0.1 -0.1,0.1 -11.6,14.4 -7.2,44.3 3.8,72.6 19.4,-8.5 40.4,-14.2 56.8,-15.3 v 0 0 c 1,-16.4 6.8,-37.5 15.3,-56.8 -29,-11.3 -59.7,-15.6 -73.6,-2.9 0,0 0,0 0,0 0,0 0,0 -0.1,0.1 -0.1,0.1 -0.2,0.2 -0.3,0.3 0,0 0,0 0,0 -0.1,0.2 -0.2,0.3 -0.3,0.4 v 0"
   class="st2" />
		<path
   inkscape:connector-curvature="0"
   id="path8128"
   d="m 243.4,243.4 c -1,16.4 -6.8,37.5 -15.3,56.8 26.8,10.4 55,14.9 70.1,5.5 0,0 0,0 0,0 0,0 0,0 0,0 0,0 0,0 0,0 v 0 c 0,0 0,0 0,0 0,0 0,0 0,0 0,0 0,0 0,0 0,0 0,0 0,0 0,0 0,0 0,0 0,0 0.1,0 0.1,-0.1 1.1,-0.7 2.1,-1.5 3.1,-2.3 0,0 0.1,-0.1 0.1,-0.1 0,0 0.1,-0.1 0.1,-0.1 0,0 0.1,-0.1 0.2,-0.1 0.2,-0.2 0.3,-0.3 0.5,-0.5 0.1,-0.1 0.2,-0.2 0.3,-0.4 0,0 0,0 0,0 0,0 0.1,-0.1 0.1,-0.1 0.1,-0.1 0.1,-0.2 0.2,-0.2 0,0 0,0 0,0 0.1,-0.1 0.1,-0.1 0.2,-0.2 0,0 0.1,-0.1 0.1,-0.1 0,0 0,0 0,0 0.4,-0.5 0.8,-0.9 1.2,-1.4 v 0 c 0,0 0,0 0,0 0,0 0,0 0,0 0,0 0,0 0,0 0,0 0,-0.1 0.1,-0.1 0,0 0,-0.1 0.1,-0.1 0,0 0,0 0,0 0,0 0,0 0,0 0,0 0,0 0,0 0,0 0,0 0,0 10.7,-14.7 6.2,-43.9 -4.5,-71.6 -19.2,8.4 -40.3,14.1 -56.7,15.1"
   class="st2" />
		<path
   inkscape:connector-curvature="0"
   id="path8130"
   d="m 228.1,54.1 c 8.5,19.4 14.2,40.4 15.3,56.8 16.4,1 37.5,6.8 56.8,15.3 11.4,-29.3 15.7,-60.2 2.5,-74 -0.1,-0.1 -0.2,-0.2 -0.3,-0.3 v 0 c -0.2,-0.2 -0.3,-0.3 -0.5,-0.5 0,0 0,0 0,0 -1.8,-1.7 -3.9,-3.1 -6.2,-4.2 -15.6,-7.5 -42.2,-3 -67.6,6.9"
   class="st2" />
		<path
   inkscape:connector-curvature="0"
   id="path8132"
   d="m 54.1,228.1 c -10.3,26.5 -14.8,54.3 -5.8,69.6 0,0 0,0 0,0 0,0 0,0 0,0 1,1.7 2.2,3.3 3.6,4.7 v 0 c 0.1,0.1 0.2,0.2 0.4,0.3 0,0 0,0 0,0 0.1,0.1 0.2,0.2 0.3,0.2 0,0 0,0 0.1,0.1 0,0 0,0 0,0 13.9,12.8 44.6,8.4 73.6,-2.9 -8.5,-19.4 -14.2,-40.4 -15.3,-56.8 -16.5,-0.9 -37.6,-6.6 -56.9,-15.2"
   class="st2" />
		<path
   inkscape:connector-curvature="0"
   id="path8134"
   d="m 228.1,54.1 c -19.7,7.7 -38.6,18.5 -51,29.4 1.4,1.2 2.6,2.4 3.8,3.6 11.7,11.7 16.3,26 16.3,40 0,0.6 0,1.1 0,1.7 10,-10.6 23.8,-18 41,-18 1.7,0 3.4,0.1 5.2,0.2 -1,-16.5 -6.7,-37.6 -15.3,-56.9 0,0 0,0 0,0 0,0 0,0 0,0"
   class="st4" />
		<path
   inkscape:connector-curvature="0"
   id="path8136"
   d="m 243.4,110.9 c 0.1,1.8 0.2,3.5 0.2,5.2 v 0 0 c 0,17.2 -7.4,30.9 -18,41 0.6,0 1.1,0 1.7,0 14,0 28.3,4.6 40,16.3 1.2,1.2 2.4,2.5 3.6,3.8 v 0 0 0 0 c 10.9,-12.3 21.7,-31.3 29.4,-51 0,0 0,0 0,0 0,0 0,0 0,0 -19.4,-8.5 -40.5,-14.3 -56.9,-15.3"
   class="st4" />
		<path
   inkscape:connector-curvature="0"
   id="path8138"
   d="m 157.1,225.6 c -10,10.6 -23.8,18 -41,18 -1.7,0 -3.4,-0.1 -5.2,-0.2 1,16.4 6.8,37.5 15.3,56.8 0,0 0,0 0,0 0,0 0,0 0,0 19.7,-7.7 38.6,-18.5 51,-29.4 -1.4,-1.2 -2.6,-2.4 -3.8,-3.6 -11.7,-11.7 -16.3,-26 -16.3,-40 0,-0.5 0,-1 0,-1.6"
   class="st4" />
		<path
   inkscape:connector-curvature="0"
   id="path8140"
   d="m 83.5,177.2 v 0 0 c -10.9,12.3 -21.7,31.3 -29.4,51 0,0 0,0 0,0 0,0 0,0 0,0 19.4,8.5 40.4,14.2 56.8,15.3 -0.1,-1.8 -0.2,-3.5 -0.2,-5.2 v 0 0 c 0,-17.2 7.4,-30.9 18,-41 -0.6,0 -1.1,0 -1.7,0 -14,0 -28.3,-4.6 -40,-16.3 -1.2,-1.2 -2.4,-2.5 -3.5,-3.8"
   class="st4" />
		<path
   inkscape:connector-curvature="0"
   id="path8142"
   d="m 197.2,225.6 c 0,0.6 0,1.1 0,1.7 0,14 -4.6,28.3 -16.3,40 -1.2,1.2 -2.5,2.4 -3.8,3.6 12.3,10.9 31.3,21.7 51,29.4 0,0 0,0 0,0 0,0 0,0 0,0 8.5,-19.4 14.2,-40.4 15.3,-56.8 -1.8,0.1 -3.5,0.2 -5.2,0.2 -17.2,-0.1 -30.9,-7.5 -41,-18.1"
   class="st4" />
		<path
   inkscape:connector-curvature="0"
   id="path8144"
   d="m 270.9,177.2 v 0 0 c -1.2,1.4 -2.4,2.6 -3.6,3.8 -11.7,11.7 -26,16.3 -40,16.3 -0.6,0 -1.1,0 -1.7,0 10.6,10 18,23.8 18,41 v 0 0 c 0,1.7 -0.1,3.4 -0.2,5.2 16.4,-1 37.5,-6.8 56.8,-15.3 0,0 0,0 0,0 0,0 0,0 0,0 -7.6,-19.8 -18.5,-38.7 -29.3,-51 v 0 0"
   class="st4" />
		<path
   inkscape:connector-curvature="0"
   id="path8146"
   d="m 126.2,54.1 c 0,0 0,0 0,0 0,0 0,0 0,0 -8.5,19.4 -14.2,40.4 -15.3,56.8 1.8,-0.1 3.5,-0.2 5.2,-0.2 17.2,0 30.9,7.4 41,18 0,-0.6 0,-1.1 0,-1.7 0,-14 4.6,-28.3 16.3,-40 1.2,-1.2 2.5,-2.4 3.8,-3.6 -12.4,-10.8 -31.3,-21.7 -51,-29.3"
   class="st4" />
		<path
   inkscape:connector-curvature="0"
   id="path8148"
   d="m 110.9,110.9 c -16.4,1 -37.5,6.8 -56.8,15.3 0,0 0,0 0,0 v 0 c 7.7,19.7 18.5,38.6 29.4,51 v 0 0 c 1.2,-1.4 2.4,-2.6 3.6,-3.8 11.7,-11.7 26,-16.3 40,-16.3 0.6,0 1.1,0 1.7,0 -10.6,-10 -18,-23.8 -18,-41 v 0 0 c -0.1,-1.7 0,-3.4 0.1,-5.2"
   class="st4" />
		<path
   inkscape:connector-curvature="0"
   id="path8150"
   d="m 177.2,177.2 v 0 0 0 m 0,0 v 0 0 0 m 0,0 v 0 0 0 m 0,0 v 0 0 0 m 0,0 v 0 0 0 0 m 61,-66.5 c -17.2,0 -30.9,7.4 -41,18 v 0 0 c 0,1.2 -0.1,2.4 -0.2,3.5 -1.4,17.9 -9.8,34.8 -19.8,44.8 9.6,-9.5 25.4,-17.6 42.3,-19.6 2,-0.2 4,-0.4 6,-0.4 v 0 0 0 0 0 0 c 10.6,-10 18,-23.8 18,-41 0,-1.7 -0.1,-3.4 -0.2,-5.2 v 0 0 0 0 c -1.7,0 -3.4,-0.1 -5.1,-0.1"
   class="st5" />
		<path
   inkscape:connector-curvature="0"
   id="path8152"
   d="m 177.2,177.2 c -10.7,10.7 -29.3,19.6 -48.5,20.1 v 0 0 c -10.6,10 -18,23.8 -18,41 0,1.7 0.1,3.4 0.2,5.2 1.8,0.1 3.5,0.2 5.2,0.2 17.2,0 30.9,-7.4 41,-18 v 0 0 0 0 c 0.5,-19.3 9.4,-37.8 20.1,-48.5 v 0"
   class="st5" />
		<path
   inkscape:connector-curvature="0"
   id="path8154"
   d="m 177.2,177.2 c 10,10 18.5,27 19.9,44.9 0.1,1.2 0.2,2.4 0.2,3.5 v 0 0 0 0 c 10,10.6 23.8,18 41,18 1.7,0 3.4,-0.1 5.2,-0.2 0.1,-1.8 0.2,-3.5 0.2,-5.2 0,-17.2 -7.4,-30.9 -18,-41 v 0 0 c -19.3,-0.5 -37.8,-9.3 -48.5,-20 v 0"
   class="st5" />
		<path
   inkscape:connector-curvature="0"
   id="path8156"
   d="m 116.1,110.7 c -1.7,0 -3.4,0.1 -5.2,0.2 v 0 0 0 0 0 0 c -0.1,1.8 -0.2,3.5 -0.2,5.2 0,17.2 7.4,30.9 18,41 v 0 0 0 0 c 19.2,0.5 37.8,9.4 48.5,20.1 v 0 c -10.7,-10.7 -19.6,-29.3 -20.1,-48.5 v 0 0 c -10,-10.6 -23.8,-18 -41,-18"
   class="st5" />
		<path
   inkscape:connector-curvature="0"
   id="path8158"
   d="m 177.2,177.2 v 0 0 0 0 0 0 0 0 0 0 0 0 0 0 0 0 0 0 0 0 m 50.1,-20.1 c -0.6,0 -1.1,0 -1.7,0 v 0 0 0 0 c -1.2,1.1 -2.4,2.2 -3.6,3.2 -13.5,11.1 -31,16.9 -44.8,16.9 v 0 c 13.7,0 30.9,5.6 44.3,16.4 1.4,1.1 2.8,2.4 4.1,3.6 v 0 0 c 0.6,0 1.1,0 1.7,0 14,0 28.3,-4.6 40,-16.3 1.2,-1.2 2.4,-2.5 3.6,-3.8 -1.2,-1.4 -2.4,-2.6 -3.6,-3.8 -11.7,-11.7 -26,-16.2 -40,-16.2"
   class="st6" />
		<path
   inkscape:connector-curvature="0"
   id="path8160"
   d="m 177.2,177.2 c 0,15.1 -6.8,34.5 -20.1,48.5 v 0 0 0 0 0 0 c 0,0.6 0,1.1 0,1.7 0,14 4.6,28.3 16.3,40 1.2,1.2 2.5,2.4 3.8,3.6 1.4,-1.2 2.6,-2.4 3.8,-3.6 11.7,-11.7 16.3,-26 16.3,-40 0,-0.6 0,-1.1 0,-1.7 v 0 0 0 0 c -13.3,-14 -20.1,-33.4 -20.1,-48.5 v 0"
   class="st6" />
		<path
   inkscape:connector-curvature="0"
   id="path8162"
   d="m 177.2,83.5 c -1.4,1.2 -2.6,2.4 -3.8,3.6 -11.7,11.7 -16.3,26 -16.3,40 0,0.6 0,1.1 0,1.7 v 0 0 c 13.2,13.9 20,33.2 20.1,48.3 0,-13.9 5.8,-31.2 16.9,-44.7 1,-1.2 2.1,-2.4 3.2,-3.6 v 0 0 0 0 c 0,-0.6 0,-1.1 0,-1.7 0,-14 -4.6,-28.3 -16.3,-40 -1.2,-1.3 -2.5,-2.5 -3.8,-3.6 v 0 0"
   class="st6" />
		<path
   inkscape:connector-curvature="0"
   id="path8164"
   d="m 127,157.1 c -14,0 -28.3,4.6 -40,16.3 -1.2,1.2 -2.4,2.5 -3.6,3.8 1.2,1.4 2.4,2.6 3.6,3.8 11.7,11.7 26,16.3 40,16.3 0.6,0 1.1,0 1.7,0 v 0 0 c 13.9,-13.2 33.3,-20.1 48.5,-20.1 v 0 c -15.1,0 -34.5,-6.8 -48.5,-20.1 v 0 0 0 0 c -0.5,0 -1.1,0 -1.7,0"
   class="st6" />
		<path
   inkscape:connector-curvature="0"
   id="path8166"
   d="m 225.6,157.1 c -2,0.1 -4,0.2 -6,0.4 -17,2 -32.8,10.1 -42.4,19.6 13.9,0 31.3,-5.7 44.8,-16.9 1.2,-0.9 2.5,-2 3.6,-3.1"
   class="st7" />
		<path
   inkscape:connector-curvature="0"
   id="path8168"
   d="m 177.2,177.2 c 10.7,10.7 29.3,19.6 48.5,20.1 -1.3,-1.3 -2.7,-2.5 -4.1,-3.6 -13.6,-10.9 -30.7,-16.5 -44.4,-16.5"
   class="st7" />
		<path
   inkscape:connector-curvature="0"
   id="path8170"
   d="m 177.2,177.2 c 0,15.1 6.8,34.5 20.1,48.5 0,-1.2 -0.1,-2.4 -0.2,-3.5 -1.5,-18 -9.9,-35 -19.9,-45"
   class="st7" />
		<path
   inkscape:connector-curvature="0"
   id="path8172"
   d="m 177.2,177.2 c -10.7,10.7 -19.6,29.3 -20.1,48.5 13.2,-14 20.1,-33.4 20.1,-48.5"
   class="st7" />
		<path
   inkscape:connector-curvature="0"
   id="path8174"
   d="m 177.3,177.1 c -0.1,0 -0.1,0 0,0 v 0 0 c -0.1,0 -0.1,0 0,0 m 19.9,-48.4 c -1.1,1.2 -2.2,2.3 -3.2,3.6 -11.2,13.5 -16.9,31 -16.9,44.9 10,-10 18.5,-27 19.9,-44.9 0.1,-1.2 0.2,-2.4 0.2,-3.6"
   class="st7" />
		<path
   inkscape:connector-curvature="0"
   id="path8176"
   d="m 177.2,177.2 v 0 0 0 0 m 0,-0.2 c 0,0 0,0.1 0,0.1 v 0 0 c 0,0 0,0 0,-0.1 m -20.1,-48.3 c 0.5,19.2 9.4,37.8 20.1,48.5 0,-15.2 -6.9,-34.6 -20.1,-48.5"
   class="st7" />
		<path
   inkscape:connector-curvature="0"
   id="path8178"
   d="m 128.7,157.1 c 13.9,13.2 33.3,20.1 48.5,20.1 v 0 c -10.7,-10.7 -29.3,-19.6 -48.5,-20.1"
   class="st7" />
		<path
   inkscape:connector-curvature="0"
   id="path8180"
   d="m 177.2,177.2 c -15.1,0 -34.5,6.8 -48.5,20.1 19.2,-0.6 37.8,-9.4 48.5,-20.1"
   class="st7" />
	</g>
</g>
</svg>
