<?xml version="1.0" encoding="UTF-8" standalone="no"?>
<!-- Created with Inkscape (http://www.inkscape.org/) -->

<svg
   xmlns:dc="http://purl.org/dc/elements/1.1/"
   xmlns:cc="http://creativecommons.org/ns#"
   xmlns:rdf="http://www.w3.org/1999/02/22-rdf-syntax-ns#"
   xmlns:svg="http://www.w3.org/2000/svg"
   xmlns="http://www.w3.org/2000/svg"
   xmlns:sodipodi="http://sodipodi.sourceforge.net/DTD/sodipodi-0.dtd"
   xmlns:inkscape="http://www.inkscape.org/namespaces/inkscape"
   version="1.1"
   width="538.58264"
   height="538.58264"
   id="svg5168"
   sodipodi:docname="scottish_green_party_logo.svg">
  <sodipodi:namedview
     pagecolor="#ffffff"
     bordercolor="#666666"
     inkscape:document-rotation="0"
     borderopacity="1"
     objecttolerance="10"
     gridtolerance="10"
     guidetolerance="10"
     inkscape:pageopacity="0"
     inkscape:pageshadow="2"
     inkscape:window-width="640"
     inkscape:window-height="480"
     id="namedview4980"
     showgrid="false" />
  <defs
     id="defs5170">
    <clipPath
       id="clipPath3616">
      <path
         d="m 46.772,673.701 139.843,0 0,139.842 -139.843,0 0,-139.842 z"
         id="path3618" />
    </clipPath>
  </defs>
  <metadata
     id="metadata5173">
    <rdf:RDF>
      <cc:Work
         rdf:about="">
        <dc:format>image/svg+xml</dc:format>
        <dc:type
           rdf:resource="http://purl.org/dc/dcmitype/StillImage" />
        <dc:title></dc:title>
      </cc:Work>
    </rdf:RDF>
  </metadata>
  <g
     transform="translate(-84.218242,-304.25128)"
     id="layer1">
    <g
       transform="matrix(3.8006626,0,0,-3.8006626,-90.003058,3399.7993)"
       id="g3612"
       style="fill:#62a53a;fill-opacity:1">
      <g
         clip-path="url(#clipPath3616)"
         id="g3614"
         style="fill:#62a53a;fill-opacity:1">
        <g
           transform="translate(83.2309,744.5785)"
           id="g3620"
           style="fill:#62a53a;fill-opacity:1">
          <path
             d="M 0,0 C 4.22,0 6.341,-2.19 6.341,-2.19 L 4.405,-5.21 c 0,0 -1.684,1.522 -4.013,1.522 -3.457,0 -4.865,-2.215 -4.865,-4.656 0,-3.137 2.167,-5.004 4.727,-5.004 1.937,0 3.343,1.197 3.343,1.197 v 1.271 h -2.33 v 3.434 H 7.17 v -9.315 H 3.804 v 0.461 c 0,0.344 0.023,0.692 0.023,0.692 H 3.781 c 0,0 -1.59,-1.429 -4.333,-1.429 -4.22,0 -8.094,3.158 -8.094,8.552 C -8.646,-3.688 -5.026,0 0,0"
             id="path3622"
             style="fill:#62a53a;fill-opacity:1;fill-rule:nonzero;stroke:none"
             inkscape:connector-curvature="0" />
        </g>
        <g
           transform="translate(97.7684,736.8332)"
           id="g3624"
           style="fill:#62a53a;fill-opacity:1">
          <path
             d="m 0,0 c 1.291,0 2.097,0.714 2.097,2.027 0,1.245 -0.46,1.982 -2.489,1.982 H -1.751 V 0 Z m -5.788,7.469 h 5.741 C 1.637,7.469 2.442,7.353 3.158,7.077 5.026,6.363 6.202,4.68 6.202,2.281 6.202,0.529 5.37,-1.384 3.735,-2.215 v -0.046 c 0,0 0.229,-0.299 0.622,-0.99 L 7.561,-9.015 H 3.065 l -2.927,5.556 h -1.889 v -5.556 h -4.037 z"
             id="path3626"
             style="fill:#62a53a;fill-opacity:1;fill-rule:nonzero;stroke:none"
             inkscape:connector-curvature="0" />
        </g>
        <g
           transform="translate(106.2804,744.3019)"
           id="g3628"
           style="fill:#62a53a;fill-opacity:1">
          <path
             d="M 0,0 H 10.329 V -3.459 H 4.036 V -6.456 H 9.06 V -9.914 H 4.036 v -3.112 h 6.615 v -3.458 H 0 Z"
             id="path3630"
             style="fill:#62a53a;fill-opacity:1;fill-rule:nonzero;stroke:none"
             inkscape:connector-curvature="0" />
        </g>
        <g
           transform="translate(118.4278,744.3035)"
           id="g3632"
           style="fill:#62a53a;fill-opacity:1">
          <path
             d="M 0,0 H 10.278 V -3.443 H 4.018 V -6.427 H 9.019 V -9.866 H 4.018 v -3.099 h 6.584 v -3.44 H 0 Z"
             id="path3634"
             style="fill:#62a53a;fill-opacity:1;fill-rule:nonzero;stroke:none"
             inkscape:connector-curvature="0" />
        </g>
        <g
           transform="translate(130.4665,744.3035)"
           id="g3636"
           style="fill:#62a53a;fill-opacity:1">
          <path
             d="m 0,0 h 4.062 l 4.54,-7.664 c 0.645,-1.079 1.379,-2.799 1.379,-2.799 h 0.046 c 0,0 -0.184,1.766 -0.184,2.799 V 0 h 4.015 V -16.405 H 9.82 L 5.254,-8.766 C 4.61,-7.688 3.876,-5.967 3.876,-5.967 H 3.83 c 0,0 0.186,-1.766 0.186,-2.799 v -7.639 H 0 Z"
             id="path3638"
             style="fill:#62a53a;fill-opacity:1;fill-rule:nonzero;stroke:none"
             inkscape:connector-curvature="0" />
        </g>
        <g
           transform="translate(147.7634,733.014)"
           id="g3640"
           style="fill:#62a53a;fill-opacity:1">
          <path
             d="m 0,0 c 0,0 1.859,-1.697 3.924,-1.697 0.826,0 1.721,0.321 1.721,1.307 0,1.95 -7.389,1.881 -7.389,6.929 0,3.03 2.547,5.025 5.808,5.025 3.53,0 5.276,-1.857 5.276,-1.857 L 7.642,6.426 c 0,0 -1.652,1.445 -3.626,1.445 -0.826,0 -1.745,-0.368 -1.745,-1.286 0,-2.064 7.39,-1.697 7.39,-6.883 0,-2.729 -2.087,-5.093 -5.781,-5.093 -3.857,0 -5.99,2.339 -5.99,2.339 z"
             id="path3642"
             style="fill:#62a53a;fill-opacity:1;fill-rule:nonzero;stroke:none"
             inkscape:connector-curvature="0" />
        </g>
        <g
           transform="translate(77.2773,752.2094)"
           id="g3644"
           style="fill:#62a53a;fill-opacity:1">
          <path
             d="m 0,0 c 0,0 1.41,-1.286 2.972,-1.286 0.626,0 1.303,0.243 1.303,0.989 0,1.478 -5.595,1.426 -5.595,5.249 0,2.293 1.929,3.805 4.396,3.805 2.677,0 3.997,-1.408 3.997,-1.408 L 5.786,4.865 c 0,0 -1.252,1.094 -2.745,1.094 -0.624,0 -1.321,-0.277 -1.321,-0.972 0,-1.565 5.597,-1.287 5.597,-5.213 0,-2.068 -1.581,-3.858 -4.379,-3.858 -2.919,0 -4.536,1.772 -4.536,1.772 z"
             id="path3646"
             style="fill:#62a53a;fill-opacity:1;fill-rule:nonzero;stroke:none"
             inkscape:connector-curvature="0" />
        </g>
        <g
           transform="translate(91.6413,760.9666)"
           id="g3648"
           style="fill:#62a53a;fill-opacity:1">
          <path
             d="M 0,0 C 3.075,0 4.655,-1.755 4.655,-1.755 L 3.249,-4.05 c 0,0 -1.392,1.27 -3.111,1.27 -2.382,0 -3.509,-1.755 -3.509,-3.546 0,-1.841 1.216,-3.736 3.509,-3.736 1.878,0 3.301,1.53 3.301,1.53 l 1.564,-2.224 c 0,0 -1.754,-2.085 -5.003,-2.085 -3.893,0 -6.518,2.761 -6.518,6.447 C -6.518,-2.78 -3.739,0 0,0"
             id="path3650"
             style="fill:#62a53a;fill-opacity:1;fill-rule:nonzero;stroke:none"
             inkscape:connector-curvature="0" />
        </g>
        <g
           transform="translate(102.9564,750.9048)"
           id="g3652"
           style="fill:#62a53a;fill-opacity:1">
          <path
             d="M 0,0 C 1.86,0 3.354,1.6 3.354,3.719 3.354,5.753 1.86,7.282 0,7.282 -1.86,7.282 -3.354,5.753 -3.354,3.719 -3.354,1.6 -1.86,0 0,0 m 0,10.062 c 3.752,0 6.499,-2.78 6.499,-6.343 0,-3.65 -2.747,-6.498 -6.499,-6.498 -3.755,0 -6.498,2.848 -6.498,6.498 0,3.563 2.743,6.343 6.498,6.343"
             id="path3654"
             style="fill:#62a53a;fill-opacity:1;fill-rule:nonzero;stroke:none"
             inkscape:connector-curvature="0" />
        </g>
        <g
           transform="translate(113.0192,758.1519)"
           id="g3656"
           style="fill:#62a53a;fill-opacity:1">
          <path
             d="M 0,0 H -3.773 V 2.605 H 6.812 V 0 H 3.04 V -9.819 H 0 Z"
             id="path3658"
             style="fill:#62a53a;fill-opacity:1;fill-rule:nonzero;stroke:none"
             inkscape:connector-curvature="0" />
        </g>
        <g
           transform="translate(124.3468,758.1519)"
           id="g3660"
           style="fill:#62a53a;fill-opacity:1">
          <path
             d="M 0,0 H -3.769 V 2.605 H 6.81 V 0 H 3.041 V -9.819 H 0 Z"
             id="path3662"
             style="fill:#62a53a;fill-opacity:1;fill-rule:nonzero;stroke:none"
             inkscape:connector-curvature="0" />
        </g>
        <path
           d="m 131.97,760.757 h 3.041 v -12.424 h -3.041 z"
           id="path3664"
           style="fill:#62a53a;fill-opacity:1;fill-rule:nonzero;stroke:none"
           inkscape:connector-curvature="0" />
        <g
           transform="translate(137.5087,752.2094)"
           id="g3666"
           style="fill:#62a53a;fill-opacity:1">
          <path
             d="m 0,0 c 0,0 1.405,-1.286 2.97,-1.286 0.627,0 1.301,0.243 1.301,0.989 0,1.478 -5.593,1.426 -5.593,5.249 0,2.293 1.929,3.805 4.397,3.805 2.675,0 3.999,-1.408 3.999,-1.408 L 5.785,4.865 c 0,0 -1.251,1.094 -2.742,1.094 -0.627,0 -1.324,-0.277 -1.324,-0.972 0,-1.565 5.597,-1.287 5.597,-5.213 0,-2.068 -1.583,-3.858 -4.379,-3.858 -2.92,0 -4.537,1.772 -4.537,1.772 z"
             id="path3668"
             style="fill:#62a53a;fill-opacity:1;fill-rule:nonzero;stroke:none"
             inkscape:connector-curvature="0" />
        </g>
        <g
           transform="translate(145.7408,760.7574)"
           id="g3670"
           style="fill:#62a53a;fill-opacity:1">
          <path
             d="m 0,0 h 3.039 v -4.969 h 4.52 V 0 h 3.04 v -12.424 h -3.04 v 4.865 h -4.52 v -4.865 H 0 Z"
             id="path3672"
             style="fill:#62a53a;fill-opacity:1;fill-rule:nonzero;stroke:none"
             inkscape:connector-curvature="0" />
        </g>
        <g
           transform="translate(116.6965,694.7672)"
           id="g3674"
           style="fill:#62a53a;fill-opacity:1">
          <path
             d="m 0,0 c -26.984,0 -48.857,21.874 -48.857,48.857 0,26.981 21.873,48.854 48.857,48.854 26.982,0 48.853,-21.873 48.853,-48.854 C 48.853,21.874 26.982,0 0,0 m 58.1,43.079 c 7.295,2.768 11.819,5.776 11.819,5.776 0,0 -4.455,2.96 -11.65,5.712 6.526,4.096 10.32,7.866 10.32,7.866 0,0 -4.97,2.049 -12.598,3.35 5.631,5.31 8.63,9.771 8.63,9.771 0,0 -5.246,1.036 -12.948,0.831 4.467,6.278 6.533,11.209 6.533,11.209 0,0 -5.431,-0.003 -13.04,-1.74 3.202,7.117 4.273,12.442 4.273,12.442 0,0 -5.242,-1.056 -12.275,-4.198 1.716,7.51 1.733,12.858 1.733,12.858 0,0 -4.963,-2.065 -11.277,-6.538 0.226,7.735 -0.805,13.011 -0.805,13.011 0,0 -4.44,-2.977 -9.742,-8.568 -1.283,7.597 -3.307,12.546 -3.307,12.546 0,0 -3.84,-3.843 -7.99,-10.451 -2.771,7.296 -5.779,11.82 -5.779,11.82 0,0 -2.96,-4.454 -5.712,-11.65 -4.096,6.525 -7.864,10.318 -7.864,10.318 0,0 -2.051,-4.969 -3.353,-12.597 -5.31,5.629 -9.769,8.63 -9.769,8.63 0,0 -1.036,-5.247 -0.831,-12.948 -6.278,4.466 -11.211,6.533 -11.211,6.533 0,0 0.004,-5.431 1.741,-13.039 -7.118,3.201 -12.442,4.273 -12.442,4.273 0,0 1.055,-5.242 4.198,-12.276 -7.511,1.717 -12.858,1.734 -12.858,1.734 0,0 2.064,-4.963 6.538,-11.277 -7.735,0.226 -13.01,-0.805 -13.01,-0.805 0,0 2.977,-4.442 8.568,-9.744 -7.597,-1.281 -12.547,-3.307 -12.547,-3.307 0,0 3.842,-3.838 10.45,-7.99 -7.296,-2.769 -11.82,-5.776 -11.82,-5.776 0,0 4.454,-2.962 11.651,-5.713 -6.527,-4.095 -10.32,-7.865 -10.32,-7.865 0,0 4.97,-2.051 12.598,-3.352 -5.629,-5.31 -8.629,-9.768 -8.629,-9.768 0,0 5.245,-1.037 12.947,-0.831 -4.466,-6.279 -6.533,-11.211 -6.533,-11.211 0,0 5.431,0.002 13.039,1.739 -3.201,-7.118 -4.272,-12.439 -4.272,-12.439 0,0 5.242,1.054 12.276,4.197 -1.717,-7.512 -1.734,-12.858 -1.734,-12.858 0,0 4.963,2.063 11.278,6.538 -0.227,-7.736 0.804,-13.011 0.804,-13.011 0,0 4.443,2.978 9.745,8.568 1.28,-7.598 3.306,-12.547 3.306,-12.547 0,0 3.838,3.843 7.99,10.45 2.769,-7.296 5.776,-11.818 5.776,-11.818 0,0 2.96,4.453 5.712,11.65 4.098,-6.526 7.867,-10.32 7.867,-10.32 0,0 2.049,4.97 3.35,12.598 5.31,-5.629 9.772,-8.629 9.772,-8.629 0,0 1.035,5.245 0.832,12.945 6.275,-4.466 11.207,-6.533 11.207,-6.533 0,0 -0.002,5.43 -1.739,13.042 7.118,-3.202 12.441,-4.272 12.441,-4.272 0,0 -1.055,5.24 -4.198,12.273 7.511,-1.716 12.857,-1.734 12.857,-1.734 0,0 -2.063,4.963 -6.539,11.278 7.737,-0.225 13.012,0.806 13.012,0.806 0,0 -2.977,4.441 -8.567,9.743 7.598,1.28 12.546,3.307 12.546,3.307 0,0 -3.841,3.839 -10.45,7.991"
             id="path3676"
             style="fill:#62a53a;fill-opacity:1;fill-rule:nonzero;stroke:none"
             inkscape:connector-curvature="0" />
        </g>
      </g>
    </g>
  </g>
</svg>
