<?xml version="1.0" encoding="UTF-8" standalone="no"?>
<svg
   xmlns:dc="http://purl.org/dc/elements/1.1/"
   xmlns:cc="http://creativecommons.org/ns#"
   xmlns:rdf="http://www.w3.org/1999/02/22-rdf-syntax-ns#"
   xmlns:svg="http://www.w3.org/2000/svg"
   xmlns="http://www.w3.org/2000/svg"
   xmlns:sodipodi="http://sodipodi.sourceforge.net/DTD/sodipodi-0.dtd"
   xmlns:inkscape="http://www.inkscape.org/namespaces/inkscape"
   inkscape:version="1.0beta2 (2b71d25, 2019-12-03)"
   sodipodi:docname="sdp_logo.svg"
   id="svg3974"
   preserveAspectRatio="xMidYMid meet"
   viewBox="0 0 312.1185 312.11851"
   height="312.1185pt"
   width="312.1185pt"
   version="1.0">
  <metadata
     id="metadata3980">
    <rdf:RDF>
      <cc:Work
         rdf:about="">
        <dc:format>image/svg+xml</dc:format>
        <dc:type
           rdf:resource="http://purl.org/dc/dcmitype/StillImage" />
        <dc:title></dc:title>
      </cc:Work>
    </rdf:RDF>
  </metadata>
  <defs
     id="defs3978" />
  <sodipodi:namedview
     inkscape:current-layer="svg3974"
     inkscape:window-maximized="0"
     inkscape:window-y="23"
     inkscape:window-x="0"
     inkscape:cy="102.01085"
     inkscape:cx="117.06436"
     inkscape:zoom="1.5488348"
     showgrid="false"
     id="namedview3976"
     inkscape:window-height="1172"
     inkscape:window-width="2076"
     inkscape:pageshadow="2"
     inkscape:pageopacity="0"
     guidetolerance="10"
     gridtolerance="10"
     objecttolerance="10"
     borderopacity="1"
     inkscape:document-rotation="0"
     bordercolor="#666666"
     pagecolor="#ffffff" />
  <g
     transform="translate(-45.680255,-44.332528)"
     id="g4555">
    <path
       style="fill:#ce1a21;fill-opacity:1;stroke-width:0.424106"
       d="m 252.57159,317.91066 c -9.528,-0.62409 -14.63051,-1.29993 -15.36857,-2.03561 -0.5756,-0.57374 -1.70417,-0.68557 -6.74164,-0.66804 -5.25965,0.0183 -6.1629,0.12294 -6.91192,0.8008 -1.08496,0.98187 -4.97455,1.362 -17.84157,1.74365 -10.20798,0.30278 -10.72128,0.23524 -13.67926,-1.79996 -1.98588,-1.36636 -3.28497,-3.41932 -3.28497,-5.19127 0,-1.14966 -0.12559,-1.31701 -0.82239,-1.09585 -1.292,0.41007 -1.8467,-1.19975 -2.06059,-5.98017 -0.42648,-9.53142 2.39346,-16.60579 7.70582,-19.3315 2.1019,-1.07847 5.76167,-1.14137 8.9606,-0.15402 2.87634,0.88779 5.42028,0.85561 6.26634,-0.0793 2.29371,-2.53452 2.46794,-5.78378 2.88252,-53.75465 0.20562,-23.79234 0.49302,-43.96108 0.63866,-44.81942 0.18672,-1.10041 0.43975,-1.49348 0.85805,-1.33297 0.32628,0.12521 0.59323,0.0123 0.59323,-0.25092 0,-0.26322 -0.52483,-0.68238 -1.16629,-0.93147 -0.64146,-0.24908 -2.09531,-0.93661 -3.23078,-1.52784 -2.21217,-1.15185 -1.71617,-1.13988 -11.14687,-0.26903 -5.4545,0.50368 -8.59448,-1.89566 -11.185,-8.54675 -0.82402,-2.11566 -0.99132,-3.3311 -0.99238,-7.2098 -0.002,-9.09093 3.37467,-16.32808 7.61933,-16.32808 1.16101,0 1.5436,-0.21377 1.85677,-1.03745 0.66807,-1.75718 3.67223,-1.86938 18.24522,-0.6814 11.24007,0.91627 53.42257,0.27882 53.78645,-0.81282 0.22812,-0.68437 3.73902,-0.51677 9.45821,0.4515 8.33398,1.41097 13.7651,3.57333 20.89245,8.3182 4.63068,3.08277 11.68137,9.74636 14.71486,13.907 2.60098,3.56741 5.47809,8.71349 5.47809,9.79826 0,0.50192 0.31846,1.17451 0.7077,1.49464 2.45647,2.02037 8.75003,21.7466 10.53684,33.02617 0.95051,6.00027 1.30555,21.56301 0.65885,28.87966 -1.09107,12.34417 -4.47671,27.96087 -7.70037,35.51902 -5.09947,11.95612 -15.09054,26.35998 -18.2843,26.35998 -0.91767,0 -1.15543,0.21931 -1.26439,1.16629 -0.10668,0.92715 -0.38176,1.19463 -1.34155,1.30445 -0.9634,0.11025 -1.16336,0.30638 -0.98964,0.9707 0.22207,0.8492 -1.1225,2.49605 -2.0379,2.49605 -0.25853,0 -1.75832,0.84613 -3.33287,1.8803 -4.10337,2.69511 -10.49611,4.66231 -18.65147,5.73951 -3.73874,0.49384 -16.15505,0.48451 -23.82527,-0.0179 z m 16.87656,-33.05395 c 0.28249,-1.08028 2.71863,-2.11486 4.97986,-2.11486 1.54998,0 1.70919,-0.0927 1.46737,-0.85464 -0.57916,-1.82478 3.67198,-6.35516 5.96345,-6.35516 0.70467,0 0.90547,-0.19678 0.76171,-0.74651 -0.10737,-0.41059 1.03253,-3.1511 2.53312,-6.09004 4.74882,-9.30069 5.97963,-16.77265 5.9647,-36.2102 -0.0138,-17.93608 -0.91711,-23.4448 -5.65239,-34.46928 -2.66526,-6.20516 -3.47909,-8.89229 -3.1149,-10.28495 0.17726,-0.67786 0.005,-0.83715 -0.90443,-0.83715 -1.51471,0 -3.29595,-0.78611 -7.51354,-3.3159 -5.40113,-3.23971 -8.18024,-4.08172 -13.51555,-4.09493 -3.97983,-0.01 -4.65195,0.10166 -6.32402,1.04924 -3.90717,2.21424 -4.07967,3.13274 -4.73765,25.22655 -0.8151,27.36947 0.44306,72.26699 2.15102,76.75926 0.21336,0.56119 0.79394,1.23764 1.29018,1.50322 1.70383,0.91186 6.56598,1.60958 11.49399,1.64938 4.60539,0.0372 4.94864,-0.017 5.15708,-0.81403 z"
       id="path4543"
       inkscape:connector-curvature="0"
       transform="scale(0.75000003)" />
    <path
       style="fill:#ce1a21;fill-opacity:1;stroke-width:0.424106"
       d="m 448.42125,391.26845 c -0.89451,-0.89511 -54.06541,-1.20511 -203.90767,-1.18882 -84.27498,0.009 -147.100086,-0.15335 -154.426127,-0.39947 -14.452726,-0.48556 -14.094305,-0.38502 -19.053708,-5.34442 -3.410799,-3.4108 -4.856696,-5.80458 -4.856696,-8.04057 0,-0.91329 -0.258801,-1.62502 -0.675738,-1.85835 -1.650424,-0.92363 -1.59127,-15.40526 0.08698,-21.29339 0.923894,-3.24148 3.455288,-7.92747 4.799534,-8.88466 0.617456,-0.43967 2.779114,-1.48509 4.803685,-2.32316 3.293902,-1.36352 4.295792,-1.5671 9.526335,-1.93573 10.863997,-0.76565 195.748995,-1.37772 288.571025,-0.95532 l 86.7888,0.39494 2.59152,2.28115 c 1.42533,1.25463 2.59462,2.47725 2.5984,2.71693 0.004,0.23968 1.33973,1.37164 2.96874,2.51547 1.81453,1.27408 2.96186,2.37785 2.96186,2.8494 0,0.4921 0.21806,0.68604 0.60459,0.53772 2.32232,-0.89116 4.41063,10.87095 3.56443,20.0762 -0.46157,5.02119 -1.54557,7.86805 -4.37078,11.47878 -3.76558,4.81258 -6.95915,6.74351 -10.31964,6.23957 -1.8595,-0.27885 -1.88634,-0.26578 -1.67923,0.81765 0.23698,1.23965 0.47007,1.1514 -4.97566,1.88385 -1.86607,0.25099 -3.77454,0.56606 -4.24106,0.70015 -0.46652,0.13409 -1.07833,0.0135 -1.35959,-0.26792 z"
       id="path4545"
       inkscape:connector-curvature="0"
       transform="scale(0.75000003)" />
    <path
       style="fill:#0d458d;fill-opacity:1;stroke-width:0.424106"
       d="m 114.24588,321.55625 c -5.62405,-1.02054 -11.16635,-3.36152 -17.251199,-7.28664 -4.259891,-2.74791 -6.894666,-4.03936 -8.385342,-4.11014 -1.390355,-0.066 -1.859384,0.41332 -2.251234,2.30073 -0.421077,2.02819 -3.058069,4.91802 -5.648421,6.19001 -2.193445,1.07708 -2.886012,1.20091 -6.716662,1.20091 -3.914843,0 -4.479589,-0.10666 -6.771569,-1.27882 -3.087947,-1.57923 -4.570162,-3.7785 -5.577884,-8.27631 -1.674301,-7.47298 -0.244295,-52.48499 1.792553,-56.42382 0.931774,-1.80185 4.313772,-4.52751 6.747658,-5.43814 6.913185,-2.58655 14.068496,-1.90251 17.659221,1.68822 2.902366,2.90236 4.390045,6.6532 6.125218,15.44331 1.195643,6.05694 2.366831,9.03958 4.831257,12.3037 4.145294,5.49039 12.309674,8.36863 20.980234,7.39626 10.50798,-1.17842 17.55353,-10.09076 15.94367,-20.16811 -1.29005,-8.07541 -4.93502,-10.64629 -24.59111,-17.34466 -12.384463,-4.22037 -16.341383,-5.78787 -22.212652,-8.79938 -10.572532,-5.42288 -16.586374,-12.02074 -20.540056,-22.53474 -5.211946,-13.86008 -5.512135,-27.01541 -0.935488,-40.99624 2.713405,-8.28897 6.006511,-13.93991 11.450516,-19.64899 8.819313,-9.24874 17.576974,-12.9865 30.42766,-12.9865 5.72659,0 12.58782,0.93417 16.88576,2.29902 3.63641,1.15477 7.71444,3.873 13.3309,8.88576 2.2113,1.97361 4.13517,3.51755 4.27527,3.43096 0.14009,-0.0866 0.50047,-1.26351 0.80084,-2.61539 1.02433,-4.61019 3.19551,-7.38382 7.14897,-9.13263 3.78449,-1.67406 10.36327,-0.8447 13.95854,1.75971 3.76243,2.72548 4.61814,9.00837 4.19292,30.78542 -0.27353,14.00871 -0.78998,22.37212 -1.56368,25.32249 -0.60661,2.31318 -2.83768,4.95319 -5.40435,6.39495 -2.71803,1.52678 -6.72797,1.9615 -10.76573,1.16712 -3.33053,-0.65524 -5.21953,-1.62614 -7.18201,-3.69135 -2.18854,-2.30312 -3.13975,-4.44009 -4.82915,-10.84916 -1.92929,-7.31908 -3.76608,-11.06928 -6.76323,-13.8085 -2.9264,-2.67456 -6.02335,-3.7747 -12.42913,-4.41522 -9.94902,-0.99481 -15.25182,1.20065 -18.41387,7.62368 -1.29615,2.63287 -1.39086,3.11566 -1.35199,6.89214 0.0532,5.16565 0.59103,6.76113 2.99166,8.87425 2.38842,2.10237 6.5264,3.72974 19.43943,7.64507 20.65416,6.26249 30.79442,11.32009 38.0268,18.9664 8.40894,8.89022 12.64026,22.65465 12.10101,39.36447 -0.40358,12.50572 -3.45742,22.46721 -9.81557,32.01788 -7.88322,11.84153 -19.33451,19.5787 -32.3317,21.84522 -4.39508,0.76644 -13.17358,0.77 -17.37806,0.007 z"
       id="path4547"
       inkscape:connector-curvature="0"
       transform="scale(0.75000003)" />
    <path
       style="fill:#0d458d;fill-opacity:1;stroke-width:0.424106"
       d="m 351.99069,318.80772 c -7.90938,-1.42525 -11.73816,-8.25063 -11.31005,-20.1619 0.20146,-5.60515 1.0834,-8.87911 3.10633,-11.53131 3.00242,-3.93637 7.03729,-4.55339 18.44966,-2.82136 l 1.51802,0.23039 0.93487,-2.56395 c 1.62856,-4.46649 1.90282,-11.79122 1.916,-51.17071 0.015,-44.83265 -0.23886,-48.45527 -3.45223,-49.26178 -0.63513,-0.1594 -3.54208,-0.0698 -6.4599,0.19904 -6.91741,0.63743 -9.81,0.0346 -12.14898,-2.53186 -3.50901,-3.8503 -5.2479,-12.65644 -3.82099,-19.35036 1.29464,-6.07344 4.89938,-11.27892 9.03062,-13.0408 2.00799,-0.85637 6.86594,-0.89936 15.45762,-0.1368 4.40127,0.39065 12.80967,0.49428 30.07157,0.37065 43.6336,-0.31251 42.61496,-0.32856 46.29399,0.72935 4.56341,1.31222 7.56973,2.72015 11.77316,5.51366 9.32548,6.19752 17.36001,17.26657 21.4885,29.60439 2.09083,6.24836 2.6394,13.31806 1.93566,24.94565 -0.8549,14.12494 -2.30449,20.10727 -6.69365,27.62402 -8.10156,13.87451 -19.42039,22.0958 -33.87144,24.60207 -2.12105,0.36786 -8.81044,0.84533 -15.05576,1.07464 -6.18134,0.22697 -11.99709,0.59148 -12.92387,0.81003 -2.9048,0.685 -3.58249,2.46502 -3.91978,10.29576 -0.20607,4.78421 -0.12701,5.72686 0.69467,8.28228 0.50996,1.58599 1.07426,3.12156 1.25399,3.41237 0.25949,0.41985 2.05485,0.37942 8.71805,-0.19635 9.71866,-0.8398 12.83204,-0.56792 15.33201,1.33891 3.34361,2.55029 5.2681,7.72796 5.25826,14.14688 -0.0131,8.56697 -3.23334,15.79069 -8.20334,18.40207 -1.53956,0.80893 -2.5933,0.94398 -8.51894,1.09187 -3.71912,0.0928 -12.76725,-0.16439 -20.10695,-0.57156 -13.72822,-0.76157 -28.30146,-0.68961 -33.99018,0.16784 -4.23305,0.63804 -10.59779,0.88594 -12.75692,0.49687 z m 67.89068,-91.21201 c 1.51618,-0.23654 4.07818,-0.82324 5.69334,-1.30378 2.52813,-0.75216 3.29916,-1.23761 5.54258,-3.4897 4.62021,-4.63807 6.30692,-9.56911 6.26238,-18.30792 -0.067,-13.14516 -4.46414,-20.25355 -13.93422,-22.526 -3.51043,-0.84237 -11.45353,-0.96335 -14.08307,-0.2145 -2.44066,0.69506 -3.29416,1.64886 -3.86742,4.32189 -1.77156,8.2605 -1.4946,33.81534 0.43055,39.72599 0.32821,1.00769 0.80699,1.47841 1.79441,1.7642 1.84853,0.53503 8.81368,0.55211 12.16145,0.0298 z"
       id="path4549"
       inkscape:connector-curvature="0"
       transform="scale(0.75000003)" />
  </g>
</svg>
