<?xml version="1.0" encoding="UTF-8" standalone="no"?>
<!-- Created with Inkscape (http://www.inkscape.org/) -->

<svg
   xmlns:dc="http://purl.org/dc/elements/1.1/"
   xmlns:cc="http://creativecommons.org/ns#"
   xmlns:rdf="http://www.w3.org/1999/02/22-rdf-syntax-ns#"
   xmlns:svg="http://www.w3.org/2000/svg"
   xmlns="http://www.w3.org/2000/svg"
   xmlns:sodipodi="http://sodipodi.sourceforge.net/DTD/sodipodi-0.dtd"
   xmlns:inkscape="http://www.inkscape.org/namespaces/inkscape"
   width="316.227766017"
   height="316.227766017"
   viewBox="0 0 500 500"
   id="svg2"
   version="1.1"
   inkscape:version="0.91 r13725"
   sodipodi:docname="SF.svg">
  <defs
     id="defs4" />
  <sodipodi:namedview
     id="base"
     pagecolor="#ffffff"
     bordercolor="#666666"
     borderopacity="1.0"
     inkscape:pageopacity="0.0"
     inkscape:pageshadow="2"
     inkscape:zoom="0.75306771"
     inkscape:cx="243.93343"
     inkscape:cy="-119.34492"
     inkscape:document-units="px"
     inkscape:current-layer="layer1"
     showgrid="false"
     units="px"
     inkscape:window-width="3200"
     inkscape:window-height="1764"
     inkscape:window-x="0"
     inkscape:window-y="36"
     inkscape:window-maximized="1" />
  <metadata
     id="metadata7">
    <rdf:RDF>
      <cc:Work
         rdf:about="">
        <dc:format>image/svg+xml</dc:format>
        <dc:type
           rdf:resource="http://purl.org/dc/dcmitype/StillImage" />
        <dc:title></dc:title>
      </cc:Work>
    </rdf:RDF>
  </metadata>
  <g
     inkscape:label="Layer 1"
     inkscape:groupmode="layer"
     id="layer1"
     transform="translate(0,-552.36222)">
    <path
       inkscape:connector-curvature="0"
       id="path4149"
       d="m 90.589291,1047.3905 c 0,-0.31 0.241778,-1.0043 0.537313,-1.5569 0.44937,-0.8414 0.364526,-1.0043 -0.519069,-1.0043 -2.424365,0 -0.384603,-2.3939 2.463669,-2.8908 1.061261,-0.1859 2.791671,-1.0122 3.845369,-1.8368 1.05369,-0.8236 2.481683,-1.5002 3.173307,-1.5002 0.80522,0 2.17162,-0.9025 3.79941,-2.5028 1.39807,-1.3754 3.00623,-2.6241 3.5737,-2.7747 1.56064,-0.4162 8.85041,-5.2642 8.22527,-5.4723 -0.29996,-0.1063 -2.31367,0.5314 -4.4749,1.3913 -2.16126,0.8679 -4.38752,1.5738 -4.94728,1.5738 -0.5598,0 -1.31287,0.3542 -1.67357,0.7882 -0.3786,0.4517 -1.06361,0.6642 -1.62053,0.4871 -0.53059,-0.1683 -0.96473,-0.097 -0.96473,0.248 0,0.3099 -0.31414,0.5491 -0.69806,0.5491 -0.38392,0 -1.12077,0.4693 -1.637434,1.0388 -0.516677,0.5668 -1.595182,1.038 -2.396723,1.038 -0.801586,0 -2.633737,0.4694 -4.071534,1.0308 -2.167097,0.8591 -2.614217,0.9025 -2.614217,0.2657 0,-0.4162 0.71072,-1.1256 1.579294,-1.5746 0.86854,-0.4428 1.79701,-1.3896 2.063142,-2.0892 0.279594,-0.7351 0.900759,-1.2727 1.47115,-1.2727 0.543069,0 1.278029,-0.3542 1.633397,-0.7793 0.355404,-0.4251 1.067638,-0.7794 1.582873,-0.7794 0.51526,0 1.396052,-0.5845 1.957392,-1.2966 0.5614,-0.7173 1.45409,-1.3001 1.98392,-1.3018 0.52987,-9e-4 1.66394,-0.4694 2.52029,-1.0345 0.8564,-0.5668 2.12247,-1.0326 2.81362,-1.0344 0.69115,0 1.65251,-0.3631 2.13638,-0.797 0.48391,-0.434 2.28571,-1.0221 4.0041,-1.2993 3.46954,-0.5579 6.40676,-1.641 7.25641,-2.6746 0.51057,-0.6199 0.84808,-2.7543 0.71187,-4.4972 -0.0337,-0.4163 -0.38463,-0.5757 -0.88164,-0.3897 -2.74102,1.0513 -3.32528,0.9795 -3.32528,-0.4074 0,-0.859 -0.28544,-1.3532 -0.77847,-1.3532 -0.42812,0 -0.77848,-0.3543 -0.77848,-0.7794 0,-0.4251 -0.23354,-0.7793 -0.51906,-0.7793 -0.28544,0 -0.51907,0.7705 -0.51907,1.7128 0,1.7535 -0.76076,2.9589 -1.86814,2.9589 -0.34238,0 -1.83723,0.8148 -3.32184,1.8155 -2.65776,1.789 -4.67099,2.3381 -4.67099,1.2744 0,-0.3365 -0.67068,-0.4162 -1.75705,-0.2125 -1.00933,0.186 -1.89701,0.1063 -2.08592,-0.2037 -0.19493,-0.3188 -0.85499,0 -1.62078,0.7616 -0.710633,0.7085 -1.541462,1.1381 -1.846465,0.9485 -0.305011,-0.1859 -2.391383,0 -4.636433,0.3189 -3.280708,0.5314 -4.236358,0.5402 -4.868772,0 -0.65179,-0.5403 -0.990966,-0.434 -1.976433,0.6199 -0.654305,0.7085 -1.594568,1.8731 -2.08959,2.5976 -0.495033,0.7262 -1.629447,1.4772 -2.521009,1.6729 -0.891541,0.1949 -2.445909,0.9114 -3.454151,1.6004 -2.16064,1.4657 -2.177749,1.4675 -4.094222,0.4694 -1.995961,-1.0407 -4.147941,-0.9636 -6.806301,0.2391 -2.338053,1.061 -2.646425,0.9024 -1.408302,-0.7351 0.420427,-0.5579 0.635326,-1.4179 0.47755,-1.9147 -0.465798,-1.4666 1.42984,-2.1557 4.019158,-1.4578 1.905638,0.5137 2.260152,0.4783 2.854767,-0.3454 0.589184,-0.8059 0.472794,-1.1416 -0.880469,-2.5382 -0.857672,-0.8856 -1.559429,-1.8953 -1.559429,-2.246 0,-1.0114 2.566602,-1.7163 4.946326,-1.3603 2.475401,0.372 4.852809,-0.5757 6.180631,-2.4771 1.171501,-1.673 1.074828,-2.6604 -0.193883,-1.982 -1.464869,0.7793 -3.667105,0.673 -3.667105,-0.186 0,-0.8768 4.331991,-3.6798 6.446514,-4.1749 0.833858,-0.1948 2.09146,-0.8059 2.794738,-1.3612 1.746082,-1.3736 3.39565,-1.355 2.955208,0 -0.233807,0.7351 -0.09317,1.0379 0.484086,1.0379 0.447422,0 0.816996,-0.4073 0.821424,-0.9113 0.01948,-2.2265 0.808848,-2.4868 3.589183,-1.1841 3.042641,1.425 3.930116,1.162 1.622734,-0.4871 -1.918854,-1.3665 -1.992052,-1.9687 -0.316524,-2.6055 0.698675,-0.2745 1.667574,-1.0893 2.153068,-1.8297 1.120381,-1.7102 3.307101,-2.84821 5.503521,-2.86411 0.94189,0 3.11382,-0.6111 4.82651,-1.3444 1.7127,-0.7351 4.33967,-1.8359 5.83771,-2.45323 4.44237,-1.82706 3.27341,-2.69232 -1.27725,-0.94497 -1.36646,0.52253 -3.41139,0.88564 -4.5443,0.79707 -1.45887,-0.11513 -3.20022,0.35425 -5.96848,1.58533 -2.14976,0.9556 -4.991099,1.8908 -6.31411,2.0768 -1.38054,0.1948 -2.796914,0.7705 -3.324184,1.35231 -1.033683,1.1425 -2.331762,1.3099 -3.225391,0.4163 -0.452886,-0.4606 -0.972536,-0.1949 -2.128534,1.037 -1.04741,1.1221 -2.011777,1.6376 -3.060302,1.6376 -0.84205,0 -2.663487,0.6022 -4.047671,1.3382 -1.397095,0.7439 -3.039063,1.2381 -3.690912,1.1141 -0.768738,-0.1506 -1.570593,0.1948 -2.322045,0.9972 -0.631322,0.6731 -1.399085,1.2213 -1.706124,1.2204 -0.307101,-9e-4 -1.538412,0.5225 -2.736348,1.1522 -2.666717,1.4126 -3.419073,0.9025 -1.54684,-1.0548 0.764177,-0.797 1.389411,-1.5861 1.389411,-1.7517 0,-0.1683 -1.034537,-0.4606 -2.298972,-0.6554 -2.242419,-0.3366 -4.967005,-1.9475 -4.967005,-2.9377 0,-0.2745 0.64226,-0.735 1.427246,-1.0344 0.78498,-0.3011 1.894343,-0.9768 2.465242,-1.51 0.610431,-0.56681 2.000012,-1.03621 3.373489,-1.13271 1.908114,-0.1328 2.363812,-0.3631 2.490291,-1.2479 0.08467,-0.5933 -0.216582,-1.3922 -0.670495,-1.7686 -0.694406,-0.57562 -1.04805,-0.52249 -2.230775,0.3454 -1.848066,1.3471 -3.047246,1.7669 -4.000542,1.4011 -1.216844,-0.4694 -0.914046,-2.03518 0.518998,-2.68789 1.374342,-0.61994 1.759145,-1.6517 0.619818,-1.6517 -0.372709,0 -1.435306,0.55795 -2.361303,1.24254 -1.02542,0.75279 -2.094608,1.13449 -2.734809,0.96711 -0.814383,-0.21255 -1.013171,-0.0886 -0.882435,0.70854 0.115389,0.673 -0.118506,0.9556 -0.739503,0.9024 -0.63165,-0.097 -0.90825,0.31 -0.90825,1.1691 0,0.7882 -0.300778,1.239 -0.833317,1.239 -0.458333,0 -1.527222,0.58451 -2.375317,1.29741 -1.984563,1.6703 -3.26007,1.7288 -2.816309,0.1329 0.892658,-3.21581 0.921637,-3.50271 0.353978,-3.50271 -0.425971,0 -0.441851,-0.2746 -0.05615,-1.0034 1.019208,-1.90415 0.666589,-2.62948 -1.279228,-2.62948 -1.455911,0 -1.816493,-0.2037 -1.816493,-1.01405 0,-2.84288 2.273679,-4.69474 5.763372,-4.69474 0.801072,0 2.316895,-0.58451 3.368472,-1.29833 1.051576,-0.71737 2.28809,-1.30277 2.747784,-1.30808 0.62577,0 0.523604,-0.24798 -0.406567,-0.96711 -1.599292,-1.22926 -1.163629,-1.85629 2.027,-2.91639 1.423889,-0.46938 2.588885,-1.09907 2.588885,-1.39221 0,-0.29226 -0.326019,-0.40739 -0.724474,-0.24798 -3.255244,1.24963 -5.130799,1.54809 -6.061657,0.96711 -0.541626,-0.33654 -1.338255,-0.61108 -1.770304,-0.61108 -0.432047,0 -0.785538,-0.3454 -0.785538,-0.76165 0,-0.92991 1.739249,-1.93156 2.708877,-1.5596 0.396913,0.15056 1.195513,-0.38967 1.817221,-1.22748 0.726165,-0.98305 1.897509,-1.69864 3.392518,-2.07592 1.255872,-0.31883 2.951942,-1.10084 3.769053,-1.74293 0.971841,-0.76164 2.214172,-1.17523 3.592213,-1.18763 1.158612,0 2.340112,-0.16827 2.625557,-0.3454 0.285431,-0.17712 4.839663,-1.1894 10.120466,-2.24242 46.832863,-9.34076 88.911983,-26.56541 120.926613,-49.49885 21.96931,-15.73768 40.63404,-34.90098 52.4572,-53.85882 2.70912,-4.34491 8.46958,-15.25855 6.58172,-12.47058 -8.25557,12.19161 -13.23473,18.31752 -20.84871,25.65144 -31.13782,29.99104 -81.2896,47.91889 -140.56263,50.24633 -5.066719,0.19484 -9.212212,0.22141 -9.212212,0 0,-0.80593 4.820772,-8.13807 5.358602,-8.1425 3.96048,0 20.38686,-1.26469 28.11678,-2.10869 71.28426,-7.78294 119.47602,-34.5671 136.71883,-75.98722 2.53057,-6.07721 2.43828,-6.16046 -0.59214,-0.53138 -7.07362,13.1472 -13.82661,21.01959 -24.69479,28.78924 -13.6324,9.74372 -32.95088,15.96351 -56.41806,18.16254 -7.29426,0.68193 -29.24738,0.69079 -37.94124,0 -8.48978,-0.66423 -21.08092,-2.05113 -22.70126,-2.50457 l -1.24096,-0.3454 2.19313,-3.25558 c 1.84336,-2.73749 2.29411,-3.13425 2.82627,-2.49306 0.47134,0.56681 0.96099,0.63766 1.91564,0.28341 0.85384,-0.32769 2.96523,-0.23912 6.31753,0.24797 10.87853,1.60211 19.85886,2.08212 39.02943,2.08832 21.10513,0 25.43512,-0.37196 36.11441,-3.14487 25.42875,-6.60239 43.46711,-22.73241 49.27791,-44.06639 1.16345,-4.27141 1.54879,-11.77802 0.79167,-15.42417 -1.23487,-5.94613 -5.1153,-11.8285 -10.33009,-15.6562 -5.95914,-4.37502 -11.69412,-7.02306 -26.57051,-12.27397 -10.65464,-3.7604 -14.64288,-5.59454 -17.51821,-8.05483 -6.7797,-5.80354 -1.80473,-14.7254 10.43879,-18.72048 3.67604,-1.19915 5.36158,-1.4179 12.55029,-1.62514 12.92492,-0.37196 20.21615,1.30985 39.54022,9.12467 l 2.69134,1.08755 0.52775,-1.66498 c 2.04012,-6.4412 7.32405,-24.77821 7.32405,-25.41764 0,-0.78821 -5.94376,-3.19447 -13.6078,-5.51129 -17.7264,-5.36161 -41.36836,-4.97105 -59.59271,0.98394 -24.94327,8.15136 -41.64394,26.60615 -43.34567,47.90117 -0.62552,7.82899 1.62791,14.5961 6.62309,19.88953 5.54316,5.87439 12.45968,9.51523 28.44035,14.97072 20.32941,6.93981 24.56772,10.4292 22.1154,18.20948 -1.80531,5.72738 -7.67239,10.18033 -16.02669,12.16415 -5.67221,1.34705 -17.15213,1.47281 -23.99416,0.25683 -8.87254,-1.57022 -19.18236,-5.57771 -28.93874,-11.24929 -3.11945,-1.81378 -3.44735,-2.15297 -2.96185,-3.05986 0.42847,-0.79707 0.36559,-1.08933 -0.29217,-1.34173 -0.69203,-0.26569 -0.52571,-0.64652 0.95455,-2.19814 1.09012,-1.1407 1.92745,-2.6383 2.1367,-3.82239 0.27003,-1.52771 0.5901,-1.9599 1.4883,-2.00773 2.00935,-0.11513 2.56784,0.11513 4.96355,1.93954 l 2.34755,1.79252 1.18654,-1.18675 c 1.14488,-1.14424 1.16002,-1.27443 0.43059,-3.6984 -0.67281,-2.23534 -0.66653,-2.68524 0.0576,-4.08631 0.74464,-1.43915 0.73897,-1.77037 -0.0673,-3.87906 -1.05399,-2.76052 -2.64265,-3.5939 -5.22232,-2.74281 -0.98802,0.32769 -2.9819,0.42511 -4.72599,0.23027 -2.44524,-0.26569 -3.90199,-0.0886 -7.68789,1.0725 -5.91022,1.77923 -9.8915,1.9599 -10.96485,0.50481 -0.41926,-0.56681 -0.64412,-1.49318 -0.49967,-2.04847 0.14445,-0.55795 0.0124,-1.31339 -0.29598,-1.68358 -0.30722,-0.37197 -0.43263,-1.15487 -0.27862,-1.74381 0.17819,-0.68194 0.0585,-0.99722 -0.32804,-0.86792 -0.33432,0.11513 -0.84152,1.28151 -1.1269,2.60021 -0.69522,3.21396 -1.32991,3.78697 -2.84122,2.56214 l -1.19091,-0.96357 1.46188,-2.20965 c 1.33817,-2.0219 1.42009,-2.41424 0.96789,-4.63452 -0.7294,-3.58415 -0.44228,-4.4193 1.39152,-4.05265 1.16152,0.23027 1.50833,0.11514 1.50833,-0.53138 0,-0.64651 0.15393,-0.69965 0.73224,-0.2214 1.14235,0.94762 1.50534,-0.23027 0.57983,-1.89348 -0.44353,-0.78822 -1.0953,-1.86337 -1.44847,-2.37793 -0.53306,-0.7705 -0.4879,-1.02467 0.26604,-1.45332 1.49201,-0.85021 1.03183,-1.49229 -0.64872,-0.90246 -1.74206,0.60223 -1.82649,0.92106 -0.92346,3.41766 0.72887,2.01481 0.14391,2.71092 -2.28961,2.72597 -1.93415,0 -2.2966,-0.88563 -0.94269,-2.32478 0.91275,-0.97066 1.06832,-1.55606 0.77245,-2.9031 -0.30519,-1.38868 -0.45584,-1.53303 -0.8549,-0.81479 -0.26649,0.47825 -1.1808,1.22572 -2.03193,1.66676 -0.96624,0.50481 -2.04841,1.81466 -2.881,3.50268 -0.73339,1.48697 -2.16937,3.34946 -3.19105,4.13767 l -1.85757,1.43472 -1.36227,-1.30542 c -0.74933,-0.71736 -1.59108,-1.30453 -1.87071,-1.30453 -0.27968,0 -0.96622,-0.76165 -1.5257,-1.68713 -0.94878,-1.57288 -1.02858,-1.60742 -1.18599,-0.52252 -0.20068,1.38867 -1.9573,1.58351 -3.5006,0.38967 -0.98087,-0.76164 -0.96734,-0.80592 0.51305,-2.04049 1.24187,-1.02822 1.40504,-1.3993 0.89032,-2.01836 -0.97849,-1.17966 0.44291,-2.22116 3.53001,-2.58604 3.1778,-0.37197 3.66058,-0.63766 3.66058,-1.94751 0,-0.66422 -0.35647,-1.00696 -1.038,-1.00696 -1.40356,0 -1.31749,-1.27354 0.12974,-1.92005 l 1.16775,-0.52252 -1.27453,-0.39854 c -0.88315,-0.27454 -1.34432,-0.19484 -1.50178,0.2834 -0.36691,1.10084 -2.81877,3.15197 -3.24256,2.71269 -0.21379,-0.2214 -0.46504,-1.08401 -0.55839,-1.91916 -0.0933,-0.84135 -0.40509,-1.59325 -0.69274,-1.68801 -0.67423,-0.22141 -1.90306,1.74115 -2.30242,3.67625 -0.41749,2.02279 -1.95318,2.36287 -6.767517,1.50204 -2.179088,-0.38968 -2.346827,-0.54024 -2.638625,-2.33542 -0.496042,-3.05454 -2.167195,-4.56897 -2.718022,-2.46294 -0.246914,0.94497 -0.405974,0.99014 -1.373863,0.38968 -0.915079,-0.5668 -1.170673,-0.55795 -1.558217,0.0886 -0.373913,0.60223 -0.614486,0.61995 -1.243169,0.10628 -0.428699,-0.35425 -1.205576,-0.57566 -1.726285,-0.4871 -1.632302,0.2834 -1.429359,-1.80315 0.328498,-3.36983 0.941462,-0.84135 1.579236,-1.91739 1.579236,-2.67018 0,-1.95813 0.720453,-1.9599 2.614561,0 1.989174,2.0529 3.054421,2.23711 4.39192,0.76164 0.92289,-1.02024 0.906515,-1.03796 -0.939302,-1.03796 -1.353909,0 -2.035439,-0.29225 -2.439933,-1.04947 -0.65953,-1.23103 -0.198825,-2.25393 0.836745,-1.85628 0.399331,0.15941 0.726041,0.0974 0.726041,-0.22141 0,-0.2834 -0.450167,-0.50481 -1.00033,-0.50481 -1.248095,0 -3.378438,-2.57631 -2.695315,-3.25913 0.302089,-0.30111 1.204787,-0.24797 2.38514,0.1417 1.044479,0.3454 2.030355,0.49596 2.190849,0.33654 0.331227,-0.33654 -1.507469,-1.15398 -3.543068,-1.58616 -0.777319,-0.16827 -1.482778,-0.74393 -1.638162,-1.33288 -0.18058,-0.69079 -0.707053,-1.04416 -1.555453,-1.04416 -1.245654,0 -2.874422,-1.30365 -2.32075,-1.85717 0.151177,-0.15056 0.826693,-0.30997 1.501199,-0.33654 0.674497,0 1.489942,-0.25683 1.812033,-0.50481 0.324593,-0.23912 1.192186,-0.2037 1.94624,0.0974 1.312878,0.50481 1.948319,-0.0974 0.841704,-0.75279 -1.007557,-0.61994 -0.500824,-1.29656 0.974452,-1.29656 0.821424,0 1.784168,0.35425 2.139528,0.77935 0.355404,0.42511 1.388219,0.77936 2.295248,0.77936 1.959107,0 2.894747,0.79707 2.894747,2.46471 0,1.00962 0.15675,1.13273 0.90828,0.71736 1.4138,-0.78821 1.22378,-3.14222 -0.28446,-3.52127 -1.69042,-0.4251 -3.328475,-3.15196 -2.652083,-4.41487 0.279417,-0.52253 1.017363,-0.9494 1.640033,-0.9494 1.11936,0 4.73786,1.14601 7.01186,2.22205 0.98867,0.46939 1.40287,0.33654 2.6234,-0.84135 1.82944,-1.75267 2.2557,-1.73761 4.40628,0.15056 2.20716,1.93776 3.97471,2.6135 6.83856,2.6135 2.65101,0 3.90116,-0.39854 3.90116,-1.2328 0,-0.39854 -1.11972,-0.59338 -3.24375,-0.59338 -2.70124,0 -3.58939,-0.23026 -5.31046,-1.41701 -1.13669,-0.77935 -2.4434,-1.42852 -2.90381,-1.42852 -0.46044,0 -1.25978,-0.46939 -1.77644,-1.03708 -0.51668,-0.5668 -1.24529,-1.03796 -1.61917,-1.03796 -0.60116,0 -1.75432,-1.51266 -1.75432,-2.30175 0,-0.15942 0.49427,-0.29226 1.09853,-0.29226 0.89405,0 1.03519,-0.21255 0.75828,-1.16815 -0.85623,-2.93764 -0.87359,-4.44322 -0.0735,-6.35884 0.49241,-1.17789 0.71692,-2.62058 0.53607,-3.44422 -0.25223,-1.14778 -0.0478,-1.58971 1.08301,-2.3301 2.58775,-1.6951 9.5723,-2.58959 9.5723,-1.22571 0,0.85906 1.55664,0.93168 3.97185,0.20369 1.41205,-0.4251 3.08483,-0.60223 3.81313,-0.39853 1.56627,0.4251 7.05507,0.38968 7.78331,-0.0974 1.13958,-0.70851 0.50481,-1.81732 -1.03633,-1.81732 -0.85641,0 -1.58068,-0.17713 -1.60966,-0.38968 -0.39871,-2.94827 -0.30297,-4.29088 0.34407,-4.82758 0.41067,-0.34539 0.74668,-0.90246 0.74668,-1.24608 0,-0.3454 0.5018,-0.60223 1.11522,-0.58452 0.61339,0 1.2167,-0.24797 1.34074,-0.60223 0.12399,-0.35425 -0.13045,-0.65537 -0.56565,-0.65537 -1.3991,0 -1.51352,-1.07781 -0.25799,-2.43194 l 1.22213,-1.31694 -2.73859,0.37197 c -2.10431,0.27455 -3.03112,0.17713 -4.00147,-0.46053 -1.03835,-0.68193 -1.50604,-0.71736 -2.63093,-0.20369 -1.15968,0.53138 -1.44273,0.49595 -1.85822,-0.24798 -0.41058,-0.73508 -0.66626,-0.7705 -1.575,-0.23026 -0.86269,0.51366 -1.13297,0.50481 -1.31981,0 -0.39127,-1.08048 -1.30647,-0.74394 -3.32513,1.22925 -1.66026,1.62159 -2.32254,1.90588 -4.84762,2.08035 -1.60855,0.11513 -3.3805,0 -3.93765,-0.33654 -1.06613,-0.5668 -1.3935,-2.80391 -0.49259,-3.36097 0.34699,-0.21255 0.34407,-0.64651 -0.009,-1.30985 -0.43192,-0.80593 -0.28127,-1.15221 0.82072,-1.874 0.993,-0.65537 1.28768,-1.20977 1.11457,-2.11577 -0.18155,-0.94851 0.0995,-1.40373 1.22809,-1.98648 1.95837,-1.01316 4.62894,-1.00076 4.62894,0 0,0.42511 0.37631,0.77936 0.83631,0.77936 0.66918,0 0.77041,0.35425 0.50675,1.75532 -0.29429,1.56846 0.20751,2.39564 1.45275,2.39564 0.0629,0 0.0902,-1.1469 0.0576,-2.54974 -0.062,-2.73129 -0.80238,-4.03405 -2.70275,-4.75673 -0.86748,-0.32768 -1.18908,-0.86792 -1.18908,-1.97938 0,-0.8325 0.2749,-1.61717 0.61091,-1.72964 0.91368,-0.30997 -0.001,-1.44004 -1.16054,-1.44004 -0.55405,0 -1.00736,-0.32768 -1.00736,-0.71736 0,-0.38968 -0.35036,-1.00608 -0.77847,-1.36122 -0.9469,-0.77935 -1.04152,-4.4441 -0.12975,-5.01622 0.35682,-0.22141 1.05747,-0.34539 1.557,-0.25683 0.4995,0.0886 0.90829,-0.10628 0.90829,-0.39854 0,-0.30997 -0.35035,-0.54909 -0.77847,-0.54909 -0.42811,0 -0.77847,-0.31882 -0.77847,-0.69965 0,-1.03176 1.73334,-2.416 3.02511,-2.416 0.62676,0 1.12688,-0.32768 1.12688,-0.73507 0,-0.4074 0.1417,-1.10616 0.31502,-1.55695 0.53563,-1.39575 -1.61876,-0.96711 -2.39103,0.46939 -0.38188,0.71736 -0.97693,1.29834 -1.32223,1.29834 -0.34531,0 -0.92177,0.7085 -1.28098,1.57642 -0.77129,1.8616 -1.91912,2.57542 -4.14461,2.57542 -1.45846,0 -1.58499,-0.12399 -1.22738,-1.16726 0.49613,-1.45333 0.48161,-2.96776 -0.0399,-4.15273 -0.33884,-0.7705 -0.1185,-0.91132 1.44264,-0.91132 1.31565,0 2.07361,-0.32768 2.6504,-1.15309 0.75969,-1.08401 0.73047,-1.19295 -0.48958,-1.83326 -1.47476,-0.7705 -1.68744,-1.93333 -0.47815,-2.60996 0.6977,-0.38967 0.62065,-0.58451 -0.51907,-1.33553 -1.71346,-1.12209 -1.75156,-2.4098 -0.0717,-2.4098 0.69681,0 1.41121,-0.23027 1.58763,-0.52253 0.17641,-0.29225 -0.1789,-0.52252 -0.78963,-0.52252 -0.81585,0 -1.32942,-0.55795 -1.93603,-2.1016 -0.70169,-1.78632 -1.02657,-2.07858 -2.164,-1.94662 -1.25792,0.15055 -1.32774,0.30997 -1.16183,2.62058 0.18757,2.6197 0.0691,2.77292 -1.50812,1.92802 -0.83692,-0.44281 -1.00388,-0.36311 -1.00388,0.50481 0,0.56681 -0.46478,1.28683 -1.03274,1.5906 -0.88005,0.47824 -0.93774,0.7085 -0.3902,1.58174 0.52278,0.84135 0.49382,1.2939 -0.15481,2.44965 -0.43866,0.77936 -1.11939,1.42056 -1.51283,1.42056 -1.16139,0 -1.19666,1.14158 -0.0443,1.44181 1.4711,0.38082 1.32312,1.73495 -0.30731,2.80302 -1.34358,0.88563 -1.38707,0.86792 -2.59242,-0.63765 -0.67432,-0.84135 -1.227086,-1.69156 -1.228503,-1.8864 -0.0014,-0.19484 0.698143,-2.25393 1.554433,-4.57606 0.85641,-2.32301 1.557,-4.66728 1.557,-5.21017 0,-0.54024 0.70062,-1.50469 1.557,-2.13792 1.84805,-1.36653 2.00109,-2.37792 0.39455,-2.60641 -1.39272,-0.19484 -1.95017,-1.98293 -0.61959,-1.98293 1.07132,0 2.26175,-1.44978 2.28451,-2.78354 0.0159,-0.88564 3.9201,-4.92943 4.80654,-4.97991 0.20821,0 1.37363,1.05921 2.58982,2.37792 1.55342,1.68536 2.16315,2.76583 2.04955,3.63286 -0.18873,1.44004 0.31307,1.59503 1.20755,0.37197 0.76102,-1.04062 2.33799,-0.58452 2.33799,0.67308 0,0.83249 -2.87941,3.82504 -3.68938,3.82504 -0.5653,0 -2.01959,-1.54277 -2.01959,-2.14323 0,-0.27454 -0.23354,-0.37196 -0.51907,-0.19484 -0.78503,0.4871 -0.62898,1.18764 0.51907,2.33542 1.41012,1.41081 4.43676,1.40815 5.19249,-0.004 0.4135,-0.7705 0.88298,-0.96091 1.8131,-0.72622 1.20541,0.30997 1.23539,0.23912 0.75775,-1.42055 -1.28334,-4.47422 0.36807,-5.70702 4.44468,-3.31847 1.3445,0.78822 2.85856,1.28948 3.51153,1.16372 l 1.14792,-0.2214 -1.13832,-0.0886 c -1.96936,-0.12399 -3.77943,-3.70371 -1.87187,-3.70371 0.6381,0 0.72525,-0.15941 0.3152,-0.56681 -0.41014,-0.40739 -0.86039,-0.40739 -1.62668,0 -1.46694,0.77936 -1.51843,0.76165 -2.43217,-1.00342 -0.71842,-1.38867 -0.72374,-1.69598 -0.0469,-2.66309 0.42112,-0.60223 1.68427,-1.50469 2.80697,-2.00684 1.97039,-0.88564 2.07051,-0.88564 2.88239,0.0886 0.46257,0.54024 1.20301,0.98217 1.64533,0.98217 0.44237,0 1.74365,0.48709 2.89177,1.06541 1.58024,0.80593 2.61756,0.98482 4.26859,0.73508 1.58348,-0.23027 2.91839,0 4.87215,0.73507 2.15309,0.85021 2.99982,0.95205 4.23555,0.52252 1.18704,-0.40739 1.82369,-0.36311 2.75089,0.22141 0.66351,0.41625 2.07586,0.9122 3.13852,1.09641 1.06269,0.18599 2.13069,0.69965 2.37335,1.12653 0.367,0.66422 0.67361,0.68193 1.82333,0.15941 0.76014,-0.3454 1.74797,-1.18763 2.19509,-1.87045 l 0.81301,-1.24166 1.56962,1.32136 c 0.86323,0.72622 2.07718,1.32491 2.69755,1.32845 0.62038,0.004 1.47605,0.22141 1.90153,0.49595 0.67769,0.42511 0.66148,0.68194 -0.12974,2.01747 -0.49693,0.84135 -0.90336,1.66853 -0.90336,1.83858 0,0.52252 1.99421,0.34539 2.33549,-0.21256 0.54847,-0.88563 1.8165,-0.5668 1.8165,0.45168 0,0.54023 -0.35036,1.81377 -0.77847,2.83845 -0.98967,2.36906 -1.00155,2.31415 0.44485,2.03784 1.03356,-0.19484 1.27511,0 1.55698,1.43472 0.1836,0.92106 0.33362,2.74103 0.33362,4.05442 0,2.30707 0.0266,2.34781 0.80787,1.2328 0.96039,-1.37184 2.30607,-1.52151 2.30607,-0.25683 0,1.34085 2.19376,-1.0539 3.84321,-4.19524 1.0147,-1.93245 1.201,-2.74989 0.79805,-3.50267 -0.7334,-1.37096 0.25975,-3.05898 1.79928,-3.05898 0.66768,0 2.15807,0.33654 3.31196,0.74393 1.15388,0.4074 3.18172,0.90246 4.50628,1.10173 1.71493,0.25683 2.64113,0.71736 3.21696,1.59502 0.44476,0.68194 1.13209,1.23369 1.52743,1.23369 0.39543,0 0.71878,0.33654 0.71878,0.75279 0,0.40739 0.48745,1.09021 1.08323,1.50823 1.12166,0.77935 2.4098,0.61108 5.25913,-0.71736 1.11597,-0.52253 1.57249,-0.52253 2.17829,0 0.52873,0.43396 1.66147,0.52252 3.6523,0.27454 3.25633,-0.40739 4.4986,0.18598 4.04422,1.92094 -0.18439,0.7085 0.0301,1.25937 0.61144,1.58528 0.49223,0.27454 1.33633,1.53037 1.87574,2.78885 0.96998,2.26279 1.68031,2.79683 2.32818,1.74824 0.18368,-0.30111 0.72285,-0.4251 1.19838,-0.30111 0.47549,0.13284 1.39005,0.38967 2.0323,0.57566 1.44814,0.41624 1.57265,-0.57566 0.12975,-1.03176 -0.57097,-0.17713 -1.038,-0.66423 -1.038,-1.07339 0,-0.40739 -0.27366,-0.74393 -0.60798,-0.74393 -0.33433,0 -1.60145,-1.03619 -2.81571,-2.30353 -1.84865,-1.92891 -2.08743,-2.40361 -1.46803,-2.91816 0.40686,-0.33654 0.73968,-0.97242 0.73968,-1.40992 0,-0.64651 0.19139,-0.61995 1.08488,0.18598 0.59674,0.54023 1.8228,1.01936 2.72473,1.06541 0.90197,0.0886 2.69084,0.31883 3.97536,0.61109 1.28452,0.29226 2.44059,0.41625 2.56905,0.30112 0.54856,-0.5491 -3.61375,-3.96232 -5.22397,-4.29001 -1.2781,-0.25683 -1.80173,-0.67308 -1.92242,-1.50557 -0.20591,-1.42587 0.63704,-1.46572 2.35973,-0.11513 1.73301,1.36299 2.85585,1.34527 2.64295,0 -0.12054,-0.78821 -0.93781,-1.35236 -3.0004,-2.07592 -3.50297,-1.22926 -3.13103,-1.25052 -5.43267,0.31882 -2.06487,1.40107 -2.94336,1.34085 -2.54693,-0.17712 0.13585,-0.52253 -0.11974,-1.24786 -0.56769,-1.62071 -0.44805,-0.37196 -0.81461,-0.98836 -0.81461,-1.37184 0,-0.81478 1.59959,-1.77304 2.95013,-1.76684 0.51827,0.003 2.03903,-0.51366 3.37943,-1.14689 2.27222,-1.07339 2.43022,-1.2762 2.3355,-2.98901 -0.0735,-1.32933 0.0972,-1.79518 0.61817,-1.68447 0.39597,0.0886 1.29056,-0.38082 1.98809,-1.03708 1.22664,-1.15309 1.29153,-1.16017 1.97838,-0.2214 0.51535,0.7085 1.07346,0.88563 2.03418,0.63765 1.52751,-0.38082 1.61566,-0.84135 0.55857,-2.88273 -0.72391,-1.40019 -0.69673,-1.52506 0.50074,-2.30973 1.68523,-1.10438 2.34064,-1.04593 2.34064,0.2037 0,1.23014 0.18971,1.26645 1.705,0.31882 1.2118,-0.75278 5.70737,-1.52948 8.53564,-1.46926 1.51964,0 1.73605,-0.15941 2.30409,-2.05732 0.70771,-2.36198 1.64774,-2.9651 3.15517,-2.02367 0.68495,0.4251 1.20395,0.46938 1.54787,0.13284 0.34398,-0.34539 -0.002,-0.78821 -1.03322,-1.3187 -1.44833,-0.75279 -2.17773,-2.07504 -2.1945,-3.98889 -0.003,-0.44282 0.9216,-1.49495 2.05663,-2.33452 1.54306,-1.14158 2.06683,-1.89526 2.07601,-2.98458 0.007,-0.79707 0.23185,-1.32225 0.50011,-1.15664 0.26835,0.16827 0.79388,-0.0886 1.16775,-0.52252 0.37392,-0.46053 1.05962,-1.18852 1.52378,-1.62957 0.46416,-0.43396 0.72879,-1.24165 0.58824,-1.77923 -0.3221,-1.23191 0.67016,-1.28151 1.3962,-0.0886 0.51252,0.85906 0.59001,0.8502 1.32328,-0.10628 1.03426,-1.33642 1.06549,-4.51849 0.0407,-4.12616 -0.40606,0.15942 -0.86588,0.61109 -1.02171,1.02291 -0.15587,0.40739 -0.68769,0.73507 -1.18192,0.73507 -0.69885,0 -0.76013,-0.1417 -0.27587,-0.61994 1.4517,-1.45244 0.37445,-1.31162 -3.39944,0.43396 -6.73787,3.13159 -7.47426,2.95624 -5.03835,-1.20092 0.72569,-1.23811 1.09095,-2.25127 0.81168,-2.25127 -0.50658,0 -3.69745,2.17068 -10.18703,6.92829 -1.88784,1.38425 -3.56142,2.38767 -3.71908,2.23003 -0.15755,-0.15942 -0.14471,-0.85021 0.0283,-1.54278 0.21415,-0.85906 0.793,-1.35058 1.80635,-1.55339 0.82018,-0.16827 2.2473,-0.93435 3.17135,-1.71193 l 1.68008,-1.41347 -1.32307,-0.69965 c -1.15964,-0.60223 -1.53451,-0.5668 -3.03485,0.3454 -4.17284,2.52848 -5.1894,2.66132 -4.04729,0.53138 0.82346,-1.53746 0.42023,-1.7571 -1.90739,-1.03796 -4.48526,1.38601 -5.14852,1.5162 -6.24792,1.22748 -0.6319,-0.16827 -1.44792,-0.97596 -1.81346,-1.80137 -0.70293,-1.58883 -1.44921,-1.98913 -1.44921,-0.77936 0,1.97496 -3.4361,1.19206 -3.7265,-0.85021 -0.10566,-0.74393 -0.83648,-1.48166 -2.0135,-2.03429 -1.01612,-0.47824 -2.15407,-1.23723 -2.52878,-1.6889 -0.37471,-0.45167 -1.10602,-0.81478 -1.62511,-0.81478 -1.3074,0 -1.67758,-0.80593 -0.92411,-2.01216 0.50756,-0.80592 0.49472,-1.18675 -0.0638,-1.85983 -0.93799,-1.13095 -0.002,-2.13083 1.35478,-1.44712 0.53023,0.26569 1.54785,0.31883 2.26147,0.10628 0.71365,-0.21256 0.98933,-0.40739 0.6126,-0.43396 -1.21495,-0.0886 -0.4244,-2.34339 1.0741,-3.05986 0.97652,-0.46053 1.42725,-1.07959 1.42725,-1.93865 0,-1.7872 1.89677,-2.82605 6.25984,-3.43094 3.72263,-0.52252 5.75979,-0.16827 7.68364,1.31251 0.83108,0.63765 4.36244,1.90676 4.61345,1.65613 0.0946,-0.0886 -0.86314,-0.85021 -2.12855,-1.66322 -4.58618,-2.97306 -4.48776,-2.82251 -1.7065,-2.60818 2.09819,0.15941 2.74179,0.47824 3.80425,1.82794 0.70337,0.90246 1.48443,1.50735 1.73575,1.35236 0.76368,-0.47824 -1.32395,-3.60895 -2.51903,-3.78519 -0.61463,-0.0886 -1.50931,-0.82364 -1.98815,-1.6393 -0.51402,-0.86792 -1.47429,-1.59414 -2.3442,-1.76861 -2.381,-0.46939 -1.81564,-1.50646 0.60241,-1.09818 1.87111,0.31882 2.076,0.23912 2.076,-0.73508 0,-1.19826 1.02846,-1.40284 2.66228,-0.53138 0.77085,0.40739 1.24879,0.38082 1.86189,-0.13284 1.40568,-1.16727 3.2892,-0.86792 4.45831,0.71736 1.4484,1.95813 2.70296,1.84388 7.20389,-0.66422 3.9633,-2.20346 3.02338,-2.3053 -1.28464,-0.14171 -1.36657,0.6908 -2.71282,1.10793 -2.99165,0.93523 -0.27879,-0.16827 -0.98492,-1.25051 -1.56909,-2.39475 l -1.0621,-2.08212 2.36644,0.15056 c 2.50486,0.15941 4.32123,-0.77936 2.71391,-1.3993 -0.47594,-0.18598 -0.86535,-0.7705 -0.86535,-1.31428 0,-0.54023 -0.23354,-0.98216 -0.51907,-0.98216 -0.28544,0 -0.51907,0.30997 -0.51907,0.69079 0,0.38082 -0.58469,1.00431 -1.29938,1.38601 -1.15311,0.61109 -1.43058,0.57567 -2.46525,-0.38082 -0.64119,-0.59337 -1.63295,-1.16637 -2.20385,-1.27708 -0.81168,-0.15941 -1.01014,-0.55795 -0.91024,-1.83857 0.07,-0.90246 -0.10486,-1.78101 -0.38924,-1.95725 -0.95432,-0.58451 -0.5289,-1.29656 0.7806,-1.29656 0.71364,0 1.29749,0.18598 1.29749,0.41624 0,0.33654 3.60601,0.43396 4.67099,0.13285 0.14267,0 -0.55795,-0.51367 -1.55699,-1.04682 -2.03407,-1.08844 -4.48332,-5.15526 -3.94698,-6.5519 0.24665,-0.63766 0.72135,-0.77936 1.87898,-0.54909 1.51817,0.30997 1.549,0.26569 1.549,-1.82086 l 0,-2.13172 2.1508,0.29226 c 2.40989,0.32768 3.18007,1.10881 2.77496,2.83225 -0.15101,0.63765 -0.0363,1.16726 0.25435,1.16726 0.29093,0 0.5289,-0.57566 0.5289,-1.28771 0,-0.92105 0.34956,-1.3745 1.23691,-1.59679 1.32896,-0.33654 1.33986,-0.004 -0.16261,-4.92411 -0.41642,-1.36299 -0.36293,-1.54189 0.38924,-1.30454 0.76988,0.23912 0.87527,-0.24798 0.89945,-4.25812 0.0319,-5.23913 1.11666,-8.19112 2.81258,-7.65239 0.53324,0.16738 1.44014,0.40031 2.01533,0.5119 0.57513,0.11159 1.51268,0.44635 2.08334,0.75367 1.5252,0.81832 3.74441,0.67928 4.82767,-0.30732 1.32073,-1.19551 1.24274,0 -0.12417,1.94715 -1.61833,2.27192 0.11451,2.00304 1.95555,-0.30731 1.02819,-1.28859 1.72209,-1.72397 2.40374,-1.50814 0.62349,0.19572 1.22039,-0.093 1.70851,-0.76253 0.58602,-0.83692 1.09718,-1.00192 2.3355,-0.75367 1.53951,0.30731 1.58091,0.27011 1.43296,-1.45138 -0.18669,-2.16749 0.15738,-2.76476 2.174,-3.77049 1.43356,-0.71647 1.72268,-0.69788 3.23342,0.13993 2.4861,1.38903 2.21275,2.78992 -0.63916,3.27737 -2.54538,0.4375 -3.58987,1.12015 -2.6194,1.72025 0.3423,0.21433 0.77139,0.14879 0.95347,-0.13018 0.18217,-0.27898 1.56699,-0.63235 3.07738,-0.77228 2.33343,-0.22317 2.82635,-0.11158 3.27975,0.74394 0.37896,0.70673 0.35425,1.21313 -0.085,1.74159 -0.40225,0.48356 -0.42563,0.74393 -0.0673,0.74393 0.30359,0 0.69628,-0.23292 0.8727,-0.52075 0.17642,-0.28872 0.65731,-0.52075 1.06864,-0.52075 1.0834,0 0.91815,1.89791 -0.23567,2.70543 -0.95022,0.66953 -0.95181,0.72533 -0.0469,1.84672 1.20541,1.48857 2.06805,1.47555 2.06805,0 0,-0.65094 0.46708,-2.10444 1.03799,-3.22362 1.36138,-2.67097 1.30937,-3.37434 -0.24957,-3.37434 -0.95046,0 -1.37538,-0.35337 -1.62286,-1.335 -0.53563,-2.13402 0.53421,-3.85418 2.39662,-3.85418 0.9296,0 1.70789,-0.32592 1.88316,-0.78113 0.28349,-0.73508 2.78268,-1.14344 2.78268,-0.44636 0,0.17713 -0.48311,1.10996 -1.07356,2.0645 -0.59045,0.95542 -1.19061,2.80196 -1.33368,4.10251 -0.25479,2.31752 -0.23363,2.35941 1.055,2.03562 1.84827,-0.46495 5.31308,1.24662 6.05102,2.98733 0.35054,0.82807 0.44725,2.25694 0.23664,3.50267 -0.45061,2.66744 -0.0549,2.6701 1.30197,0 1.16598,-2.28493 1.01493,-5.21823 -0.34947,-6.78491 -0.55263,-0.63234 -0.59922,-1.1732 -0.19378,-2.23932 1.25292,-3.29597 -0.22831,-4.04309 -2.0787,-1.04939 -0.82222,1.33128 -1.44902,1.80111 -2.24806,1.68757 -1.37697,-0.19572 -1.78724,-2.5368 -0.61525,-3.50993 0.44264,-0.36311 0.80478,-1.09783 0.80478,-1.62443 0,-1.27265 1.44119,-1.963 3.45711,-1.65693 1.34873,0.20458 1.8011,0.006 2.54264,-1.12661 1.3309,-2.03182 3.44184,-1.66897 3.91679,0.66954 0.1936,0.95356 0.61056,1.99276 0.92671,2.30902 0.80947,0.80947 0.71382,2.20124 -0.20379,2.96208 -0.42811,0.35337 -0.77847,1.31827 -0.77847,2.13978 0,1.24661 0.21406,1.49317 1.2975,1.49317 0.95817,0 1.29749,0.27898 1.29749,1.05408 0,0.57655 0.35036,1.18896 0.77847,1.3536 0.42812,0.16739 0.77848,0.63234 0.77848,1.04478 0,0.40916 0.60984,1.35644 1.35527,2.10258 1.27613,1.27531 1.31896,1.47901 0.73366,3.47876 -0.90411,3.08997 -1.97374,4.56632 -3.05861,4.2227 -0.5793,-0.18599 -1.32478,0.18598 -2.04371,1.01139 -0.62251,0.71736 -1.455,1.30188 -1.85012,1.30188 -0.39508,0 -0.9868,0.32768 -1.31488,0.71736 -0.92065,1.10881 1.86569,1.66322 3.03654,0.60223 1.29607,-1.17346 1.58484,-1.00519 1.58484,0.92106 0,1.99975 -1.34964,3.47699 -4.28173,4.68499 -1.50246,0.61994 -1.94624,1.09198 -1.94624,2.07592 0,0.85021 -0.65794,1.81112 -1.94624,2.86325 -1.43198,1.16903 -1.69971,1.59414 -1.01323,1.60742 0.51314,0 1.48662,-0.57566 2.16324,-1.30985 1.11148,-1.20003 1.27795,-1.24166 1.72519,-0.44282 0.41944,0.75279 0.71019,0.52253 1.90297,-1.51885 1.73862,-2.96687 4.10301,-5.01534 5.78764,-5.01534 0.74605,0 1.40595,-0.38082 1.59243,-0.91131 0.17517,-0.50481 0.81,-1.33908 1.41094,-1.86426 0.93963,-0.81478 0.95905,-0.9122 0.13869,-0.65537 -1.08469,0.35426 -2.89344,-1.4666 -2.9214,-2.93675 -0.0142,-0.69965 0.40916,-0.91132 1.81036,-0.91132 1.44582,0 1.95112,0.26569 2.41879,1.29657 0.32521,0.71736 0.78724,1.29745 1.02689,1.29745 0.71975,0 0.49135,-1.38336 -0.34283,-2.07592 -1.12431,-0.93346 -0.97447,-3.2609 0.25949,-4.0314 1.37479,-0.85906 1.30941,-1.76063 -0.23256,-3.20855 -0.69877,-0.66069 -1.42184,-1.88295 -1.60671,-2.72403 -0.18483,-0.83692 -1.00757,-2.29512 -1.82825,-3.23008 -1.35351,-1.54162 -1.46299,-1.94538 -1.17834,-4.34934 0.23797,-2.00932 0.66361,-2.96111 1.76109,-3.93884 0.96051,-0.85552 1.35863,-1.62806 1.18371,-2.29698 -0.21999,-0.84666 0.0655,-1.04947 1.727,-1.25972 1.2534,-0.15853 2.2911,0.009 2.80211,0.44636 0.48975,0.4189 1.0042,0.51189 1.29749,0.23292 0.26728,-0.26038 1.16304,-0.54909 1.99061,-0.64209 1.46215,-0.16738 1.99642,-0.71647 2.60876,-2.67496 0.2788,-0.89316 0.41979,-0.87412 2.4538,0.26038 1.1869,0.66068 2.17999,1.43277 2.20687,1.70909 0.0266,0.27897 -0.88527,0.78113 -2.0271,1.12874 l -2.07599,0.62348 1.81649,0 c 0.99906,0 2.48545,0.39057 3.30306,0.81833 2.53036,1.32021 4.04314,0.66953 2.09036,-0.89307 -2.52151,-2.0219 -6.52913,-7.19178 -6.21321,-8.01515 0.14772,-0.38171 -0.42493,-1.48857 -1.27236,-2.45418 -0.84747,-0.96516 -1.54085,-1.89923 -1.54085,-2.07601 0,-0.73507 2.30023,-0.23292 4.31908,0.94621 1.19262,0.69788 2.83932,1.38743 3.65932,1.53445 0.82,0.14879 1.88936,0.62348 2.37636,1.06896 0.48692,0.4375 1.16829,0.79972 1.514,0.79972 0.34575,0 1.55296,0.4747 2.68279,1.0485 1.75286,0.89316 2.05419,1.2932 2.05412,2.72403 -1.9e-4,3.26205 0.26941,4.53196 0.96185,4.53196 1.06835,0 4.43671,1.67366 4.90496,2.43743 0.22832,0.37197 1.04569,0.67928 1.81649,0.67928 0.77077,0.002 2.1021,0.46496 2.95846,1.03451 0.8564,0.56769 2.06171,1.03264 2.67859,1.0345 1.13604,0.003 3.80887,2.68019 3.80887,3.81424 0,0.9471 -5.23268,3.86278 -8.07655,4.49999 -1.39421,0.31617 -3.73739,1.256 -5.20708,2.097 -1.46968,0.83781 -3.06159,1.52886 -3.53756,1.52886 -1.09537,0 -6.01473,4.95334 -6.01473,6.05684 0,0.72622 -0.65581,1.60388 -4.24779,5.66893 -0.4809,0.54909 -1.70698,1.76861 -2.72473,2.72066 -1.01775,0.95117 -1.85044,1.92271 -1.85044,2.1574 0,0.95826 2.27345,-0.25683 3.0535,-1.6331 0.46142,-0.81479 1.27075,-1.61894 1.79847,-1.78898 0.52766,-0.16827 1.40353,-0.75279 1.94624,-1.29568 1.32139,-1.32136 4.18058,-1.29391 5.39825,0.0974 1.05204,1.16283 3.98711,1.38513 6.97341,0.53138 2.11522,-0.60223 2.6095,-1.26734 2.62011,-3.50268 0.007,-1.35767 0.25781,-1.74026 1.31912,-2.00595 0.72117,-0.17713 1.54681,-0.7705 1.83476,-1.30719 0.28792,-0.54024 0.86571,-0.97863 1.2838,-0.97863 0.50587,0 0.76022,-0.54909 0.76022,-1.62602 0,-1.96167 1.05806,-5.76971 1.7314,-6.23299 0.26648,-0.18598 1.76465,0.37197 3.32936,1.22802 2.27723,1.24945 3.25844,1.50531 4.91702,1.28293 1.14333,-0.14879 3.15178,0.093 4.48088,0.45521 2.89489,0.87678 2.66829,0.86792 2.66829,0.2037 0,-1.15159 3.16332,-3.61329 4.64562,-3.61329 0.82267,0 1.58295,-0.26038 1.68937,-0.57655 0.10645,-0.31617 1.46879,-0.66068 3.0275,-0.76253 4.52891,-0.29757 5.70948,-0.66954 7.03404,-2.24862 1.55254,-1.84486 3.57041,-2.41237 5.07473,-1.42622 1.81128,1.18719 4.2636,1.53232 5.48659,0.77227 0.94565,-0.58629 1.37328,-0.52075 3.13071,0.48356 1.11952,0.64208 2.33952,1.17594 2.71116,1.1871 0.37161,0 1.57759,0.79087 2.67994,1.73504 1.82919,1.5658 2.14653,1.66623 3.63299,1.14804 0.89582,-0.31617 2.20617,-0.97587 2.91194,-1.47546 1.75721,-1.24387 2.48567,-1.14716 4.08778,0.53935 0.75686,0.79973 2.14719,1.76675 3.0898,2.15005 1.15996,0.4747 1.61865,0.94709 1.41937,1.46625 -0.16694,0.4375 0.28889,1.349 1.05326,2.1133 1.08591,1.08578 1.28182,1.65347 1.00871,2.9217 -0.18643,0.86792 -0.46204,2.74191 -0.61233,4.16867 -0.15038,1.42763 -0.5792,2.94561 -0.95289,3.37337 -0.37373,0.4251 -0.75943,1.47812 -0.8572,2.33364 -0.17314,1.51443 -0.10796,1.56402 2.4945,1.88374 1.46971,0.17712 2.92939,0.48709 3.24373,0.68193 0.79911,0.49596 0.71214,2.28936 -0.24727,5.10479 -1.04765,3.07491 -0.26029,5.15437 2.1059,5.56531 1.28597,0.22141 1.69268,0.69079 2.49281,2.85882 0.5258,1.42498 1.75888,3.41942 2.74008,4.42993 0.98118,1.01139 1.78397,2.14588 1.78397,2.52051 0,0.37196 0.5839,1.37627 1.2975,2.22382 1.3552,1.61096 1.72677,3.8277 0.69885,4.17044 -1.06464,0.35425 1.10099,3.00141 2.45608,3.00141 0.82665,0 1.64287,0.61994 2.53529,1.93687 0.73011,1.07427 1.31621,1.57111 1.31621,1.11501 0,-0.45167 -0.75908,-1.8244 -1.68674,-3.051 -0.92773,-1.2266 -1.98448,-2.62855 -2.34835,-3.11565 -0.7992,-1.06984 -0.32042,-2.5949 0.81478,-2.5949 1.60274,0 4.20745,2.3115 4.96483,4.40602 1.15004,3.17941 1.42677,7.73776 0.54608,8.99447 -1.1384,1.62514 -7.05351,5.28368 -8.54319,5.28368 -0.73189,0 -2.12215,0.58452 -3.08941,1.29745 -0.96725,0.71737 -2.06655,1.29746 -2.44287,1.29746 -0.3763,0 -1.23906,1.25405 -1.91722,2.78796 -0.67813,1.53392 -1.49264,2.94916 -1.80996,3.144 -0.99708,0.61108 -0.62898,1.33465 0.68442,1.33465 0.91293,0 1.30722,0.32768 1.42725,1.16726 0.18775,1.32225 1.4245,1.5658 1.97168,0.38968 1.56669,-3.36983 1.99836,-3.91981 3.4002,-4.3396 0.84755,-0.24798 2.37277,-0.79707 3.38948,-1.20977 1.45137,-0.58452 2.62217,-0.63766 5.44949,-0.25684 3.90734,0.53138 4.37944,0.44282 4.37944,-0.7705 0,-0.61994 0.32529,-0.72621 1.42725,-0.44281 0.78502,0.19484 2.01112,0.36311 2.72473,0.36311 0.97724,-0.003 1.6436,0.55794 2.69969,2.28227 0.7713,1.25848 1.552,3.08554 1.73507,4.06151 0.37949,2.02367 0.24727,2.10249 -4.43476,2.65778 -5.21246,0.61109 -14.69184,2.3487 -22.73739,4.15361 -40.39249,9.05825 -74.09421,26.67169 -99.73662,52.12653 -14.36478,14.25956 -26.45056,31.64274 -32.92377,47.35651 -2.43439,5.90982 -2.33033,6.33847 0.29031,1.19737 13.75468,-26.9852 39.45639,-47.25289 75.64016,-59.64554 22.36009,-7.65806 50.77641,-12.39796 76.09387,-12.69287 7.5319,-0.0886 8.70905,0.002 8.04448,0.61108 -0.42812,0.38968 -2.78454,2.38235 -5.23637,4.41753 l -4.45785,3.70017 -8.51711,0.29226 c -40.51257,1.37185 -76.79979,11.25993 -101.60329,27.68929 -7.88642,5.22257 -10.86192,7.67754 -17.97944,14.83344 -9.94075,9.99259 -16.26979,19.48922 -21.25445,31.8925 -1.29798,3.2299 -2.35256,6.02406 -2.3435,6.21005 0.009,0.18598 1.40849,-2.43549 3.10987,-5.82569 4.33673,-8.64111 8.18223,-14.18871 14.08351,-20.31462 13.33582,-13.84686 30.85809,-21.72898 56.74741,-25.531 6.12953,-0.90246 40.28757,-1.54986 42.24549,-0.79707 1.19564,0.46053 1.0948,0.59337 -2.56155,3.67803 l -3.80616,3.20333 -10.93243,0 c -30.79626,0.0886 -35.21912,0.45167 -46.22428,3.9818 -11.37935,3.64969 -21.17614,9.62948 -29.58291,18.05626 -2.85449,2.8606 -6.51935,7.07443 -8.1441,9.36202 -3.58849,5.05253 -9.06313,15.5145 -11.2582,21.51288 -1.5336,4.1917 -27.04805,89.92441 -27.04805,90.88621 0,0.24798 7.90808,0.46053 17.89052,0.46053 l 17.89049,0 1.15083,-3.76305 c 0.63296,-2.06884 4.67749,-15.44011 8.98786,-29.71207 l 7.83703,-25.9499 18.40423,-0.1417 18.40424,-0.1417 3.60435,-12.83901 c 1.98238,-7.06025 3.70059,-13.12949 3.81826,-13.48551 0.16845,-0.51367 -3.66205,-0.65537 -18.00654,-0.65537 -16.36792,0 -18.22047,-0.0886 -18.22047,-0.82364 0,-0.45167 0.71258,-2.96775 1.58352,-5.57859 4.20373,-12.60343 12.81008,-20.99745 25.4186,-24.78973 3.61629,-1.08933 5.0589,-1.18143 21.35544,-1.3683 l 17.47719,-0.20369 -0.30298,1.20534 c -0.16659,0.65537 -0.73295,1.76064 -1.25846,2.44169 -0.56185,0.72622 -0.95549,2.09186 -0.95549,3.31049 l 0,2.07149 -1.94625,-0.30997 c -2.8679,-0.45167 -3.75624,0.38082 -1.21408,1.13892 3.08637,0.9308 4.19832,2.66133 4.19832,6.5528 0,3.09085 0.10017,3.3406 2.46524,6.12148 2.97239,3.49559 5.31974,7.19842 5.31974,8.39225 0,1.80846 -1.03175,2.88362 -2.76895,2.88362 -1.60721,0 -2.94005,0.75279 -2.94005,1.66056 0,0.68194 1.97077,0.46938 2.20787,-0.23027 0.17022,-0.50481 0.40854,-0.49595 1.08122,0.0886 1.22915,1.01405 1.05425,2.11046 -0.7085,4.44056 -0.86801,1.14689 -1.54255,1.68624 -1.54255,1.23102 0,-0.44281 -0.34372,-1.09198 -0.76413,-1.44092 -1.12019,-0.9308 -2.74864,0.69965 -1.81895,1.8182 0.34876,0.41625 1.02589,0.76165 1.50473,0.76165 1.47259,0 2.11625,1.13626 2.11625,3.73736 0,1.37008 0.17518,2.50988 0.38924,2.5338 0.21406,0 0.92447,0.10627 1.57869,0.17712 1.44052,0.15942 3.94537,1.94751 4.14529,2.96067 0.0797,0.39854 -0.20786,1.1956 -0.63889,1.76152 -0.60392,0.78822 -0.88466,0.87678 -1.22423,0.36311 -0.24231,-0.36311 -0.8278,-0.52252 -1.30102,-0.33654 -0.60834,0.23027 -1.12836,-0.1417 -1.77502,-1.28062 -1.41827,-2.49926 -2.55956,-2.55505 -4.80644,-0.23912 -1.06777,1.10084 -2.32215,2.30353 -2.78751,2.67106 -1.02305,0.80593 -1.11628,2.18486 -0.14808,2.18486 0.38392,0 1.13646,0.48709 1.67224,1.07693 0.62429,0.69079 1.40283,0.99456 2.16748,0.8502 0.8216,-0.15941 1.74273,0.2834 2.95701,1.38867 2.21276,2.0281 2.71276,3.8525 1.62993,5.94702 -0.90727,1.75444 -1.06829,3.75951 -0.36293,4.51938 0.50445,0.54024 2.70519,10.69578 3.03183,13.98679 0.11336,1.14158 -0.11035,4.06062 -0.49701,6.48725 -0.90215,5.66096 -0.50118,8.11505 1.61488,9.881 0.89126,0.74393 1.62045,1.60565 1.62045,1.91473 0,0.30997 -0.81735,1.54012 -1.81649,2.73572 -0.99908,1.19649 -1.8165,2.7242 -1.8165,3.3964 0,0.77935 -0.64713,1.71547 -1.81649,2.6073 -0.99908,0.76164 -1.8165,1.73584 -1.8165,2.1636 0,0.4251 -0.73427,1.61539 -1.6319,2.63652 -2.35231,2.67993 -3.39304,5.44044 -4.02101,10.66921 -0.53049,4.41753 -0.64598,4.70448 -2.8228,7.0328 -3.57744,3.82328 -4.33537,9.45501 -2.11854,15.73768 1.019,2.88805 0.92726,3.76128 -0.56424,5.37048 -0.71364,0.7705 -1.29749,1.69421 -1.29749,2.05289 0,0.36311 -0.81743,1.63222 -1.81649,2.82871 -0.99908,1.1956 -1.8165,2.60199 -1.8165,3.12451 0,0.52252 -0.55485,1.38867 -1.23296,1.92182 -0.67813,0.53138 -1.73815,1.8926 -2.35558,3.02178 -0.61737,1.12829 -1.55991,2.75254 -2.09441,3.60895 -0.83772,1.34173 -1.49546,4.03051 -1.56342,6.38983 -0.0142,0.51367 -0.59559,0.59337 -2.30385,0.33654 -2.03918,-0.30997 -2.32248,-0.22141 -2.64047,0.77936 -0.32458,1.02202 -0.45575,1.05656 -1.47849,0.38082 -0.63916,-0.41625 -1.2415,-1.49849 -1.39924,-2.49837 l -0.27693,-1.75532 -0.90411,1.68624 c -0.94491,1.76329 -1.82277,2.05024 -3.50655,1.14867 -0.55884,-0.30112 -1.00389,-0.32769 -1.00389,-0.0974 0,0.96268 1.77115,1.90056 3.68779,1.95281 2.27998,0.0974 4.61618,1.40019 4.61618,2.64273 0,1.2204 1.51886,2.73483 2.40345,2.39563 0.41191,-0.15941 1.1105,-0.98659 1.5524,-1.84122 0.58646,-1.1345 0.95832,-1.39842 1.37691,-0.97951 0.41855,0.41624 0.33662,1.06984 -0.30369,2.41157 -1.2996,2.72509 -1.12057,4.15539 0.68088,5.43778 2.75893,1.96522 2.87696,2.72332 1.22257,7.85379 -0.81567,2.52936 -1.73887,4.59908 -2.05143,4.59997 -1.11901,0 -2.41898,-2.01216 -2.16265,-3.35389 0.32237,-1.68536 -0.28349,-1.68093 -1.39261,0 -0.7155,1.09199 -1.20842,1.29922 -2.78444,1.16815 -1.49617,-0.12399 -1.88126,-0.36311 -1.76088,-1.07516 0.25258,-1.49937 -1.46036,-1.74646 -2.50588,-0.36311 -0.80637,1.06896 -4.16389,2.59136 -7.57169,3.4336 -0.80575,0.19484 -1.66364,-0.30112 -3.20304,-1.85186 -1.1564,-1.16726 -2.44258,-2.12374 -2.85817,-2.12374 -0.41563,0 -1.0416,-0.3454 -1.39109,-0.76165 -0.44397,-0.54023 -1.28427,-0.69079 -2.78828,-0.52252 -5.40586,0.61109 -5.77618,0.57566 -5.94695,-0.61994 -0.10344,-0.72622 0.5212,-1.88728 1.74712,-3.24319 1.04954,-1.16195 1.77929,-2.11311 1.62163,-2.11311 -0.59745,0 -6.76942,4.45738 -6.95883,5.02596 -0.10911,0.32768 0.29836,0.75278 0.90568,0.94585 0.78458,0.24798 0.99687,0.59338 0.73366,1.21155 -0.20379,0.47824 -0.48188,1.51266 -0.61809,2.30707 -0.15897,0.92991 -0.79113,1.72698 -1.76547,2.2309 -0.8348,0.42511 -2.33227,2.05821 -3.3278,3.61427 -0.99554,1.55694 -2.15322,2.83048 -2.57262,2.83048 -1.098,0 -0.95449,-2.21142 0.2423,-3.73294 0.86978,-1.10615 0.96369,-1.82086 0.69903,-5.31999 -0.2834,-3.748 -0.45158,-4.21207 -2.30229,-6.34998 -1.46386,-1.69156 -1.99652,-2.77292 -1.99652,-4.05443 0,-1.26379 -0.37365,-2.04138 -1.34888,-2.80745 l -1.34887,-1.06187 1.02431,-1.70041 c 0.61825,-1.02734 1.15301,-3.14223 1.349,-5.33505 0.29465,-3.29632 0.25258,-3.53987 -0.45389,-2.6259 -0.4282,0.55795 -0.77856,1.78809 -0.77856,2.7428 0,0.95294 -0.58389,2.88628 -1.29749,4.29443 -0.71364,1.40816 -1.2975,3.37249 -1.2975,4.36351 0,2.20345 -0.51003,2.55859 -4.15199,2.89779 l -2.85448,0.25683 2.28668,1.14335 c 2.58173,1.29037 3.84589,0.98217 4.82881,-1.17523 0.74535,-1.63665 2.48525,-1.70396 2.48791,-0.0974 10e-4,0.63765 0.49631,1.9785 1.10054,2.96952 0.96755,1.58705 1.02282,2.01216 0.46328,3.55936 -0.5405,1.49406 -0.49551,2.06618 0.302,3.83478 l 0.93727,2.07858 -2.43287,2.29822 c -2.12997,2.01304 -2.70846,2.2929 -4.64629,2.24862 -1.21738,0 -2.97243,0.10627 -3.90015,0.30111 -2.16356,0.44282 -2.20148,-0.3454 -0.12975,-2.70472 0.85641,-0.97508 1.557,-1.97496 1.557,-2.22205 0,-0.23912 -1.05317,-0.53138 -2.34038,-0.6288 -1.96061,-0.15941 -2.39274,0 -2.66297,0.82364 -0.17739,0.55795 -1.28457,1.91828 -2.46034,3.02089 -1.84515,1.73052 -2.35091,1.9537 -3.69477,1.63133 -2.83634,-0.68193 -11.16763,-0.5668 -11.77099,0.15942 -0.31953,0.38082 -1.68697,0.67308 -3.24269,0.67308 -2.05447,0 -3.10564,0.30997 -4.44876,1.29745 -0.96726,0.71736 -2.40792,1.29745 -3.20149,1.29745 -1.07824,0 -1.6463,0.38968 -2.24799,1.55605 -0.96897,1.87489 -1.44373,1.93511 -2.69233,0.3454 -0.52315,-0.66422 -1.22782,-1.1159 -1.56591,-1.00342 -0.33804,0.11513 -1.03635,0 -1.55172,-0.30111 -0.827,-0.43396 -0.94,-0.25684 -0.96231,1.52328 -0.0283,2.24774 -0.0407,2.23357 1.33512,1.49761 0.79246,-0.42511 1.10151,-0.30112 1.60057,0.65536 0.82036,1.55694 1.45541,1.93245 3.31759,1.95902 l 1.55698,0 -1.66677,1.41347 c -0.91676,0.7705 -2.1281,2.50722 -2.69196,3.84453 -1.23361,2.92613 -2.75946,4.00837 -7.27499,5.15792 -3.19432,0.81478 -3.4074,0.95914 -3.26655,2.22825 0.20069,1.80757 -1.05723,2.23799 -3.34718,1.14601 -1.6935,-0.80593 -1.9008,-0.79707 -3.36486,0.0974 -1.50428,0.88563 -1.5863,0.88563 -2.28897,-0.0974 -0.40075,-0.5491 -0.6048,-1.48521 -0.45327,-2.08921 0.1874,-0.74393 -0.14808,-1.49583 -1.04917,-2.3425 -1.48463,-1.39487 -1.58644,-2.14588 -0.72666,-5.35984 0.43272,-1.61894 0.44405,-2.66044 0.0407,-3.77102 l -0.55698,-1.53392 -0.0407,1.66765 c -0.0221,0.92106 -0.51109,2.92347 -1.0858,4.46004 l -1.04483,2.79151 1.08046,2.44258 c 1.27233,2.87653 1.02524,4.82138 -0.83426,6.56871 -1.49564,1.4046 -1.57736,1.9714 -0.40775,2.8261 0.49489,0.3631 0.72781,0.9839 0.54608,1.45681 -0.33875,0.8857 -4.86682,2.4391 -7.09661,2.4391 -2.00167,0 -3.65427,1.3745 -3.65427,3.0395 0,1.6083 -0.83444,2.6684 -2.09935,2.6684 -0.46956,0 -1.27647,0.4694 -1.79313,1.0388 -0.58798,0.6554 -1.5985,1.038 -2.7012,1.038 -0.96902,0 -2.46431,0.3631 -3.32289,0.8059 -1.92535,0.9955 -8.57746,0.8679 -9.63137,-0.186 -0.75323,-0.7528 -0.90541,-2.5958 -0.29385,-3.5567 0.21069,-0.3365 1.43333,-1.1602 2.7168,-1.8412 1.85175,-0.9831 2.30582,-1.4879 2.19915,-2.4435 -0.0735,-0.6553 0.33477,-1.9625 0.90829,-2.8898 0.57345,-0.93081 1.04266,-1.80141 1.04266,-1.94041 0,-0.1417 -1.62478,-0.1771 -3.61062,-0.097 -1.98585,0.097 -3.75125,-0.089 -3.92313,-0.3366 -0.17181,-0.2834 -0.7984,-0.5048 -1.39238,-0.5048 -0.59391,0 -1.34703,-0.3631 -1.67351,-0.8059 -0.53032,-0.7262 -0.73897,-0.6996 -1.95559,0.2568 -1.69181,1.3311 -2.0963,1.3356 -3.27422,0 -0.51667,-0.5668 -1.42866,-1.0344 -2.02669,-1.0308 -0.8805,0 -0.94062,0.1062 -0.31591,0.4959 0.63199,0.3986 0.6636,0.7705 0.17482,2.068 -0.59895,1.58701 -0.22105,1.96431 1.61537,1.60921 0.26702,-0.097 1.02393,0 1.68197,0.2037 1.06282,0.2656 1.18247,0.5756 1.07145,2.756 -0.11557,2.2717 -0.0283,2.4683 1.17252,2.6118 0.71365,0.089 1.64782,0.2834 2.076,0.4251 0.65838,0.2214 0.63969,0.3454 -0.12116,0.7705 -0.74951,0.4162 -0.79352,0.6731 -0.26436,1.5224 0.34938,0.5579 1.02109,1.0167 1.49279,1.0167 1.32959,0 1.57626,1.4684 0.43794,2.6064 -0.56441,0.5668 -1.28577,1.0264 -1.60299,1.0264 -0.37985,0 -0.45849,0.6288 -0.23044,1.8466 0.32192,1.7155 0.17075,2.0086 -2.148,4.1607 -1.37187,1.2726 -3.07818,2.4364 -3.7918,2.586 -0.71365,0.1506 -2.33897,0.7882 -3.61187,1.4188 -1.27291,0.6288 -2.52678,1.146 -2.78638,1.146 -0.25958,0 -0.73614,-0.797 -1.05912,-1.7766 -0.3229,-0.9777 -0.91155,-1.8837 -1.3081,-2.0139 -0.44689,-0.1505 -0.5792,0 -0.34814,0.3631 0.20503,0.3366 0.57522,1.309 0.82258,2.1716 0.3593,1.2532 0.24842,1.7695 -0.55078,2.5683 -0.82842,0.8237 -1.24699,0.9122 -2.43235,0.4606 -1.26915,-0.4871 -1.56746,-0.3809 -2.62598,0.921 -0.97062,1.1885 -1.13781,1.8598 -0.89321,3.5877 0.2176,1.5375 0.0868,2.3035 -0.4724,2.7676 -0.64881,0.5402 -0.89861,0.3454 -1.55031,-1.2177 -0.76882,-1.8395 -0.80938,-1.859 -3.88795,-1.859 -2.56557,0 -3.24401,-0.186 -3.86944,-1.0831 -0.62118,-0.8856 -0.94899,-0.9804 -1.81181,-0.5225 -0.57938,0.3099 -1.69154,0.5668 -2.47152,0.5668 -2.49897,0 -0.21291,0.8856 2.57316,0.999 0.7155,0 0.8634,0.2745 0.57389,0.9467 -0.21441,0.5048 -0.43051,1.4923 -0.48028,2.2061 -0.20812,2.9881 -1.32193,4.6319 -3.54333,5.2306 -1.85283,0.5048 -2.2176,0.4605 -2.80617,-0.3543 -0.37206,-0.5137 -0.67645,-1.1141 -0.67645,-1.3453 0,-0.2302 -0.44919,-0.4162 -0.99816,-0.4162 -0.549,0 -1.7202,-0.6022 -2.60266,-1.3497 -0.88244,-0.7439 -1.94503,-1.2195 -2.36127,-1.0601 -0.41625,0.1594 -1.45042,-0.3011 -2.2982,-1.0061 -1.50555,-1.2673 -1.5542,-1.2735 -2.09004,-0.2745 -0.81266,1.5179 -0.67202,2.1317 0.4894,2.1317 1.34738,0 1.39681,1.8465 0.0691,2.5568 -0.68203,0.3631 -0.89535,0.9122 -0.71923,1.8297 0.16004,0.8325 -0.005,1.3763 -0.45769,1.4958 -0.97529,0.2569 -3.63106,1.1762 -4.7331,1.6358 -0.71302,0.3011 -1.08029,0 -1.68944,-1.4834 -0.92113,-2.2053 -3.05196,-3.8198 -4.0193,-3.0466 -0.3554,0.2923 -2.01557,0.6819 -3.68931,0.8856 -2.94745,0.3543 -3.09818,0.3189 -4.79295,-1.3275 -2.15124,-2.0866 -3.04215,-1.5773 -0.99026,0.5668 1.46714,1.5321 1.47067,1.5516 0.48117,2.6631 -0.54821,0.6111 -2.12807,1.649 -3.51075,2.2955 -1.49745,0.6997 -3.02647,1.9298 -3.78144,3.0404 -1.20044,1.7668 -2.78706,2.5134 -2.78706,1.3125 0,-0.31 -0.43865,-0.4162 -0.99615,-0.2391 -0.71931,0.2214 -1.09291,0 -1.34447,-0.7794 -0.30395,-0.9573 -0.45823,-1.0069 -1.20962,-0.3808 -1.36602,1.1363 -3.62619,1.9546 -5.39423,1.9546 l -1.62969,0 1.3363,-1.4268 c 0.73498,-0.7793 1.51142,-2.0112 1.72549,-2.725 0.21406,-0.7174 0.82417,-1.8537 1.3558,-2.5347 1.24827,-1.5986 1.23346,-2.3151 -0.0337,-1.6367 -0.55016,0.3011 -1.36765,0.3897 -1.81651,0.2214 -0.44892,-0.1771 -0.81611,-0.097 -0.81611,0.2392 0,0.8502 -3.12728,4.2253 -3.91126,4.2253 -0.37941,0 -0.84578,-0.4959 -1.03648,-1.092 -0.26126,-0.8148 0.11088,-1.5613 1.5092,-2.9925 l 1.85588,-1.9006 -1.52648,-0.6819 c -1.75026,-0.7705 -2.85932,-0.31 -2.85932,1.2124 0,0.8325 -0.35328,1.0415 -1.8165,1.0592 -0.99908,0 -2.63392,0.5402 -3.63298,1.1655 -2.33386,1.4702 -2.58404,1.4436 -2.648,-0.2834 -0.0523,-1.3922 -0.0673,-1.3851 -0.60763,0.31 -0.48878,1.5286 -0.7233,1.7004 -1.97607,1.4489 -0.9702,-0.1949 -1.51411,0 -1.71332,0.4782 -0.16057,0.4163 -0.89908,1.0371 -1.6411,1.3763 -1.6371,0.7439 -2.29277,0 -2.30495,-2.571 -0.0106,-2.0263 -0.31351,-2.0972 -1.65766,-0.3897 -0.56389,0.7174 -1.55864,1.2983 -2.22277,1.2983 -0.81151,0 -1.17874,0.2923 -1.1301,0.8768 0.0399,0.4871 -0.47425,1.1575 -1.142108,1.4985 -0.812301,0.4163 -0.984087,0.6997 -0.519069,0.8591 0.573093,0.1948 0.566274,0.3897 -0.03897,1.123 -0.942685,1.1415 -4.545648,0.9839 -4.287752,-0.186 0.132845,-0.6023 -0.03897,-0.5757 -0.819298,0.1328 -1.089434,0.9857 -3.241279,1.2116 -3.241279,0.3454 z m 31.139889,-10.8649 c 0,-0.2923 -0.24736,-0.5226 -0.54962,-0.5226 -0.30227,0 -0.40527,0.2303 -0.22885,0.5226 0.17642,0.2834 0.42378,0.5225 0.54962,0.5225 0.12594,0 0.22885,-0.2303 0.22885,-0.5225 z"
       style="fill:#008e4b" />
    <path
       inkscape:connector-curvature="0"
       style="fill:#f69b19"
       d="m 443.37845,698.11231 -4.37568,3.62932 -8.51481,0.29226 c -40.51257,1.37096 -76.79987,11.26169 -101.60337,27.68928 -7.88643,5.22434 -10.86158,7.67843 -17.97912,14.83345 -9.94075,9.99347 -16.27197,19.49099 -21.25662,31.89426 -1.29798,3.22902 -2.35063,6.02319 -2.34156,6.21005 0.009,0.18599 1.4072,-2.43548 3.10858,-5.8248 4.33672,-8.64111 8.18194,-14.19048 14.08323,-20.31817 13.33582,-13.84508 30.85923,-21.72986 56.74854,-25.53011 6.12953,-0.90246 40.2884,-1.55074 42.24632,-0.80592 1.19564,0.45167 1.09516,0.60223 -2.5612,3.6798 l -0.18244,0.15056 c 1.98414,-1.66942 5.58049,-4.62566 8.01473,-6.59265 12.63557,-10.20956 30.07217,-24.78441 30.07217,-25.136 0,-0.22141 2.04354,-2.09452 4.54123,-4.16867 z M 267.2434,838.55316 c -0.0859,-0.0974 -0.86685,1.30897 -2.38212,4.12616 -7.07362,13.1481 -13.82479,21.02225 -24.69296,28.79101 -13.63241,9.74461 -32.95025,15.96263 -56.41742,18.16254 -7.29426,0.68194 -29.24775,0.69079 -37.94161,0 -8.48977,-0.66422 -21.08243,-2.05024 -22.70278,-2.50368 l -1.23332,-0.3454 c -0.8895,1.301 -1.82196,2.67373 -3.0883,4.56809 l -18.16493,29.93968 c 3.96047,0 20.38585,-1.2638 28.11577,-2.10781 71.28427,-7.78293 119.47744,-34.56533 136.72024,-75.98456 1.26528,-3.0386 1.87298,-4.5796 1.78743,-4.65577 z m -136.91621,42.59447 c -0.21618,0.002 -0.46691,0 -0.64536,0 0.17792,0 0.43139,0 0.64536,0 z m -0.71975,0 c -0.31679,0 -0.59152,0.0886 -0.77378,0.1417 -0.0124,0 -0.0213,0 -0.0337,0 0.19626,-0.0974 0.47877,-0.12398 0.80752,-0.15055 z m -0.80752,0.15056 c -0.70621,0.26569 -1.20569,0.24798 -1.63878,0 0.40066,0.30997 0.86482,0.31883 1.63878,0 z"
       id="path4151"
       sodipodi:nodetypes="cccssscssssccsscccssscccccssccccccccccccc" />
  </g>
</svg>
