<?xml version="1.0" encoding="UTF-8" standalone="no"?>
<svg
   xmlns:dc="http://purl.org/dc/elements/1.1/"
   xmlns:cc="http://creativecommons.org/ns#"
   xmlns:rdf="http://www.w3.org/1999/02/22-rdf-syntax-ns#"
   xmlns:svg="http://www.w3.org/2000/svg"
   xmlns="http://www.w3.org/2000/svg"
   xmlns:sodipodi="http://sodipodi.sourceforge.net/DTD/sodipodi-0.dtd"
   xmlns:inkscape="http://www.inkscape.org/namespaces/inkscape"
   inkscape:version="1.0beta2 (2b71d25, 2019-12-03)"
   sodipodi:docname="snp_logo.svg"
   xml:space="preserve"
   enable-background="new 0 0 126.658 38.878"
   viewBox="0 0 140 140.00001"
   height="140"
   width="140"
   y="0px"
   x="0px"
   id="Layer_1"
   version="1.1"><metadata
   id="metadata86"><rdf:RDF><cc:Work
       rdf:about=""><dc:format>image/svg+xml</dc:format><dc:type
         rdf:resource="http://purl.org/dc/dcmitype/StillImage" /><dc:title></dc:title></cc:Work></rdf:RDF></metadata><defs
   id="defs84" /><sodipodi:namedview
   inkscape:current-layer="Layer_1"
   inkscape:window-maximized="0"
   inkscape:window-y="23"
   inkscape:window-x="0"
   inkscape:cy="64.206017"
   inkscape:cx="25.952841"
   inkscape:zoom="5.1503421"
   units="mm"
   showgrid="false"
   id="namedview82"
   inkscape:window-height="1047"
   inkscape:window-width="1986"
   inkscape:pageshadow="2"
   inkscape:pageopacity="0"
   guidetolerance="10"
   gridtolerance="10"
   objecttolerance="10"
   borderopacity="1"
   inkscape:document-rotation="0"
   bordercolor="#666666"
   pagecolor="#fff481" />
<rect
   y="-1.5532949"
   x="-1.1649711"
   height="146.59221"
   width="146.20387"
   id="rect956"
   style="fill:#fff481;fill-rule:evenodd;fill-opacity:1" /><g
   transform="translate(6.6708051,50.561)"
   id="g79">
	<g
   id="g77">
		<path
   inkscape:connector-curvature="0"
   id="path75"
   d="m 123.288,20.99 -8.582,-8.921 11.393,-11.327 -8.965,-0.09 -6.748,6.884 -6.749,-6.884 -8.962,0.09 11.392,11.327 -8.579,8.921 c 0,0 -7.234,6.502 -0.512,13.178 4.748,4.716 13.41,4.681 13.41,4.681 0,0 8.662,0.035 13.412,-4.681 6.721,-6.676 -0.51,-13.178 -0.51,-13.178 z m -4.912,12.184 c -3.371,3.219 -7.99,3.069 -7.99,3.069 0,0 -4.619,0.149 -7.99,-3.069 -3.371,-3.223 -1.648,-6.518 -0.897,-7.492 0.749,-0.972 8.888,-9.133 8.888,-9.133 0,0 8.141,8.161 8.889,9.133 0.747,0.974 2.469,4.269 -0.9,7.492 z M 17.637,14.919 c -1.442,-0.499 -2.551,-0.776 -3.827,-1.275 -1.054,-0.389 -1.775,-1.055 -1.775,-2.108 0,-1.331 1.22,-1.941 2.551,-1.941 1.941,0 3.827,0.5 7.266,1.665 L 24.625,2.496 C 21.963,1.275 17.803,0 12.59,0 5.491,0 0.555,5.046 0.555,12.478 c 0,5.38 2.329,9.207 8.708,11.26 1.774,0.61 2.717,0.888 3.771,1.331 0.999,0.388 1.498,1.109 1.498,1.996 0,1.442 -1.275,1.997 -2.884,1.997 -2.163,0 -4.826,-0.776 -8.652,-2.33 L 0,35.605 c 2.995,1.72 7.82,3.272 12.59,3.272 8.097,0 13.477,-5.323 13.477,-12.811 0,-5.212 -1.886,-9.151 -8.43,-11.147 z M 48.972,18.469 38.157,0.221 26.399,1.497 28.562,5.324 V 38.268 H 39.377 V 20.687 c 4.104,6.378 7.376,12.646 10.926,18.191 l 9.429,-0.999 V 0.722 H 48.972 Z M 76.104,0.722 H 63.737 V 38.269 H 74.996 V 25.235 h 1.165 c 9.15,0 14.863,-4.327 14.863,-12.646 0,-7.375 -5.158,-11.867 -14.92,-11.867 z m 0.057,15.972 H 74.996 V 9.428 h 0.998 c 2.829,0 3.827,1.941 3.827,3.383 0,2.108 -1.165,3.883 -3.66,3.883 z"
   fill="#333333" />
	</g>
</g>
</svg>
