<?xml version="1.0" encoding="UTF-8" standalone="no"?>
<svg
   xmlns:dc="http://purl.org/dc/elements/1.1/"
   xmlns:cc="http://creativecommons.org/ns#"
   xmlns:rdf="http://www.w3.org/1999/02/22-rdf-syntax-ns#"
   xmlns:svg="http://www.w3.org/2000/svg"
   xmlns="http://www.w3.org/2000/svg"
   xmlns:sodipodi="http://sodipodi.sourceforge.net/DTD/sodipodi-0.dtd"
   xmlns:inkscape="http://www.inkscape.org/namespaces/inkscape"
   inkscape:version="1.0beta2 (2b71d25, 2019-12-03)"
   sodipodi:docname="speaker_logo.svg"
   xml:space="preserve"
   enable-background="new 0 0.001 456.714 70.15"
   viewBox="0 0.001 85.000002 84.999998"
   height="85"
   width="85"
   y="0px"
   x="0px"
   id="Layer_1"
   version="1.1"><metadata
   id="metadata2231"><rdf:RDF><cc:Work
       rdf:about=""><dc:format>image/svg+xml</dc:format><dc:type
         rdf:resource="http://purl.org/dc/dcmitype/StillImage" /><dc:title></dc:title></cc:Work></rdf:RDF></metadata><defs
   id="defs2229" /><sodipodi:namedview
   inkscape:current-layer="Layer_1"
   inkscape:window-maximized="0"
   inkscape:window-y="23"
   inkscape:window-x="0"
   inkscape:cy="35.075001"
   inkscape:cx="122.20465"
   inkscape:zoom="3.1617317"
   showgrid="false"
   id="namedview2227"
   inkscape:window-height="990"
   inkscape:window-width="1864"
   inkscape:pageshadow="2"
   inkscape:pageopacity="0"
   guidetolerance="10"
   gridtolerance="10"
   objecttolerance="10"
   borderopacity="1"
   inkscape:document-rotation="0"
   bordercolor="#666666"
   pagecolor="#ffffff" />
<g
   transform="translate(0,7.425)"
   id="g2224">
	<g
   id="g2148">
		<path
   inkscape:connector-curvature="0"
   id="path2134"
   d="m 37.336,31.652 c -0.621,0 -1.125,0.509 -1.125,1.134 0,0.624 0.504,1.126 1.125,1.126 0.621,0 1.127,-0.503 1.127,-1.126 0,-0.625 -0.506,-1.134 -1.127,-1.134 m -0.026,8.84 c -0.623,0 -1.128,0.504 -1.128,1.129 0,0.623 0.505,1.13 1.128,1.13 0.622,0 1.127,-0.507 1.127,-1.13 0,-0.625 -0.505,-1.129 -1.127,-1.129 m -9.765,-7.706 c 0,0.624 0.504,1.126 1.129,1.126 0.621,0 1.124,-0.503 1.124,-1.126 0,-0.625 -0.503,-1.134 -1.124,-1.134 -0.625,0 -1.129,0.509 -1.129,1.134 m 1.129,7.706 c -0.625,0 -1.129,0.504 -1.129,1.129 0,0.623 0.504,1.13 1.129,1.13 0.621,0 1.124,-0.507 1.124,-1.13 0,-0.625 -0.503,-1.129 -1.124,-1.129 m -1.129,9.978 c 0,0.625 0.504,1.132 1.129,1.132 0.621,0 1.124,-0.507 1.124,-1.132 0,-0.621 -0.503,-1.132 -1.124,-1.132 -0.625,0 -1.129,0.511 -1.129,1.132 m 9.791,-1.132 c -0.621,0 -1.125,0.511 -1.125,1.132 0,0.625 0.504,1.132 1.125,1.132 0.621,0 1.127,-0.507 1.127,-1.132 0,-0.621 -0.506,-1.132 -1.127,-1.132 m 7.592,-16.532 c 0,0.623 0.502,1.125 1.124,1.125 0.628,0 1.128,-0.503 1.128,-1.125 0,-0.625 -0.5,-1.133 -1.128,-1.133 -0.622,0 -1.124,0.508 -1.124,1.133 m 1.098,7.699 c -0.621,0 -1.127,0.507 -1.127,1.134 0,0.627 0.506,1.13 1.127,1.13 0.623,0 1.127,-0.503 1.127,-1.13 0,-0.627 -0.504,-1.134 -1.127,-1.134 m -1.098,9.985 c 0,0.628 0.502,1.132 1.124,1.132 0.628,0 1.128,-0.504 1.128,-1.132 0,-0.624 -0.5,-1.134 -1.128,-1.134 -0.622,0 -1.124,0.51 -1.124,1.134 M 18.88,32.793 c 0,0.625 0.506,1.125 1.128,1.125 0.624,0 1.127,-0.5 1.127,-1.125 0,-0.625 -0.503,-1.134 -1.127,-1.134 -0.622,0 -1.128,0.508 -1.128,1.134 m -8.665,0 c 0,0.625 0.507,1.125 1.127,1.125 0.624,0 1.129,-0.5 1.129,-1.125 0,-0.625 -0.505,-1.134 -1.129,-1.134 -0.62,0 -1.127,0.508 -1.127,1.134 m 1.127,7.696 c -0.62,0 -1.127,0.499 -1.127,1.132 0,0.619 0.507,1.125 1.127,1.125 0.624,0 1.129,-0.506 1.129,-1.125 10e-4,-0.634 -0.505,-1.132 -1.129,-1.132 m 8.639,0 c -0.623,0 -1.127,0.499 -1.127,1.132 0,0.619 0.504,1.125 1.127,1.125 0.625,0 1.126,-0.506 1.126,-1.125 0.001,-0.634 -0.501,-1.132 -1.126,-1.132 m -8.639,8.844 c -0.62,0 -1.127,0.512 -1.127,1.135 0,0.623 0.507,1.125 1.127,1.125 0.624,0 1.129,-0.502 1.129,-1.125 0,-0.623 -0.505,-1.135 -1.129,-1.135 m 8.666,0 c -0.623,0 -1.128,0.512 -1.128,1.135 0,0.623 0.506,1.125 1.128,1.125 0.624,0 1.127,-0.502 1.127,-1.125 0,-0.623 -0.503,-1.135 -1.127,-1.135 M 12.924,31.07 h 5.182 v -5.515 h -5.182 c 0,0 0,5.515 0,5.515 z m 0,8.919 h 5.182 v -5.523 h -5.182 c 0,0 0,5.523 0,5.523 z m 0,8.84 h 5.182 v -5.482 h -5.182 c 0,0 0,5.482 0,5.482 z M 21.377,31.07 h 5.541 v -5.515 h -5.541 z m 0.04,8.961 h 5.5 v -5.563 h -5.5 z m 0,8.839 h 5.462 v -5.523 h -5.462 z m 8.887,-17.8 h 5.386 v -5.477 h -5.386 c 0,0 0,5.477 0,5.477 z m 0,8.961 h 5.386 v -5.597 h -5.386 c 0,0 0,5.597 0,5.597 z m 0,8.798 h 5.386 v -5.523 h -5.386 c 0,0 0,5.523 0,5.523 z M 39.156,31.07 H 44.3 v -5.515 h -5.144 z m 0.039,8.919 H 44.3 v -5.523 h -5.105 z m 0,8.84 H 44.3 V 43.306 H 39.195 Z M 10.215,23.94 c 0,0.625 0.507,1.133 1.127,1.133 0.624,0 1.129,-0.508 1.129,-1.133 0,-0.623 -0.505,-1.13 -1.129,-1.13 -0.62,0 -1.127,0.507 -1.127,1.13 m 8.639,0 c 0,0.625 0.504,1.133 1.127,1.133 0.625,0 1.126,-0.508 1.126,-1.133 0,-0.623 -0.502,-1.13 -1.126,-1.13 -0.622,0 -1.127,0.507 -1.127,1.13 m 8.691,-0.004 c 0,0.625 0.504,1.127 1.129,1.127 0.621,0 1.124,-0.503 1.124,-1.127 0,-0.626 -0.503,-1.133 -1.124,-1.133 -0.625,0 -1.129,0.506 -1.129,1.133 m 8.636,0 c 0,0.625 0.505,1.127 1.128,1.127 0.622,0 1.127,-0.503 1.127,-1.127 0,-0.626 -0.505,-1.133 -1.127,-1.133 -0.622,0 -1.128,0.506 -1.128,1.133 m 9.845,-1.112 c -0.621,0 -1.127,0.503 -1.127,1.129 0,0.625 0.506,1.13 1.127,1.13 0.623,0 1.127,-0.505 1.127,-1.13 0,-0.625 -0.504,-1.129 -1.127,-1.129 M 11.724,21.93 h 33.772 v -0.922 c 0,0 -15.336,-6.924 -33.782,0.008 z M 21.468,8.263 c 0,0 -1.701,-1.17 -2.656,0.483 0,0 -0.48,0.479 -0.691,2.664 0,0 1.701,0.506 1.276,2.824 0,0 4.329,3.467 6.695,-0.29 0,0 1.383,-1.387 1.65,-6.32 0,0 -2.048,-0.666 -3.749,2.216 0,0 -1.064,2.077 -1.38,-0.029 0,0 -0.108,-4.717 -0.798,-5.786 0,0 -0.317,-0.665 0.4,-0.747 0,0 0.263,0.109 0.451,0.536 0.186,0.425 1.432,2.64 4.623,1.865 0,0 0.983,-3.572 -4.41,-4.505 0,0 -0.189,-0.906 0.663,-1.173 0,0 1.512,0.667 4.304,0.694 2.793,0.026 3.963,-0.083 5.689,-0.614 0,0 1.036,-0.24 0.879,1.147 0,0 -5.104,0.559 -4.36,4.478 0,0 3.161,0.854 4.623,-1.971 0,0 0.213,-0.479 0.613,-0.456 0,0 0.636,0.244 0.053,1.043 0,0 -0.667,2.291 -0.692,5.544 0,0 0.201,0.584 -0.237,0.771 0,0 -0.429,0.454 -0.905,-0.558 0,0 -1.567,-3.039 -3.906,-2.453 0,0 0.08,5.309 2.418,7.251 0,0 1.994,2.241 5.874,-0.666 0,0 -0.453,-2.105 1.274,-2.799 0,0 -0.078,-5.117 -3.375,-3.118 0,0 0.425,-5.975 4.254,-0.321 0,0 0.263,-5.012 3.215,-5.865 0,0 1.354,2.4 -0.532,6.798 0,0 6.644,-3.6 3.456,2.746 0,0 -1.994,-3.573 -4.2,0.454 0,0 1.063,1.92 -0.374,2.48 0,0 0,5.332 5.955,2.131 0,0 1.624,-0.476 3.324,-2.72 0,0 0.717,-0.504 0.133,-1.385 -0.587,-0.878 -1.623,-0.266 -1.729,-0.187 -0.104,0.083 -1.623,1.031 -1.991,1.255 0,0 -1.141,0.326 -0.347,-0.745 0,0 0.217,-0.22 0.43,-0.477 0.461,-0.563 1.02,-1.926 0.899,-5.231 0,0 -0.054,-0.613 0.371,-0.613 0,0 0.45,-0.078 0.534,0.427 0.077,0.506 0.21,4.16 3.293,4.269 0,0 2.578,-2.511 -0.373,-5.869 0,0 -0.664,-0.427 -0.372,-0.959 0,0 0.267,-0.508 0.957,-0.134 l 4.121,2.414 -8.852,14.994 v 44.47 h -1.673 l -3.668,-8.558 h 1.594 v -5.521 h -5.1 v 5.444 h 1.751 l -3.428,8.559 -3.588,-8.481 h 1.835 v -5.598 h -5.422 v 5.521 h 1.914 l -3.588,8.635 -3.586,-8.476 h 1.833 v -5.68 h -5.502 v 5.598 h 1.995 l -3.508,8.481 -3.587,-8.481 h 1.754 v -5.521 h -5.104 v 5.444 h 1.677 l -3.669,8.635 H 9.217 V 22.156 L 0.291,6.796 c 0,0 3.586,-2.104 4.011,-2.291 C 4.725,4.32 6.35,3.892 5.232,5.358 4.115,6.823 3.158,8.211 4.246,10.503 c 0,0 0.417,1.303 1.835,0.454 1.25,-0.745 1.673,-1.253 1.993,-3.546 0,0 0,-1.012 0.639,-0.772 0,0 0.29,-0.186 0.29,0.905 0,1.094 -0.023,3.495 0.826,4.8 l 0.532,0.638 c 0,0 0.744,1.228 -0.559,0.588 0,0 -2.286,-1.895 -3.163,-1.309 0,0 -1.223,0.804 -0.107,1.922 0,0 1.251,2.057 4.573,3.118 0,0 4.438,1.869 4.545,-2.716 0,0 -1.302,-0.401 -0.348,-2.429 0,0 -1.751,-4.078 -4.224,-0.48 0,0 -1.912,-3.625 0.212,-3.813 0,0 1.357,-0.052 3.296,1.151 0,0 -1.779,-4.374 -0.559,-6.907 0,0 3.003,0.64 3.162,6.025 0,0 3.481,-5.944 4.359,0.132 h -0.08 V 8.263 Z"
   fill="#387C2B" />
		<path
   inkscape:connector-curvature="0"
   id="path2136"
   d="m 11.082,15.075 c 0,-0.625 0.501,-1.129 1.126,-1.129 0.622,0 1.127,0.504 1.127,1.129 0,0.626 -0.506,1.131 -1.127,1.131 -0.625,0 -1.126,-0.504 -1.126,-1.131"
   fill="#387C2B" />
		<path
   inkscape:connector-curvature="0"
   id="path2138"
   d="m 21.604,12.995 c 0,-0.622 0.504,-1.127 1.127,-1.127 0.622,0 1.127,0.505 1.127,1.127 0,0.627 -0.506,1.133 -1.127,1.133 -0.623,0 -1.127,-0.506 -1.127,-1.133"
   fill="#387C2B" />
		<path
   inkscape:connector-curvature="0"
   id="path2140"
   d="m 33.444,13.038 c 0,-0.627 0.506,-1.131 1.127,-1.131 0.625,0 1.127,0.504 1.127,1.131 0,0.623 -0.503,1.127 -1.127,1.127 -0.621,0 -1.127,-0.504 -1.127,-1.127"
   fill="#387C2B" />
		<path
   inkscape:connector-curvature="0"
   id="path2142"
   d="m 43.971,15.038 c 0,-0.625 0.504,-1.134 1.125,-1.134 0.621,0 1.128,0.509 1.128,1.134 0,0.622 -0.507,1.129 -1.128,1.129 -0.621,0 -1.125,-0.507 -1.125,-1.129"
   fill="#387C2B" />
		<path
   inkscape:connector-curvature="0"
   id="path2144"
   d="m 35.468,4.1 c 0,0 -0.258,0.618 -0.318,0.935 C 35.096,5.353 34.513,4.95 34.513,4.95 l 0.199,-0.6 0.406,-0.424 z"
   fill="#387C2B" />
		<path
   inkscape:connector-curvature="0"
   id="path2146"
   d="M 8.876,6.702 8.488,6.854 8.253,6.764 C 8.537,6.335 8.876,6.702 8.876,6.702"
   fill="#387C2B" />
	</g>
	<g
   id="g2170">
		<path
   inkscape:connector-curvature="0"
   id="path2150"
   d="m 1.127,23.715 c 0,1.388 1.125,2.516 2.507,2.516 1.39,0 2.511,-1.127 2.511,-2.516 0,-1.393 -1.121,-2.516 -2.511,-2.516 -1.382,0 -2.507,1.123 -2.507,2.516 m -1.127,0 c 0,-2.015 1.633,-3.648 3.634,-3.648 2.009,0 3.638,1.633 3.638,3.648 0,2.015 -1.629,3.648 -3.638,3.648 C 1.633,27.363 0,25.73 0,23.715"
   fill="#387C2B" />
		<path
   inkscape:connector-curvature="0"
   id="path2152"
   d="m 1.775,30.832 c -0.249,0 -0.452,0.201 -0.452,0.455 v 5.33 c 0,0.254 0.203,0.457 0.452,0.457 h 3.563 c 0.248,0 0.451,-0.203 0.451,-0.457 v -5.33 c 0,-0.254 -0.203,-0.455 -0.451,-0.455 z m 3.587,7.84 H 1.67 c -0.876,0 -1.58,-0.712 -1.58,-1.59 v -6.264 c 0,-0.875 0.704,-1.585 1.58,-1.585 h 3.692 c 0.876,0 1.583,0.71 1.583,1.585 v 6.264 c 0,0.878 -0.707,1.59 -1.583,1.59"
   fill="#387C2B" />
		<path
   inkscape:connector-curvature="0"
   id="path2154"
   d="m 1.735,42.027 c -0.249,0 -0.451,0.204 -0.451,0.452 v 5.334 c 0,0.251 0.202,0.456 0.451,0.456 h 3.563 c 0.248,0 0.453,-0.205 0.453,-0.456 v -5.334 c 0,-0.248 -0.205,-0.452 -0.453,-0.452 z m 3.586,7.839 H 1.633 c -0.876,0 -1.585,-0.711 -1.585,-1.587 v -6.258 c 0,-0.882 0.708,-1.592 1.585,-1.592 h 3.688 c 0.875,0 1.585,0.71 1.585,1.592 v 6.258 c 0.001,0.876 -0.709,1.587 -1.585,1.587"
   fill="#387C2B" />
		<path
   inkscape:connector-curvature="0"
   id="path2156"
   d="m 1.735,53.146 c -0.249,0 -0.451,0.204 -0.451,0.452 v 5.339 c 0,0.247 0.202,0.45 0.451,0.45 h 3.563 c 0.248,0 0.453,-0.203 0.453,-0.45 v -5.339 c 0,-0.248 -0.205,-0.452 -0.453,-0.452 z m 3.586,7.84 H 1.633 c -0.876,0 -1.585,-0.711 -1.585,-1.591 v -6.26 c 0,-0.874 0.708,-1.589 1.585,-1.589 h 3.688 c 0.875,0 1.585,0.715 1.585,1.589 v 6.26 c 0.001,0.88 -0.709,1.591 -1.585,1.591"
   fill="#387C2B" />
		<path
   inkscape:connector-curvature="0"
   id="path2158"
   d="m 1.127,66.506 c 0,1.385 1.125,2.517 2.507,2.517 1.39,0 2.511,-1.132 2.511,-2.517 0,-1.394 -1.121,-2.519 -2.511,-2.519 -1.382,10e-4 -2.507,1.126 -2.507,2.519 m -1.127,0 c 0,-2.016 1.633,-3.651 3.634,-3.651 2.009,0 3.638,1.636 3.638,3.651 0,2.01 -1.629,3.645 -3.638,3.645 C 1.633,70.151 0,68.516 0,66.506"
   fill="#387C2B" />
		<rect
   id="rect2160"
   height="4.8049998"
   width="1.197"
   fill="#387C2B"
   y="58.300999"
   x="2.9170001" />
		<rect
   id="rect2162"
   height="7.434"
   width="1.197"
   fill="#387C2B"
   y="46.827"
   x="2.9170001" />
		<rect
   id="rect2164"
   height="7.2779999"
   width="1.197"
   fill="#387C2B"
   y="35.949001"
   x="2.9170001" />
		<rect
   id="rect2166"
   height="7.158"
   width="1.197"
   fill="#387C2B"
   y="24.872999"
   x="2.9170001" />
		<rect
   id="rect2168"
   height="1.201"
   width="4.7030001"
   fill="#387C2B"
   y="23.113001"
   x="4.7129998" />
	</g>
	<g
   id="g2192">
		<path
   inkscape:connector-curvature="0"
   id="path2172"
   d="m 51.276,23.715 c 0,1.388 1.125,2.516 2.511,2.516 1.388,0 2.508,-1.127 2.508,-2.516 0,-1.393 -1.121,-2.516 -2.508,-2.516 -1.386,0 -2.511,1.123 -2.511,2.516 m -1.126,0 c 0,-2.015 1.627,-3.648 3.636,-3.648 2.006,0 3.636,1.633 3.636,3.648 0,2.015 -1.63,3.648 -3.636,3.648 -2.008,0 -3.636,-1.633 -3.636,-3.648"
   fill="#387C2B" />
		<path
   inkscape:connector-curvature="0"
   id="path2174"
   d="m 55.648,30.832 h -3.563 c -0.25,0 -0.452,0.201 -0.452,0.455 v 5.33 c 0,0.254 0.202,0.457 0.452,0.457 h 3.563 c 0.248,0 0.451,-0.203 0.451,-0.457 v -5.33 c 0,-0.254 -0.203,-0.455 -0.451,-0.455 m -3.588,7.84 c -0.874,0 -1.581,-0.712 -1.581,-1.59 v -6.264 c 0,-0.875 0.707,-1.585 1.581,-1.585 h 3.693 c 0.875,0 1.582,0.71 1.582,1.585 v 6.264 c 0,0.878 -0.707,1.59 -1.582,1.59 z"
   fill="#387C2B" />
		<path
   inkscape:connector-curvature="0"
   id="path2176"
   d="m 55.689,42.027 h -3.564 c -0.249,0 -0.453,0.204 -0.453,0.452 v 5.334 c 0,0.251 0.204,0.456 0.453,0.456 h 3.564 c 0.247,0 0.452,-0.205 0.452,-0.456 v -5.334 c 0,-0.248 -0.205,-0.452 -0.452,-0.452 M 52.1,49.866 c -0.873,0 -1.582,-0.711 -1.582,-1.587 v -6.258 c 0,-0.882 0.709,-1.592 1.582,-1.592 h 3.692 c 0.873,0 1.583,0.71 1.583,1.592 v 6.258 c 0,0.876 -0.711,1.587 -1.583,1.587 z"
   fill="#387C2B" />
		<path
   inkscape:connector-curvature="0"
   id="path2178"
   d="m 55.689,53.146 h -3.564 c -0.249,0 -0.453,0.204 -0.453,0.452 v 5.339 c 0,0.247 0.204,0.45 0.453,0.45 h 3.564 c 0.247,0 0.452,-0.203 0.452,-0.45 v -5.339 c 0,-0.248 -0.205,-0.452 -0.452,-0.452 m -3.589,7.84 c -0.873,0 -1.582,-0.711 -1.582,-1.591 v -6.26 c 0,-0.874 0.709,-1.589 1.582,-1.589 h 3.692 c 0.873,0 1.583,0.715 1.583,1.589 v 6.26 c 0,0.88 -0.711,1.591 -1.583,1.591 0,0 -3.692,0 -3.692,0 z"
   fill="#387C2B" />
		<path
   inkscape:connector-curvature="0"
   id="path2180"
   d="m 51.276,66.506 c 0,1.385 1.125,2.517 2.511,2.517 1.388,0 2.508,-1.132 2.508,-2.517 0,-1.394 -1.121,-2.519 -2.508,-2.519 -1.386,10e-4 -2.511,1.126 -2.511,2.519 m -1.126,0 c 0,-2.016 1.627,-3.651 3.636,-3.651 2.006,0 3.636,1.636 3.636,3.651 0,2.01 -1.63,3.645 -3.636,3.645 -2.008,0 -3.636,-1.635 -3.636,-3.645"
   fill="#387C2B" />
		<rect
   id="rect2182"
   height="4.8049998"
   width="1.196"
   fill="#387C2B"
   y="58.300999"
   x="53.308998" />
		<rect
   id="rect2184"
   height="7.434"
   width="1.196"
   fill="#387C2B"
   y="46.827"
   x="53.308998" />
		<rect
   id="rect2186"
   height="7.2779999"
   width="1.196"
   fill="#387C2B"
   y="35.949001"
   x="53.308998" />
		<rect
   id="rect2188"
   height="7.158"
   width="1.196"
   fill="#387C2B"
   y="24.872999"
   x="53.308998" />
		<rect
   id="rect2190"
   height="1.201"
   width="5.026"
   fill="#387C2B"
   y="23.113001"
   x="47.688" />
	</g>
	<g
   id="g2222">
		
		
		
		
		
		
		
		
		
		
		
		
		
		
	</g>
</g>
</svg>
