<?xml version="1.0" encoding="UTF-8"?>
<svg width="200" height="200" version="1.1" viewBox="0 0 200 200" xmlns="http://www.w3.org/2000/svg" xmlns:cc="http://creativecommons.org/ns#" xmlns:dc="http://purl.org/dc/elements/1.1/" xmlns:rdf="http://www.w3.org/1999/02/22-rdf-syntax-ns#">
 <metadata>
  <rdf:RDF>
   <cc:Work rdf:about="">
    <dc:format>image/svg+xml</dc:format>
    <dc:type rdf:resource="http://purl.org/dc/dcmitype/StillImage"/>
    <dc:title/>
   </cc:Work>
  </rdf:RDF>
 </metadata>
 <g transform="matrix(3.6958 0 0 3.6806 -507.66 -663.83)">
  <g transform="matrix(.42003 0 0 -.42176 164.42 180.69)" fill="#f2e930" stroke="#6e3075" stroke-width="1.5716">
   <path d="m0 0c-35.143 0-63.634-28.499-63.634-63.633 0-35.143 28.491-63.634 63.634-63.634 35.133 0 63.633 28.491 63.633 63.634 0 35.134-28.5 63.633-63.633 63.633z" fill="#f2e930" stroke="#6e3075" stroke-width="1.5716"/>
  </g>
  <path d="m153.76 200.37-0.0231-0.17293c-0.32469-3.9029-0.32469-6.9354 0.67666-9.0037 1.8653-3.8072 5.9627-6.4934 10.431-6.8198 0.59602-0.0388 1.2118-0.0612 1.7885-0.0612 6.3109 0 10.351 2.3791 10.794 6.3778 0.19572 1.7773-0.26797 3.3626-1.2882 4.3293-0.82955 0.79121-1.8842 1.2168-3.0989 1.2168-2.2904 0-4.3687-1.5082-4.6363-3.3614-0.11508-0.71825-0.0386-1.4702 0.0378-2.2037 0.0958-0.94812 0.1911-1.8346-0.11549-2.59-0.4045-1.0059-1.2874-1.6048-2.4643-1.6048-1.4411 0-2.8864 0.87179-3.3673 2.0109-0.19113 0.44538-0.28688 1.0632-0.30621 1.4892-0.076 1.8536 0.43935 3.784 0.98245 5.8342 0.36375 1.393 0.74934 2.8397 0.95977 4.3289l0.0382 0.21089h-10.408zm11.814 8.1551-4.3108-3.1126v3.1126h-2.9813v-7.4377h2.9813v3.1282l3.5812-3.1282h3.5392l-3.8105 3.5153 5.079 3.9224zm4.5796-7.4377h2.9851v7.4377h-2.9851zm10.315 3.1282c0.17181 0 1.04-0.0388 1.04-0.73342 0-0.65624-0.77244-0.7136-1.0018-0.7136h-2.0787v1.447zm-5.0222 4.3095v-7.4377h5.9438c1.4252 0 3.0994 0.57905 3.0994 2.2412 0 2.5103-3.0771 2.5297-3.1196 2.5297h-2.9419v2.6478h-2.9818zm-25.229 0.0957-0.0193-0.19187-0.0189 0.19187h-0.19114c-5.5612-0.0763-5.6225-2.5862-5.6225-2.7056v-4.8278h2.9847v4.0573c0 1.6419 2.5802 1.6993 2.8671 1.6993 0.29023 0 2.8662-0.0384 2.8662-1.6993v-4.0573h2.9856v4.8278c0 0.11935-0.0575 2.6293-5.6187 2.7056zm3.9823 10.627c-0.30575 0-0.63422 0.0202-0.95892 0.0578-1.1962 0.13917-2.1942 0.75579-2.6949 1.6048-0.44312 0.77519-0.48136 1.6811-0.076 2.6292 0.42002 1.0236 1.6125 1.6419 3.1531 1.6419 1.1731 0 2.3887-0.38717 3.1376-0.98647 0.53891-0.42556 1.6742-1.9498 1.5587-2.8591-0.0563-0.38717-0.71025-0.94685-1.31-1.3315-0.76825-0.50232-1.7318-0.75663-2.8096-0.75663m15.281 8.4444c-0.34738 0-0.6918-0.0198-1.0396-0.0392-2.503-0.21089-4.0785-1.485-5.5994-2.744-0.46203-0.38336-0.94379-0.77096-1.4638-1.1396-1.8078 1.7608-3.868 3.6916-7.4265 3.711h-0.0575c-2.1934 0-4.0205-0.69508-5.1403-1.9502-0.97868-1.1008-1.384-2.5512-1.1929-4.3091 0.34777-3.2475 3.1002-5.1817 7.3538-5.1817 1.0358 0 2.1329 0.11981 3.2334 0.36947-0.0609-1.9114-0.80981-5.7764-1.4638-6.9354l-0.1529-0.291h8.5232l-0.0382 0.55968c-0.17181 2.3374-0.46204 6.2217-1.0585 8.29 1.5785 0.79036 4.2158 1.5651 6.6961 1.5651 1.8082 0 3.2909-0.42513 4.273-1.1969 0.88371-0.71783 1.4411-1.6617 1.8086-3.0936l0.0378-0.15269h1.8275l-0.0198 0.21089c-0.21085 3.749-0.9018 6.5697-2.1749 8.6186-1.4982 2.4525-3.8487 3.7085-6.9254 3.7085" fill="#6e3075" stroke="#fff" stroke-width=".39688"/>
  <path d="m164.51 182.21c3.7676 0 6.9222 0.76129 9.7379 2.263-3.0248-1.2641-5.761-1.6527-9.7443-1.6527-3.3567 0-7.2961 0.54986-9.9082 1.6363 2.4895-1.3213 6.6555-2.2467 9.9145-2.2467z" fill="#fff"/>
 </g>
</svg>
