<?xml version="1.0" encoding="UTF-8" standalone="no"?>
<svg
   xmlns:dc="http://purl.org/dc/elements/1.1/"
   xmlns:cc="http://creativecommons.org/ns#"
   xmlns:rdf="http://www.w3.org/1999/02/22-rdf-syntax-ns#"
   xmlns:svg="http://www.w3.org/2000/svg"
   xmlns="http://www.w3.org/2000/svg"
   xmlns:sodipodi="http://sodipodi.sourceforge.net/DTD/sodipodi-0.dtd"
   xmlns:inkscape="http://www.inkscape.org/namespaces/inkscape"
   id="svg8"
   height="197.02376"
   viewBox="0 0 52.129197 52.129203"
   width="197.02376"
   version="1.1"
   sodipodi:docname="uup_logo.svg"
   inkscape:version="1.0beta2 (2b71d25, 2019-12-03)">
  <metadata
     id="metadata522">
    <rdf:RDF>
      <cc:Work
         rdf:about="">
        <dc:format>image/svg+xml</dc:format>
        <dc:type
           rdf:resource="http://purl.org/dc/dcmitype/StillImage" />
        <dc:title></dc:title>
      </cc:Work>
    </rdf:RDF>
  </metadata>
  <defs
     id="defs520" />
  <sodipodi:namedview
     pagecolor="#ffffff"
     bordercolor="#666666"
     inkscape:document-rotation="0"
     borderopacity="1"
     objecttolerance="10"
     gridtolerance="10"
     guidetolerance="10"
     inkscape:pageopacity="0"
     inkscape:pageshadow="2"
     inkscape:window-width="1666"
     inkscape:window-height="976"
     id="namedview518"
     showgrid="false"
     inkscape:zoom="0.95869483"
     inkscape:cx="77.274443"
     inkscape:cy="102.77007"
     inkscape:window-x="400"
     inkscape:window-y="68"
     inkscape:window-maximized="0"
     inkscape:current-layer="svg8" />
  <clipPath
     id="clipPath4546">
    <path
       id="path4544"
       d="M 0,0 H 595.276 V 841.89 H 0 Z"
       inkscape:connector-curvature="0" />
  </clipPath>
  <g
     id="g4542"
     clip-path="url(#clipPath4546)"
     transform="matrix(0.2536288,0,0,-0.2536288,-15.164463,146.32166)">
    <g
       id="g4548"
       fill="#24315c"
       transform="translate(180.3486,491.7056)">
      <path
         id="path4550"
         d="m 0,0 c 0,0 -2.583,12.959 -1.644,30.546 0,0 1.175,24.762 0.236,29.852 0,0 6.807,0.232 16.666,-0.926 0,0 7.512,-1.619 15.729,-1.619 0,0 3.99,-11.108 5.398,-16.43 0,0 3.522,-10.877 4.93,-12.497 0,0 -13.38,-11.107 -25.587,-18.049 C 15.728,10.877 1.408,1.62 0,0"
         inkscape:connector-curvature="0" />
    </g>
    <g
       id="g4552"
       fill="#24315c"
       transform="translate(201.2406,487.5403)">
      <path
         id="path4554"
         d="m 0,0 c 0,0 20.658,17.819 31.456,20.364 0,0 0.704,-2.314 2.113,-3.471 l 2.817,-3.24 c 0,0 0.547,-1.234 0.861,-1.311 0,0 0.704,-0.154 1.408,1.08 0,0 -0.547,0.771 -1.252,1.542 0,0 -1.409,1.157 -1.8,1.774 0,0 -0.782,1.775 0.627,2.623 0,0 1.798,0.695 3.599,-1.157 0,0 2.816,-2.082 2.816,-7.405 0,0 0,-6.634 -5.164,-9.642 0,0 -12.52,0.463 -17.371,-0.309 C 20.11,0.848 4.93,-0.463 0,0"
         inkscape:connector-curvature="0" />
    </g>
    <g
       id="g4556"
       fill="#24315c"
       transform="translate(257.6972,463.0109)">
      <path
         id="path4558"
         d="m 0,0 6.338,-0.116 c 0,0 2.23,-5.091 0.822,-11.455 0,0 -1.174,-6.826 -0.822,-9.604 0,0 -6.925,0 -6.69,9.604 0,0 0.587,7.174 0.352,11.571"
         inkscape:connector-curvature="0" />
    </g>
    <g
       id="g4560"
       fill="#24315c"
       transform="translate(202.2972,461.5065)">
      <path
         id="path4562"
         d="m 0,0 c 0,0 9.742,1.852 20.07,1.273 0,0 21.48,-0.463 25.471,-0.116 0,0 4.929,-4.86 3.873,-15.62 0,0 8.803,-0.694 7.981,-10.298 0,0 0.47,-4.86 -5.047,-9.603 0,0 -17.136,9.603 -23.944,14.694 0,0 -25.939,18.86 -28.404,19.67"
         inkscape:connector-curvature="0" />
    </g>
    <g
       id="g4564"
       fill="#24315c"
       transform="translate(178.8226,460.0026)">
      <path
         id="path4566"
         d="m 0,0 c 0,0 18.428,-10.645 23.944,-15.852 0,0 26.174,-19.67 32.396,-21.29 0,0 6.455,-16.545 -11.973,-24.876 0,0 -1.76,0.579 -2.817,1.273 0,0 -10.446,6.942 -18.662,7.637 0,0 -2.23,-6.017 -17.606,-10.53 0,0 -3.991,-0.347 -5.164,-0.116 0,0 1.173,27.885 0.821,39.224 0,0 -0.235,21.637 -0.939,24.53"
         inkscape:connector-curvature="0" />
    </g>
    <g
       id="g4568"
       fill="#24315c"
       transform="translate(84.22,413.605)">
      <path
         id="path4570"
         d="m 0,0 c 0,0 24.766,17.124 32.042,21.289 0,0 32.631,20.365 35.565,23.836 0,0 1.877,-3.703 1.291,-11.57 0,0 -0.469,-6.249 -0.235,-7.637 0,0 -3.051,1.967 -4.812,2.776 0,0 -2.113,1.505 -3.639,-1.04 0,0 -3.169,-4.745 -3.99,-6.48 0,0 -2.23,-4.745 -4.93,-6.249 0,0 1.056,-3.008 1.878,-4.512 0,0 2.348,-5.322 -1.878,-8.678 0,0 -7.512,-6.248 -8.216,-10.76 0,0 -3.991,-0.116 -7.864,1.504 0,0 -5.282,2.083 -8.569,-2.893 0,0 -5.047,0.347 -7.629,2.43 0,0 -5.868,6.017 -7.277,7.405 0,0 -1.643,1.851 -6.338,0.579 0,0 -3.873,-1.852 -5.399,0"
         inkscape:connector-curvature="0" />
    </g>
    <g
       id="g4572"
       fill="#24315c"
       transform="translate(88.2107,462.8954)">
      <path
         id="path4574"
         d="m 0,0 c 0,0 9.977,-1.389 19.014,-0.116 0,0 17.254,1.851 25.118,0.232 l -54.578,-36.795 c 0,0 -0.939,-0.463 -1.879,0 0,0 -5.633,3.471 -9.624,10.529 0,0 -2.817,4.282 -6.455,6.133 0,0 -0.705,4.281 7.042,7.636 0,0 6.807,2.43 13.498,3.587 0,0 7.277,1.736 7.864,8.794"
         inkscape:connector-curvature="0" />
    </g>
    <g
       id="g4576"
       fill="#e30518"
       transform="translate(157.0305,485.6892)">
      <path
         id="path4578"
         d="m 0,0 c 0,0 -0.314,30.083 -0.157,32.089 0,0 -0.468,17.896 -1.251,22.369 0,0 3.755,1.234 6.416,3.086 0,0 5.477,4.166 9.703,5.245 0,0 5.008,-6.788 4.538,-21.136 0,0 -0.783,-18.204 -1.565,-23.912 0,0 -1.096,-8.793 0,-16.507 0,0 7.825,-2.931 16.902,-2.468 0,0 29.265,0.462 32.864,0.308 0,0 4.226,-0.154 6.26,-0.463 0,0 2.191,-0.308 0.157,-2.777 0,0 -2.661,-3.085 -2.348,-5.553 0,0 -0.156,-1.543 1.252,-0.617 0,0 1.252,0.154 2.66,1.388 0,0 8.295,6.943 14.398,6.943 0,0 5.948,0.154 7.826,-0.927 0,0 7.355,-9.719 7.668,-16.198 0,0 -9.546,1.08 -14.711,0.926 0,0 -31.299,-1.234 -42.254,-1.698 0,0 -23.787,-1.079 -29.578,0 l -0.157,-50.447 -7.981,-0.154 c 0,0 -8.92,5.245 -10.172,24.375 l -0.157,26.072 c 0,0 -14.711,0.154 -17.528,0.308 0,0 -35.994,-0.153 -50.235,2.007 0,0 -9.704,1.234 -11.738,1.851 0,0 -1.252,1.234 -1.252,3.548 0,0 0.156,2.314 3.286,3.086 0,0 4.382,0.308 7.513,0.308 0,0 3.286,0.463 7.512,3.703 0,0 7.824,6.016 16.744,5.399 0,0 11.582,-0.154 28.17,-2.468 0,0 15.494,-0.463 17.215,2.314"
         inkscape:connector-curvature="0" />
    </g>
    <g
       id="g4580"
       fill="#e30518"
       transform="translate(182.0703,488.9287)">
      <path
         id="path4582"
         d="m 0,0 c 0,0 8.295,4.165 13.928,9.41 0,0 5.32,4.166 8.294,6.635 0,0 14.085,11.57 24.414,11.57 0,0 -1.878,-8.177 -11.268,-11.262 0,0 -9.233,-3.24 -11.424,-5.245 C 23.944,11.108 7.981,-3.857 0,0"
         inkscape:connector-curvature="0" />
    </g>
    <g
       id="g4584"
       fill="#e30518"
       transform="translate(147.1714,488.4661)">
      <path
         id="path4586"
         d="m 0,0 c 0,0 -8.763,-1.543 -19.249,6.479 0,0 -7.513,6.171 -9.547,7.868 0,0 -4.851,4.628 -6.73,5.246 0,0 4.383,2.16 17.059,-6.171 l 9.233,-7.251 c 0,0 6.574,-5.4 9.234,-6.171"
         inkscape:connector-curvature="0" />
    </g>
    <g
       id="g4588"
       fill="#e30518"
       transform="translate(152.8052,463.1647)">
      <path
         id="path4590"
         d="m 0,0 c 0,0 -14.241,-0.463 -22.849,-7.405 0,0 -15.18,-11.416 -16.588,-12.341 0,0 -16.745,-11.263 -19.719,-12.651 0,0 -10.642,-5.554 -10.955,-11.262 0,0 0.626,-0.154 2.66,0.926 0,0 12.99,6.479 18.311,10.49 0,0 24.726,16.044 26.761,18.204 0,0 20.501,13.113 22.379,14.039"
         inkscape:connector-curvature="0" />
    </g>
    <g
       id="g4592"
       fill="#e30518"
       transform="translate(185.9824,464.0905)">
      <path
         id="path4594"
         d="m 0,0 c 0,0 9.077,-10.336 17.841,-14.502 0,0 9.39,-5.861 13.615,-8.021 l 10.486,-7.405 c 0,0 8.763,-6.48 16.588,-4.628 0,0 -17.684,10.798 -20.657,13.575 0,0 -17.998,12.959 -22.066,14.81 0,0 -12.208,5.708 -15.807,6.171"
         inkscape:connector-curvature="0" />
    </g>
    <g
       id="g4596"
       fill="#24315c"
       transform="translate(132.3036,488.3121)">
      <path
         id="path4598"
         d="m 0,0 c 0,0 -7.355,7.56 -15.806,12.033 0,0 -5.164,2.468 -6.573,3.394 0,0 1.409,-5.092 -1.252,-8.64 0,0 -3.286,-5.09 -5.477,-6.324 z"
         inkscape:connector-curvature="0" />
    </g>
    <g
       id="g4600"
       fill="#24315c"
       transform="translate(154.2137,491.3969)">
      <path
         id="path4602"
         d="m 0,0 c 0,0 0.156,42.271 -2.504,51.065 0,0 -3.13,0.617 -4.069,1.697 0,0 -2.817,-4.166 -3.287,-7.868 0,0 -1.408,-10.953 -6.572,-12.342 0,0 -2.661,0 -4.695,0.617 0,0 -5.634,1.697 -9.703,-0.617 0,0 0.47,-4.32 -3.443,-10.028 0,0 12.989,-8.331 16.276,-11.416 0,0 15.024,-10.182 17.997,-11.108"
         inkscape:connector-curvature="0" />
    </g>
    <g
       id="g4604"
       fill="#24315c"
       transform="translate(290.3912,396.169)" />
    <g
       id="g4608"
       fill="#e30518"
       transform="translate(329.0386,496.9391)" />
    <g
       id="g4612"
       fill="#24315c"
       transform="translate(329.0386,552.5276)" />
    <g
       id="g4616"
       fill="#e30518"
       transform="translate(288.8829,334.9549)" />
  </g>
</svg>
